<?xml version="1.0" encoding="UTF-8" standalone="no"?>
<svg
   xmlns:dc="http://purl.org/dc/elements/1.1/"
   xmlns:cc="http://web.resource.org/cc/"
   xmlns:rdf="http://www.w3.org/1999/02/22-rdf-syntax-ns#"
   xmlns:svg="http://www.w3.org/2000/svg"
   xmlns="http://www.w3.org/2000/svg"
   xmlns:sodipodi="http://sodipodi.sourceforge.net/DTD/sodipodi-0.dtd"
   xmlns:inkscape="http://www.inkscape.org/namespaces/inkscape"
   width="3000"
   height="2000"
   viewBox="0 -410 3080 1900"
   id="svg2"
   sodipodi:version="0.32"
   inkscape:version="0.45.1"
   sodipodi:docname="Mu_uc_lc.svg"
   inkscape:output_extension="org.inkscape.output.svg.inkscape"
   sodipodi:docbase="C:\Documents and Settings\Flanker\Desktop"
   version="1.0">
  <metadata
     id="metadata15">
    <rdf:RDF>
      <cc:Work
         rdf:about="">
        <dc:format>image/svg+xml</dc:format>
        <dc:type
           rdf:resource="http://purl.org/dc/dcmitype/StillImage" />
      </cc:Work>
    </rdf:RDF>
  </metadata>
  <defs
     id="defs13" />
  <sodipodi:namedview
     inkscape:window-height="1005"
     inkscape:window-width="1280"
     inkscape:pageshadow="2"
     inkscape:pageopacity="0.0"
     guidetolerance="10.0"
     gridtolerance="10.0"
     objecttolerance="10.0"
     borderopacity="1.0"
     bordercolor="#666666"
     pagecolor="#ffffff"
     id="base"
     inkscape:zoom="0.19947368"
     inkscape:cx="1605.3276"
     inkscape:cy="1351.0554"
     inkscape:window-x="-4"
     inkscape:window-y="-4"
     inkscape:current-layer="svg2"
     width="3000px"
     height="2000px"
     inkscape:showpageshadow="false" />
  <text
     xml:space="preserve"
     style="font-size:12px;font-style:normal;font-weight:normal;fill:#000000;fill-opacity:1;stroke:none;stroke-width:1px;stroke-linecap:butt;stroke-linejoin:miter;stroke-opacity:1;font-family:Lello"
     x="-471.24011"
     y="-946.41162"
     id="text2171"><tspan
       sodipodi:role="line"
       id="tspan2173"
       x="-471.24011"
       y="-946.41162"></tspan></text>
  <path
     style="font-size:2050.27807617px;font-style:normal;font-weight:normal;fill:#000000;fill-opacity:1;stroke:none;stroke-width:1px;stroke-linecap:butt;stroke-linejoin:miter;stroke-opacity:1;font-family:Times New Roman"
     d="M 996.89654,340.77867 C 1087.6631,340.77932 1156.5729,325.42895 1203.6262,294.7275 C 1250.6774,264.02745 1282.0456,226.65263 1297.7308,182.60292 C 1313.4137,138.55483 1323.5917,65.14 1328.2647,-37.6418 C 1332.9354,-151.76746 1358.4637,-236.69507 1404.8498,-292.42489 C 1451.2334,-348.15213 1527.4847,-376.0164 1633.604,-376.01777 L 1633.604,-337.9755 C 1595.5603,-335.30454 1569.6982,-320.45472 1556.0178,-293.426 C 1542.3345,-266.39471 1535.4936,-209.16451 1535.495,-121.73524 C 1535.4936,6.4081345 1521.9786,105.35131 1494.9499,175.09457 C 1467.9186,244.83949 1413.6917,301.40228 1332.2692,344.78311 C 1250.8443,388.16526 1139.0535,411.52452 996.89654,414.86098 L 996.89654,732.21359 C 996.89568,810.30054 1001.4007,860.85666 1010.4116,883.88211 C 1019.4207,906.90779 1038.4418,925.42835 1067.475,939.44385 C 1096.5063,953.45946 1141.3894,960.46724 1202.1246,960.46721 L 1202.1246,997.50836 L 599.45494,997.50836 L 599.45494,960.46721 C 658.85375,959.79983 703.06951,953.29261 732.10232,940.94551 C 761.13396,928.59853 780.48878,910.57853 790.16684,886.88545 C 799.8436,863.19259 804.68231,811.63536 804.68297,732.21359 L 804.68297,414.86098 C 661.18968,411.52452 549.73262,388.49896 470.31145,345.78423 C 390.88962,303.0708 336.99646,247.17541 308.6318,178.09791 C 280.26682,109.02205 266.08441,8.7440609 266.08453,-122.73635 C 266.08441,-206.82858 259.74403,-262.72396 247.06339,-290.42267 C 234.38255,-318.11879 208.01995,-333.96972 167.97552,-337.9755 L 167.97552,-376.01777 C 235.38366,-374.68158 289.77737,-364.00306 331.15683,-343.98218 C 372.53591,-323.95861 405.73944,-288.58601 430.76751,-237.86427 C 455.795,-187.14006 469.97742,-120.3993 473.31478,-37.6418 C 477.98631,64.472592 487.83057,137.55372 502.8476,181.6018 C 517.86391,225.65152 549.39892,263.19319 597.45271,294.22694 C 645.5056,325.2621 714.58229,340.77932 804.68297,340.77867 L 804.68297,-95.706316 C 804.68231,-173.79191 800.17731,-224.34803 791.16795,-247.37484 C 782.1573,-270.39915 763.30304,-288.58601 734.6051,-301.93546 C 705.90599,-315.28231 660.85598,-322.29009 599.45494,-322.95882 L 599.45494,-359.99997 L 1202.1246,-359.99997 L 1202.1246,-322.95882 C 1140.722,-322.29009 1095.672,-315.44916 1066.9744,-302.43601 C 1038.275,-289.42027 1019.4207,-271.23341 1010.4116,-247.87539 C 1001.4007,-224.51488 996.89568,-173.79191 996.89654,-95.706316 L 996.89654,340.77867 z M 2353.4038,965.47277 C 2424.1483,944.78316 2474.7044,904.90556 2505.0723,845.83984 C 2535.4385,786.77442 2559.2983,672.14718 2576.6518,501.95775 C 2591.3339,362.47007 2604.1815,269.19986 2615.1947,222.14685 C 2626.2059,175.0954 2648.0635,137.38687 2680.7675,109.02116 C 2713.4695,80.657226 2756.5173,66.474815 2809.911,66.473884 C 2841.278,66.474815 2875.3158,71.146668 2912.0245,80.489457 L 2912.0245,118.53173 C 2904.6817,117.8652 2898.3414,117.53149 2893.0033,117.53061 C 2864.3036,117.53149 2839.9432,134.88409 2819.9221,169.58846 C 2799.8987,204.29448 2782.5462,291.05746 2767.8643,429.87766 C 2753.8476,553.34863 2738.3304,641.27958 2721.3126,693.67077 C 2704.2926,746.06256 2676.9289,797.45295 2639.2214,847.84207 C 2601.5118,898.23149 2559.9657,936.10687 2514.5829,961.46832 C 2469.1983,986.82984 2415.472,1005.851 2353.4038,1018.5317 L 2353.4038,1435.9956 L 2244.2825,1435.9956 L 2244.2825,1018.5317 C 2179.5434,1005.1835 2123.8149,984.82762 2077.0968,957.46387 C 2030.3778,930.1002 1989.4991,891.55741 1954.4605,841.83539 C 1919.4213,792.11369 1893.3924,741.39071 1876.3738,689.66632 C 1859.3546,637.94254 1843.5037,546.00715 1828.8209,413.85987 C 1814.8052,284.38338 1797.7863,202.62596 1777.7642,168.58734 C 1757.7418,134.55039 1733.7152,117.53149 1705.6841,117.53061 C 1699.6774,117.53149 1693.0033,117.8652 1685.6619,118.53173 L 1685.6619,80.489457 C 1722.3692,71.146668 1756.407,66.474815 1787.7753,66.473884 C 1840.5004,66.474815 1883.2145,80.657226 1915.9177,109.02116 C 1948.6204,137.38687 1971.1454,175.0954 1983.4928,222.14685 C 1995.8395,269.19986 2007.3523,353.46007 2018.0311,474.92772 C 2036.0508,673.81569 2062.2465,800.62313 2096.6185,855.35041 C 2130.9895,910.07797 2180.2108,946.78539 2244.2825,965.47277 L 2244.2825,66.473884 L 2353.4038,66.473884 L 2353.4038,965.47277 z "
     id="text2175" />
</svg>
