<svg width="618" height="442" viewBox="0 0 618 442" fill="none" xmlns="http://www.w3.org/2000/svg">
    <g id="Frame" clip-path="url(#clip0)">
        <g id="path">
            <path id="path177"
                d="M387.683 7.67501C347.951 7.81924 315.579 20.7637 293.294 45.4165C276.546 63.9438 265.562 94.2218 265.475 122.112L265.436 134.505L256.717 129.363C220.492 108.002 162.211 105.761 125.787 124.333C111.555 131.589 92.6261 149.284 86.7338 160.839C81.5191 171.065 70.8971 217.758 70.8946 230.464C70.8935 235.902 67.2657 243.096 59.5726 252.918C45.507 270.877 44.0624 274.624 48.6704 281.199C52.1417 286.152 67.0334 291.462 64.086 286.695C63.3214 285.459 61.1779 284.448 59.3185 284.448C57.459 284.448 53.9897 282.3 51.6126 279.675C47.5504 275.189 48.1077 273.84 60.8434 257.263C72.2875 242.368 74.4801 237.699 74.9497 227.223C75.7757 208.797 83.2474 175.44 89.1291 163.918C96.385 149.703 118.555 130.659 135.022 124.502C167.413 112.39 196.809 111.551 229.945 121.789C253.489 129.063 264.693 137.71 267.966 151.136C271.83 166.986 285.084 192.55 296.113 205.427C305.432 216.308 305.529 216.668 304.216 235.337C301.798 269.697 288.586 296.762 265.729 314.184C248.909 327.003 245.97 335.611 247.625 367.228C249.147 396.313 255.326 409.484 272.907 421.123C285.525 429.476 285.466 429.618 266.753 435.129C263.861 435.98 266.226 435.966 272.01 435.102C287.236 432.826 293.246 433.162 316.701 437.588C331.395 440.361 381.073 441.253 618 441.622V436.788C279.961 436.54 286.002 434.654 306.938 420.153C328.796 405.014 333.852 382.883 334.639 298.9C335.087 251.081 334.842 248.479 328.905 237.153C325.495 230.65 319.304 221.743 315.145 217.363C310.155 212.107 306.701 204.748 304.99 195.732C301.583 177.779 294.809 164.952 280.108 148.611C266.478 133.46 265.96 130.388 271.84 99.6733C280.158 56.223 304.746 29.6882 349.03 16.3733C374.291 8.77801 413.928 9.88973 436.983 18.8404C477.142 34.4311 492.403 58.9628 498.43 117.605C499.808 131.013 501.994 136.064 513.048 151.394C520.197 161.307 525.452 170.962 524.729 172.847C524.005 174.732 520.083 177.863 516.014 179.806C511.099 182.153 508.471 185.535 508.185 189.882C507.776 196.083 507.821 196.107 509.051 190.305C509.854 186.519 513.285 183.161 518.043 181.503C530.05 177.32 530.708 168.382 519.988 155.015C505.992 137.563 501.465 129.3 502.897 123.825C504.828 116.443 494.786 70.018 488.664 58.0252C472.137 25.6479 435.738 7.50051 387.683 7.67495L387.683 7.67501ZM269.907 143.877L275.899 149.135C284.574 156.741 292.868 170.755 298.158 186.745C300.699 194.426 302.231 201.257 301.562 201.925C298.081 205.404 275.208 166.956 271.717 151.759L269.907 143.877ZM506.629 202.064C505.994 201.985 505.206 202.094 504.233 202.348C498.786 203.772 498.173 205.96 502.119 209.904C503.974 211.758 503.569 215.022 500.825 220.284C498.624 224.505 497.004 232.974 497.228 239.105C498.045 261.465 486.362 265.32 450.585 254.496C406.443 241.142 392.589 232.267 389.928 215.631C388.379 205.954 383.739 201.469 383.739 209.65C383.739 217.625 391.077 230.969 399.232 237.827C406.117 243.617 445.576 258.48 469.181 264.176C477.772 266.249 478.187 266.208 487.458 262.336C498.923 257.549 502.9 249.998 500.729 237.153C499.38 229.175 500.08 225.979 504.037 222.024C506.797 219.265 509.055 213.427 509.055 209.049C509.055 204.23 508.531 202.299 506.629 202.064V202.064ZM311.017 217.59C313.425 217.74 317.134 223.12 322.335 233.743C331.229 251.913 333.063 282.629 328.851 342.93C325.267 394.22 319.63 409.295 299.448 421.562C289.822 427.412 289.899 427.418 278.583 419.945C266.012 411.644 260.319 404.822 256.101 393.003C251.741 380.785 251.176 341.449 255.246 333.539C256.871 330.383 265.148 320.965 273.639 312.609C296.651 289.965 307.501 264.4 307.501 232.819C307.501 222.52 308.608 217.439 311.017 217.59ZM65.2721 292.33C62.0433 292.33 62.4574 307.444 65.7419 309.473C67.2466 310.402 67.8117 313.262 66.9973 315.827C66.1789 318.404 67.3075 321.975 69.5197 323.809C72.2037 326.036 73.5248 331.825 73.5248 341.379C73.5248 353.004 74.7105 356.817 79.9752 362.078C84.6551 366.755 89.2915 368.525 96.8465 368.525C108.808 368.525 159.917 352.224 173.07 344.212C181.774 338.91 189.336 325.905 189.055 316.72C188.976 314.145 186.881 317.331 184.399 323.806C181.07 332.489 177.143 337.142 169.426 341.541C155.944 349.226 104.857 365.9 94.7939 365.9C83.5239 365.9 75.3556 354.75 77.4682 342.253C78.7066 334.927 77.7892 331.189 73.3746 325.58C68.0612 318.829 67.9703 318.032 72.0229 313.556C76.0891 309.065 76.0036 308.667 70.6635 307.271C66.1972 306.104 65.242 304.329 66.2502 299.058C66.9578 295.358 66.5175 292.33 65.2721 292.33V292.33ZM66.7085 437.119C15.8144 437.207 -7.97418 437.933 -7.97418 439.347C-7.97418 442.557 233.891 443.014 250.979 439.836C256.763 438.76 200.865 437.591 126.761 437.238C103.65 437.128 83.6732 437.089 66.7085 437.119V437.119Z"
                fill="#143D42" stroke="#143D42" stroke-width="2" />
        </g>
        <path id="path415 7 5"
            d="M186.117 158.172C179.272 158.279 172.142 159.984 164.979 163.668C156.041 168.263 141.624 182.441 143.236 185.048C143.988 186.264 143.466 187.261 142.077 187.261C133.807 187.261 131.591 217.669 138.719 233.351C143.178 243.163 157.631 258.202 162.603 258.202C163.777 258.202 165.516 262.339 166.465 267.397C168.191 276.593 168.19 276.592 187.542 276.592C205.287 276.592 206.786 276.177 205.584 271.581C204.293 266.648 205.477 265.117 222.466 249.77C259.149 216.632 227.948 157.518 186.117 158.172ZM186.036 165.569C198.025 165.569 209.523 170.658 218.001 179.717C226.479 188.776 231.242 201.063 231.243 213.876C231.241 222.839 228.905 231.625 224.497 239.25C220.09 246.876 213.784 253.041 206.285 257.055C202.445 260.687 198.116 263.456 196.106 263.456C193.83 263.456 191.217 265.819 190.299 268.71C188.023 275.878 180.652 275.313 173.212 267.397C169.816 263.785 168.129 260.822 169.465 260.812C170.486 260.804 169.275 259.42 166.723 257.49C158.988 253.584 152.449 247.412 147.866 239.691C143.283 231.971 140.844 223.019 140.833 213.876C140.85 213.332 140.876 212.79 140.91 212.248C140.734 210.655 140.762 209.325 141.095 208.426C141.122 208.351 141.148 208.298 141.175 208.225C142.471 196.479 147.753 185.649 156.021 177.787C164.289 169.925 174.969 165.578 186.036 165.569ZM196.873 266.085C198.319 266.085 199.499 267.265 199.499 268.71C199.499 270.155 198.319 271.338 196.873 271.338C195.427 271.338 194.242 270.155 194.242 268.71C194.242 267.265 195.427 266.085 196.873 266.085ZM178.61 309.406C178.61 307.339 181.272 305.076 184.525 304.377C187.846 303.663 186.501 303.295 181.46 303.537C176.275 303.786 172.016 302.58 171.382 300.684C170.578 298.275 174.958 297.399 187.811 297.399C200.678 297.399 205.04 298.273 204.217 300.684C203.601 302.49 200.249 303.703 196.768 303.378C193.288 303.054 191.919 303.448 193.726 304.254C200.85 307.431 197.044 313.164 187.811 313.164C181.584 313.164 178.61 311.949 178.61 309.406ZM170.723 292.144C170.723 290.662 178.172 289.517 187.811 289.517C197.451 289.517 204.9 290.662 204.9 292.144C204.9 293.627 197.451 294.772 187.811 294.772C178.172 294.772 170.723 293.627 170.723 292.144ZM170.723 284.262C170.723 281.341 171.499 281.205 191.097 280.686C200.58 280.435 204.898 281.349 204.899 283.605C204.899 285.896 199.73 286.89 187.811 286.89C178.172 286.89 170.723 285.744 170.723 284.262Z"
            fill="#143D42" />
        <path id="path415 7 5 3"
            d="M382.607 44.1125C375.762 44.2195 368.633 45.925 361.469 49.6086C352.532 54.2043 338.114 68.3819 339.726 70.9888C340.478 72.2049 339.957 73.2019 338.567 73.2019C330.297 73.2019 328.082 103.61 335.209 119.292C339.669 129.104 354.122 144.143 359.093 144.143C360.267 144.143 362.006 148.28 362.955 153.338C364.682 162.534 364.68 162.533 384.032 162.533C401.777 162.533 403.277 162.118 402.074 157.522C400.783 152.589 401.968 151.058 418.957 135.711C455.64 102.573 424.439 43.4588 382.607 44.1125ZM382.526 51.5099C394.515 51.5095 406.013 56.5986 414.491 65.6578C422.969 74.7169 427.732 87.0042 427.733 99.8165C427.731 108.78 425.395 117.566 420.988 125.191C416.58 132.817 410.274 138.982 402.775 142.996C398.935 146.627 394.606 149.397 392.597 149.397C390.32 149.397 387.707 151.76 386.789 154.651C384.513 161.819 377.143 161.253 369.702 153.338C366.306 149.725 364.619 146.763 365.955 146.753C366.976 146.745 365.766 145.36 363.213 143.431C355.478 139.525 348.939 133.353 344.356 125.632C339.773 117.911 337.334 108.96 337.323 99.8165C337.34 99.2734 337.366 98.7306 337.4 98.1884C337.224 96.596 337.252 95.2656 337.585 94.3666C337.613 94.2919 337.639 94.2391 337.666 94.1664C338.961 82.4204 344.243 71.5902 352.511 63.7283C360.779 55.8663 371.459 51.5189 382.526 51.5099ZM393.363 152.026C394.809 152.026 395.989 153.206 395.989 154.651C395.989 156.096 394.809 157.279 393.363 157.279C391.917 157.279 390.733 156.096 390.733 154.651C390.733 153.206 391.917 152.026 393.363 152.026ZM375.1 195.347C375.1 193.279 377.762 191.016 381.015 190.318C384.336 189.604 382.991 189.236 377.95 189.478C372.765 189.727 368.506 188.521 367.873 186.625C367.068 184.216 371.448 183.34 384.302 183.34C397.168 183.34 401.53 184.214 400.707 186.625C400.091 188.431 396.739 189.643 393.259 189.319C389.778 188.995 388.409 189.389 390.217 190.195C397.34 193.372 393.534 199.105 384.302 199.105C378.074 199.105 375.1 197.89 375.1 195.347ZM367.213 178.085C367.213 176.603 374.662 175.458 384.302 175.458C393.941 175.458 401.39 176.603 401.39 178.085C401.39 179.568 393.941 180.713 384.302 180.713C374.662 180.713 367.213 179.568 367.213 178.085ZM367.213 170.203C367.213 167.282 367.989 167.146 387.587 166.627C397.07 166.376 401.389 167.289 401.389 169.546C401.39 171.837 396.22 172.83 384.302 172.83C374.662 172.83 367.213 171.685 367.213 170.203Z"
            fill="#143D42" />
        <g id="right">
            <path id="path415 7 7"
                d="M399.238 100.777C398.836 100.729 398.836 100.729 397.935 98.1924C397.44 96.7973 397.005 95.6306 396.97 95.5998C396.935 95.5691 396.589 95.4347 396.203 95.3009C395.817 95.1673 395.177 94.8991 394.781 94.7049C394.06 94.3517 394.06 94.3517 391.603 95.5206C389.901 96.3305 389.112 96.6707 389.034 96.6282C388.701 96.4473 386.419 94.1653 386.226 93.8202C386.183 93.7436 386.525 92.9495 387.335 91.2473C388.506 88.7852 388.506 88.7852 388.186 88.1439C387.859 87.488 387.331 86.1467 387.331 85.9698C387.331 85.9071 386.398 85.5408 384.762 84.9617C381.688 83.8734 382.069 84.227 382.031 82.428C381.971 79.646 381.733 79.963 384.663 78.92C386.062 78.422 387.229 77.9881 387.257 77.9557C387.285 77.9234 387.431 77.5479 387.581 77.1211C387.731 76.6944 387.998 76.0528 388.175 75.6954C388.497 75.0455 388.497 75.0454 387.33 72.5923C386.533 70.9166 386.182 70.104 386.223 70.028C386.404 69.697 388.702 67.4001 389.034 67.2199C389.112 67.1775 389.903 67.5177 391.602 68.3246C394.058 69.4905 394.058 69.4905 394.705 69.1703C395.062 68.9941 395.702 68.7273 396.129 68.5773C396.556 68.4274 396.932 68.2815 396.965 68.2532C396.998 68.2248 397.432 67.0581 397.93 65.6604C398.974 62.7329 398.657 62.9706 401.439 63.0306C403.239 63.0694 402.886 62.6915 403.969 65.7421C404.873 68.2913 404.873 68.2913 405.621 68.5385C406.032 68.6744 406.689 68.9452 407.081 69.1402C407.792 69.4948 407.792 69.4948 410.256 68.3256C412.344 67.3347 412.742 67.1687 412.871 67.2369C413.068 67.3415 415.526 69.7976 415.627 69.9908C415.691 70.1134 415.505 70.5568 414.533 72.5996C413.363 75.0606 413.363 75.0605 413.683 75.7029C413.937 76.2118 414.358 77.2532 414.573 77.9058C414.602 77.9946 414.648 78.0122 417.717 79.1028C420.056 79.934 419.845 79.6545 419.845 81.924C419.845 84.2091 420.128 83.887 417.21 84.9237C415.813 85.4201 414.646 85.8543 414.616 85.8886C414.587 85.9229 414.453 86.2669 414.319 86.6529C414.186 87.039 413.918 87.6781 413.724 88.0732C413.371 88.7915 413.371 88.7915 414.541 91.2466C415.363 92.9718 415.692 93.7358 415.648 93.8164C415.467 94.1493 413.169 96.4475 412.838 96.6268C412.762 96.6676 411.938 96.312 410.263 95.5163C407.8 94.3458 407.8 94.3458 407.158 94.6656C406.505 94.9913 405.16 95.5197 404.985 95.5197C404.924 95.5197 404.541 96.4953 403.967 98.1115C403.461 99.5371 403.015 100.723 402.977 100.746C402.876 100.808 399.716 100.834 399.238 100.777ZM402.626 91.188C410.009 89.8779 412.927 80.7863 407.707 75.3593C402.82 70.2791 394.084 72.311 391.963 79.0212C389.811 85.8313 395.598 92.4351 402.626 91.188ZM399.996 86.5755C397.943 86.17 396.347 84.3258 396.226 82.2195C395.977 77.8477 401.171 75.5065 404.264 78.5971C407.56 81.8921 404.572 87.4791 399.996 86.5755Z"
                fill="#143D42" />
        </g>
        <g id="right_2">
            <path id="path415 7 6"
                d="M386.57 145.739C386.253 145.701 386.253 145.701 385.544 143.704C385.154 142.606 384.812 141.687 384.785 141.663C384.757 141.639 384.485 141.533 384.181 141.428C383.877 141.323 383.373 141.112 383.061 140.959C382.494 140.681 382.494 140.681 380.56 141.601C379.22 142.238 378.599 142.506 378.537 142.473C378.275 142.33 376.479 140.534 376.326 140.262C376.293 140.202 376.562 139.577 377.2 138.237C378.122 136.299 378.122 136.299 377.87 135.794C377.612 135.277 377.197 134.221 377.197 134.082C377.197 134.033 376.462 133.744 375.174 133.289C372.755 132.432 373.055 132.71 373.024 131.294C372.977 129.104 372.79 129.354 375.096 128.532C376.197 128.14 377.116 127.799 377.138 127.773C377.16 127.748 377.275 127.452 377.393 127.116C377.511 126.78 377.722 126.275 377.861 125.994C378.115 125.482 378.115 125.482 377.196 123.551C376.568 122.232 376.292 121.592 376.325 121.533C376.467 121.272 378.276 119.464 378.537 119.322C378.598 119.289 379.221 119.556 380.559 120.192C382.492 121.109 382.492 121.109 383.002 120.857C383.282 120.719 383.787 120.509 384.123 120.391C384.459 120.273 384.755 120.158 384.781 120.135C384.807 120.113 385.149 119.195 385.541 118.094C386.362 115.79 386.112 115.977 388.303 116.024C389.72 116.055 389.442 115.757 390.294 118.159C391.006 120.165 391.006 120.165 391.595 120.36C391.919 120.467 392.436 120.68 392.744 120.834C393.304 121.113 393.304 121.113 395.243 120.192C396.887 119.412 397.201 119.282 397.302 119.335C397.457 119.418 399.392 121.351 399.472 121.503C399.522 121.6 399.376 121.949 398.611 123.557C397.689 125.494 397.689 125.494 397.942 126C398.141 126.401 398.473 127.22 398.642 127.734C398.665 127.804 398.701 127.818 401.117 128.676C402.958 129.331 402.792 129.111 402.792 130.897C402.792 132.696 403.015 132.443 400.718 133.259C399.619 133.649 398.7 133.991 398.676 134.018C398.653 134.045 398.548 134.316 398.442 134.62C398.337 134.924 398.126 135.427 397.973 135.738C397.696 136.304 397.696 136.304 398.617 138.236C399.264 139.594 399.523 140.196 399.488 140.259C399.346 140.521 397.537 142.33 397.276 142.472C397.217 142.504 396.568 142.224 395.249 141.597C393.31 140.676 393.31 140.676 392.805 140.928C392.291 141.184 391.232 141.6 391.094 141.6C391.046 141.6 390.745 142.368 390.293 143.64C389.894 144.763 389.543 145.696 389.513 145.715C389.434 145.764 386.947 145.784 386.57 145.739ZM389.237 138.19C395.049 137.159 397.346 130.002 393.237 125.729C389.39 121.73 382.513 123.33 380.843 128.612C379.149 133.973 383.705 139.172 389.237 138.19ZM387.167 134.559C385.55 134.24 384.294 132.788 384.199 131.13C384.003 127.688 388.092 125.845 390.526 128.278C393.122 130.872 390.769 135.27 387.167 134.559Z"
                fill="#143D42" />
        </g>
        <g id="left">
            <path id="path415 7 5_2"
                d="M366.807 124.549C366.345 124.493 366.345 124.493 365.31 121.579C364.741 119.976 364.242 118.635 364.201 118.6C364.16 118.565 363.764 118.41 363.32 118.256C362.876 118.103 362.14 117.795 361.685 117.572C360.858 117.166 360.858 117.166 358.035 118.509C356.079 119.44 355.172 119.83 355.082 119.781C354.7 119.574 352.077 116.952 351.855 116.555C351.806 116.467 352.199 115.555 353.13 113.599C354.475 110.77 354.475 110.77 354.108 110.033C353.732 109.279 353.126 107.738 353.126 107.535C353.127 107.463 352.053 107.042 350.174 106.376C346.642 105.126 347.08 105.531 347.035 103.465C346.966 100.268 346.693 100.633 350.06 99.4342C351.667 98.862 353.008 98.3634 353.04 98.3263C353.072 98.2892 353.24 97.8576 353.412 97.3673C353.585 96.877 353.892 96.1398 354.096 95.729C354.465 94.9822 354.465 94.9822 353.124 92.1635C352.208 90.238 351.805 89.3043 351.853 89.2171C352.06 88.8367 354.701 86.1975 355.082 85.9904C355.172 85.9417 356.081 86.3326 358.033 87.2597C360.855 88.5994 360.855 88.5995 361.599 88.2309C362.008 88.0285 362.745 87.7219 363.235 87.5496C363.726 87.3773 364.158 87.2097 364.196 87.1772C364.233 87.1446 364.732 85.8039 365.305 84.1979C366.504 80.8341 366.14 81.1073 369.336 81.1762C371.405 81.2207 371 80.7866 372.243 84.2918C373.282 87.2209 373.282 87.2209 374.141 87.5049C374.614 87.6612 375.369 87.9721 375.819 88.1963C376.637 88.6039 376.637 88.6039 379.467 87.2603C381.866 86.1218 382.324 85.931 382.472 86.0094C382.699 86.1296 385.523 88.9517 385.639 89.1737C385.712 89.3146 385.498 89.824 384.382 92.1713C383.037 94.999 383.037 94.999 383.405 95.7372C383.697 96.3219 384.18 97.5184 384.428 98.2683C384.461 98.3704 384.514 98.3907 388.041 99.6438C390.728 100.599 390.486 100.278 390.486 102.885C390.486 105.511 390.811 105.141 387.458 106.332C385.853 106.903 384.512 107.401 384.478 107.441C384.444 107.48 384.29 107.875 384.136 108.319C383.983 108.763 383.675 109.497 383.452 109.951C383.047 110.776 383.047 110.776 384.391 113.597C385.335 115.58 385.714 116.458 385.663 116.55C385.455 116.933 382.814 119.573 382.434 119.779C382.348 119.826 381.4 119.418 379.476 118.503C376.645 117.158 376.645 117.158 375.908 117.526C375.157 117.9 373.612 118.507 373.411 118.507C373.341 118.507 372.901 119.628 372.241 121.485C371.659 123.123 371.147 124.486 371.103 124.513C370.988 124.584 367.357 124.615 366.807 124.549ZM370.7 113.531C379.183 112.025 382.536 101.579 376.538 95.3428C370.923 89.5054 360.885 91.8402 358.448 99.5504C355.975 107.375 362.625 114.963 370.7 113.531ZM367.678 108.231C365.318 107.765 363.485 105.646 363.346 103.225C363.06 98.2021 369.028 95.5119 372.582 99.0631C376.37 102.849 372.936 109.269 367.678 108.231Z"
                fill="#143D42" />
        </g>
        <g id="left_2">
            <path id="path415 7 5_3"
                d="M164.807 241.549C164.345 241.493 164.345 241.493 163.31 238.579C162.741 236.976 162.242 235.635 162.201 235.6C162.16 235.565 161.764 235.41 161.32 235.256C160.876 235.103 160.14 234.795 159.685 234.572C158.858 234.166 158.858 234.166 156.035 235.509C154.079 236.44 153.172 236.83 153.082 236.781C152.7 236.574 150.077 233.952 149.855 233.555C149.806 233.467 150.199 232.555 151.13 230.599C152.475 227.77 152.475 227.77 152.108 227.033C151.732 226.279 151.126 224.738 151.126 224.535C151.127 224.463 150.053 224.042 148.174 223.376C144.642 222.126 145.08 222.531 145.035 220.465C144.966 217.268 144.693 217.633 148.06 216.434C149.667 215.862 151.008 215.363 151.04 215.326C151.072 215.289 151.24 214.858 151.412 214.367C151.585 213.877 151.892 213.14 152.096 212.729C152.465 211.982 152.465 211.982 151.124 209.164C150.208 207.238 149.805 206.304 149.853 206.217C150.06 205.837 152.701 203.197 153.082 202.99C153.172 202.942 154.081 203.333 156.033 204.26C158.855 205.599 158.855 205.599 159.599 205.231C160.008 205.028 160.745 204.722 161.235 204.55C161.726 204.377 162.158 204.21 162.196 204.177C162.233 204.145 162.732 202.804 163.305 201.198C164.504 197.834 164.14 198.107 167.336 198.176C169.405 198.221 169 197.787 170.243 201.292C171.282 204.221 171.282 204.221 172.141 204.505C172.614 204.661 173.369 204.972 173.819 205.196C174.637 205.604 174.637 205.604 177.467 204.26C179.866 203.122 180.324 202.931 180.472 203.009C180.699 203.13 183.523 205.952 183.639 206.174C183.712 206.315 183.498 206.824 182.382 209.171C181.037 211.999 181.037 211.999 181.405 212.737C181.697 213.322 182.18 214.518 182.428 215.268C182.461 215.37 182.514 215.391 186.041 216.644C188.728 217.599 188.486 217.278 188.486 219.885C188.486 222.511 188.811 222.141 185.458 223.332C183.853 223.903 182.512 224.401 182.478 224.441C182.444 224.48 182.29 224.875 182.136 225.319C181.983 225.763 181.675 226.497 181.452 226.951C181.047 227.776 181.047 227.776 182.391 230.597C183.335 232.58 183.714 233.458 183.663 233.55C183.455 233.933 180.814 236.573 180.434 236.779C180.348 236.826 179.4 236.418 177.476 235.503C174.645 234.158 174.645 234.158 173.908 234.526C173.157 234.9 171.612 235.507 171.411 235.507C171.341 235.507 170.901 236.628 170.241 238.485C169.659 240.123 169.147 241.486 169.103 241.513C168.988 241.584 165.357 241.615 164.807 241.549ZM168.7 230.531C177.183 229.025 180.536 218.579 174.538 212.343C168.923 206.505 158.885 208.84 156.448 216.55C153.975 224.375 160.625 231.963 168.7 230.531ZM165.678 225.231C163.318 224.765 161.485 222.646 161.346 220.225C161.06 215.202 167.028 212.512 170.582 216.063C174.37 219.849 170.936 226.269 165.678 225.231Z"
                fill="#143D42" />
        </g>
        <g id="right_3">
            <path id="path415 7 6_2"
                d="M184.57 262.739C184.253 262.701 184.253 262.701 183.544 260.704C183.154 259.606 182.812 258.687 182.785 258.663C182.757 258.639 182.485 258.533 182.181 258.428C181.877 258.323 181.373 258.112 181.061 257.959C180.494 257.681 180.494 257.681 178.56 258.601C177.22 259.238 176.599 259.506 176.537 259.473C176.275 259.33 174.479 257.534 174.326 257.262C174.293 257.202 174.562 256.577 175.2 255.237C176.122 253.299 176.122 253.299 175.87 252.794C175.612 252.277 175.197 251.221 175.197 251.082C175.197 251.033 174.462 250.744 173.174 250.289C170.755 249.432 171.055 249.71 171.024 248.294C170.977 246.104 170.79 246.354 173.096 245.532C174.197 245.14 175.116 244.799 175.138 244.773C175.16 244.748 175.275 244.452 175.393 244.116C175.511 243.78 175.722 243.275 175.861 242.994C176.115 242.482 176.115 242.482 175.196 240.551C174.568 239.232 174.292 238.592 174.325 238.533C174.467 238.272 176.276 236.464 176.537 236.322C176.598 236.289 177.221 236.556 178.559 237.192C180.492 238.109 180.492 238.109 181.002 237.857C181.282 237.719 181.787 237.509 182.123 237.391C182.459 237.273 182.755 237.158 182.781 237.135C182.807 237.113 183.149 236.195 183.541 235.094C184.362 232.79 184.112 232.977 186.303 233.024C187.72 233.055 187.442 232.757 188.294 235.159C189.006 237.165 189.006 237.165 189.595 237.36C189.919 237.467 190.436 237.68 190.744 237.834C191.304 238.113 191.304 238.113 193.243 237.192C194.887 236.412 195.201 236.282 195.302 236.335C195.457 236.418 197.392 238.351 197.472 238.503C197.522 238.6 197.376 238.949 196.611 240.557C195.689 242.494 195.689 242.494 195.942 243C196.141 243.401 196.473 244.22 196.642 244.734C196.665 244.804 196.701 244.818 199.117 245.676C200.958 246.331 200.792 246.111 200.792 247.897C200.792 249.696 201.015 249.443 198.718 250.259C197.619 250.649 196.7 250.991 196.676 251.018C196.653 251.045 196.548 251.316 196.442 251.62C196.337 251.924 196.126 252.427 195.973 252.738C195.696 253.304 195.696 253.304 196.617 255.236C197.264 256.594 197.523 257.196 197.488 257.259C197.346 257.521 195.537 259.33 195.276 259.472C195.217 259.504 194.568 259.224 193.249 258.597C191.31 257.676 191.31 257.676 190.805 257.928C190.291 258.184 189.232 258.6 189.094 258.6C189.046 258.6 188.745 259.368 188.293 260.64C187.894 261.763 187.543 262.696 187.513 262.715C187.434 262.764 184.947 262.784 184.57 262.739ZM187.237 255.19C193.049 254.159 195.346 247.002 191.237 242.729C187.39 238.73 180.513 240.33 178.843 245.612C177.149 250.973 181.705 256.172 187.237 255.19ZM185.167 251.559C183.55 251.24 182.294 249.788 182.199 248.13C182.003 244.688 186.092 242.845 188.526 245.278C191.122 247.872 188.769 252.27 185.167 251.559Z"
                fill="#143D42" />
        </g>
        <g id="right_4">
            <path id="path415 7 7_2"
                d="M197.238 217.777C196.836 217.729 196.836 217.729 195.935 215.192C195.44 213.797 195.005 212.631 194.97 212.6C194.935 212.569 194.589 212.435 194.203 212.301C193.817 212.167 193.177 211.899 192.781 211.705C192.06 211.352 192.06 211.352 189.603 212.521C187.901 213.331 187.112 213.671 187.034 213.628C186.701 213.447 184.419 211.165 184.226 210.82C184.183 210.744 184.525 209.95 185.335 208.247C186.506 205.785 186.506 205.785 186.186 205.144C185.859 204.488 185.331 203.147 185.331 202.97C185.331 202.907 184.398 202.541 182.762 201.962C179.688 200.873 180.069 201.227 180.031 199.428C179.971 196.646 179.733 196.963 182.663 195.92C184.062 195.422 185.229 194.988 185.257 194.956C185.285 194.923 185.431 194.548 185.581 194.121C185.731 193.694 185.998 193.053 186.175 192.695C186.497 192.045 186.497 192.045 185.33 189.592C184.533 187.917 184.182 187.104 184.223 187.028C184.404 186.697 186.702 184.4 187.034 184.22C187.112 184.178 187.903 184.518 189.602 185.325C192.058 186.491 192.058 186.491 192.705 186.17C193.062 185.994 193.702 185.727 194.129 185.577C194.556 185.427 194.932 185.282 194.965 185.253C194.998 185.225 195.432 184.058 195.93 182.66C196.974 179.733 196.657 179.971 199.439 180.031C201.239 180.069 200.886 179.692 201.969 182.742C202.873 185.291 202.873 185.291 203.621 185.538C204.032 185.674 204.689 185.945 205.081 186.14C205.792 186.495 205.792 186.495 208.256 185.326C210.344 184.335 210.742 184.169 210.871 184.237C211.068 184.342 213.526 186.798 213.627 186.991C213.691 187.113 213.505 187.557 212.533 189.6C211.363 192.061 211.363 192.061 211.683 192.703C211.937 193.212 212.358 194.253 212.573 194.906C212.602 194.995 212.648 195.012 215.717 196.103C218.056 196.934 217.845 196.654 217.845 198.924C217.845 201.209 218.128 200.887 215.21 201.924C213.813 202.42 212.646 202.854 212.616 202.889C212.587 202.923 212.453 203.267 212.319 203.653C212.186 204.039 211.918 204.678 211.724 205.073C211.371 205.791 211.371 205.791 212.541 208.247C213.363 209.972 213.692 210.736 213.648 210.816C213.467 211.149 211.169 213.447 210.838 213.627C210.762 213.668 209.938 213.312 208.263 212.516C205.8 211.346 205.8 211.346 205.158 211.666C204.505 211.991 203.16 212.52 202.985 212.52C202.924 212.52 202.541 213.495 201.967 215.112C201.461 216.537 201.015 217.723 200.977 217.746C200.876 217.808 197.716 217.834 197.238 217.777ZM200.626 208.188C208.009 206.878 210.927 197.786 205.707 192.359C200.82 187.279 192.084 189.311 189.963 196.021C187.811 202.831 193.598 209.435 200.626 208.188ZM197.996 203.575C195.943 203.17 194.347 201.326 194.226 199.22C193.977 194.848 199.171 192.507 202.264 195.597C205.56 198.892 202.572 204.479 197.996 203.575Z"
                fill="#143D42" />
        </g>
        <g id="path_blur">


        </g>
    </g>
    <defs>
        <clipPath id="clip0">
            <rect width="618" height="442" fill="white" />
        </clipPath>
    </defs>





    <!-- <g id="Ellipse 2" filter="url(#filter0_g)">
        <circle r="5" fill="white">
            <animateMotion dur="10s" repeatCount="indefinite"
                path="M2.5 439.5H249C252 439.333 259.4 438.4 265 436C272 433 307 427 317.5 408C328 389 329 379.5 333.5 329.5C337.1 289.5 329.667 250.167 325.5 235.5C321 227.333 310.5 210.1 304.5 206.5C298.5 202.9 290.667 194.667 287.5 191C282.333 181.167 271.2 158.7 268 147.5C264.8 136.3 266 121.833 267 116C267.5 98.3333 277.1 56.6 311.5 31C345.9 5.4 400.833 8.66666 424 13.5C433.667 16 457.2 24.7 474 39.5C490.8 54.3 499.333 104 501.5 127C501.333 130.167 504.6 140.8 519 158C533.4 175.2 522 181.167 514.5 182C512.333 183 508 186.2 508 191C508 195.8 506.667 200.667 506 202.5C507 204.833 508.4 210.5 506 214.5C503 219.5 500 222.5 499.5 229C499 235.5 502.5 253.5 494 257C485.5 260.5 483.5 265.5 459.5 260C440.3 255.6 419.833 246.5 412 242.5C404.833 239.333 389.6 228.2 386 209" />

        </circle>

    </g>

    <defs>
        <filter id="filter0_g" filterUnits="userSpaceOnUse" color-interpolation-filters="sRGB">
            <feFlood flood-opacity="0" result="BackgroundImageFix" />
            <feBlend mode="normal" in="SourceGraphic" in2="BackgroundImageFix" result="shape" />
            <feGaussianBlur stdDeviation="3.5" result="effect1_foregroundBlur" />
        </filter>
    </defs>




    <g id="Ellipse 1" filter="url(#filter0_f)">
        <circle r="5" fill="white">
            <animateMotion dur="10s" repeatCount="indefinite"
                path="M617 438.5H340.5C333.833 438.167 314.9 436.2 292.5 431C270.1 425.8 257.167 403.167 253.5 392.5C249.833 379.667 244.3 350.6 251.5 337C258.7 323.4 278.833 302.333 288 293.5C294.667 285.833 307.5 259.2 305.5 214C303.5 168.8 272.333 140.5 257 132C245.333 124 210.1 109.3 162.5 114.5C114.9 119.7 89.6667 155.667 83 173C81.1667 180.333 77.1 197.7 75.5 208.5C73.5 222 75 232.5 70.5 241.5C66 250.5 58.5 258 53 264.5C48.6 269.7 47.8333 273 48 274C48.3333 276.5 49.8 281.9 53 283.5C56.2 285.1 60.6667 286.5 62.5 287L65 293.5V306C65.1667 306.667 66.5 308.5 70.5 310.5C74.5 312.5 70.5 315 68 316C67.1667 318.167 66.5 322.7 70.5 323.5C74.5 324.3 75.5 336.167 75.5 342C74.5 348.167 76.4 361.8 92 367C111.5 373.5 178.5 340 181 335C183 331 186.833 320.667 188.5 316" />

        </circle>

    </g>

    <defs>
        <filter id="filter0_f" filterUnits="userSpaceOnUse" color-interpolation-filters="sRGB">
            <feFlood flood-opacity="0" result="BackgroundImageFix" />
            <feBlend mode="normal" in="SourceGraphic" in2="BackgroundImageFix" result="shape" />
            <feGaussianBlur stdDeviation="3.5" result="effect1_foregroundBlur" />
        </filter>
    </defs> -->


</svg>