<?xml version="1.0" encoding="UTF-8" standalone="no"?>
<svg width="25.4mm" height="25.4mm" viewBox="0 0 25.4 25.4" version="1.1" id="svg4026">
   <defs id="defs4020" />
   <metadata id="metadata4023">

   </metadata>
   <g id="layer1" transform="matrix(2.0001854,0,0,1.9999987,-198.98629,-284.96649)">
      <path style="stroke-width:0.26458332"
         d="m 104.36561,153.47557 c -0.50657,-0.50656 -0.65068,-0.92854 -0.65509,-1.91822 -0.005,-1.18039 -0.0808,-1.32197 -1.08378,-2.03186 -1.52902,-1.08217 -2.08339,-2.11412 -2.08458,-3.88038 -10e-4,-1.6485 0.29625,-2.10344 1.37485,-2.10344 0.56444,0 0.74083,0.126 0.74083,0.52917 0,0.35278 -0.17639,0.52917 -0.52917,0.52917 -0.43992,0 -0.52916,0.17639 -0.52916,1.04588 0,1.38272 0.46771,2.34833 1.36128,2.81042 2.02666,1.04802 3.93038,-0.30084 3.93038,-2.78483 0,-0.89508 -0.0871,-1.07147 -0.52916,-1.07147 -0.35278,0 -0.52917,-0.17639 -0.52917,-0.52917 0,-0.40317 0.17639,-0.52917 0.74083,-0.52917 1.0786,0 1.37596,0.45494 1.37485,2.10344 -0.001,1.76626 -0.55556,2.79821 -2.08458,3.88038 -0.96109,0.68022 -1.07875,0.88162 -1.08378,1.85514 -0.007,1.43742 0.39988,1.73191 2.25974,1.63377 1.84809,-0.0975 2.35935,-0.61465 1.4785,-1.4955 -0.31289,-0.31289 -0.56889,-0.80702 -0.56889,-1.09806 0,-0.68145 0.90605,-1.5875 1.5875,-1.5875 0.68145,0 1.5875,0.90605 1.5875,1.5875 0,0.29104 -0.23813,0.76729 -0.52917,1.05833 -0.29104,0.29104 -0.52917,0.71318 -0.52917,0.93807 0,0.2249 -0.29224,0.70115 -0.64943,1.05833 -0.5674,0.56741 -0.8864,0.64944 -2.52557,0.64944 -1.63917,0 -1.95816,-0.082 -2.52556,-0.64944 z"
         id="path4093" />
   </g>
</svg>