<?xml version="1.0" encoding="UTF-8" standalone="no"?>
<svg xmlns="http://www.w3.org/2000/svg" id="svg8" version="1.1" viewBox="0 0 25.4 25.4" height="25.4mm" width="25.4mm">
   <defs id="defs2" />
   <metadata id="metadata5">

   </metadata>
   <g transform="translate(-93.133331,-136.13333)" id="layer1">
      <path id="path59"
         d="m 101.99462,159.16548 c -1.91759,-0.46684 -3.379334,-1.70704 -4.110794,-3.48776 -0.20221,-0.49227 -0.74798,-1.39577 -1.21283,-2.00776 -1.48865,-1.95987 -1.68696,-5.03553 -0.44719,-6.93558 l 0.41757,-0.63997 0.4001,0.77226 c 0.54008,1.04245 1.21695,1.88976 2.00451,2.50926 l 0.65466,0.51495 0.576994,-0.93359 0.577,-0.93359 -0.922834,-1.02146 c -2.86354,-3.16961 -0.76398,-8.49144 3.350044,-8.49144 1.44277,0 1.49126,0.18076 1.487,5.54302 -0.004,5.3255 -0.14209,5.97635 -1.39291,6.5761 -0.60346,0.28936 -0.71986,0.51396 -0.71986,1.38907 0,1.12673 0.49478,1.36411 1.60489,0.77 l 0.51178,-0.27389 v 2.91972 c 0,3.78821 -0.39008,4.31203 -2.77813,3.73066 z m 5.44386,-0.26187 c -0.4103,-0.4103 -0.54907,-0.88575 -0.54907,-1.88129 v -1.33222 l 0.51178,0.27389 c 1.11011,0.59411 1.60489,0.35673 1.60489,-0.77 0,-0.87511 -0.11639,-1.09971 -0.71986,-1.38907 -1.30083,-0.62373 -1.38869,-1.14082 -1.39291,-8.19762 -0.004,-7.31667 0.0519,-7.55779 1.68248,-7.21472 4.2786,0.90021 5.98018,5.72096 3.07669,8.71659 l -0.86109,0.88842 0.58506,0.94665 0.58506,0.94664 0.65466,-0.51495 c 0.78756,-0.6195 1.46443,-1.46681 2.00452,-2.50926 l 0.40009,-0.77226 0.41758,0.63997 c 1.25978,1.93072 1.04295,4.97793 -0.49787,6.9965 -0.49272,0.64551 -1.08272,1.62086 -1.3111,2.16744 -1.06045,2.53803 -4.82886,4.36735 -6.19091,3.00529 z"
         style="stroke-width:0.26458332" />
   </g>
</svg>