<?xml version="1.0" encoding="UTF-8" standalone="no"?>
<svg xmlns="http://www.w3.org/2000/svg" id="svg8" version="1.1" viewBox="0 0 25.4 25.4" height="25.4mm" width="25.4mm">
   <defs id="defs2" />
   <metadata id="metadata5">

   </metadata>
   <g transform="translate(-93.133331,-136.13333)" id="layer1">
      <path id="path161"
         d="m 98.006439,158.07692 c -1.314701,-0.46081 -1.703386,-0.81181 -2.093434,-1.89047 -0.179006,-0.49503 -0.412106,-0.90006 -0.517999,-0.90006 -0.928738,0 -1.02408,-0.73898 -1.02408,-7.9375 0,-8.86509 -0.742074,-7.9375 6.349994,-7.9375 6.28098,0 6.35,0.0214 6.35,1.9725 0,1.14095 0,1.14095 2.57969,1.25123 5.52003,0.23596 10.81552,12.63342 5.40506,12.65396 -0.57253,0.002 -0.79211,0.20135 -1.14278,1.03657 -1.08906,2.59389 -5.18654,2.59389 -6.2756,0 -0.43407,-1.03388 -0.43407,-1.03388 -2.68303,-1.03388 -2.24896,0 -2.24896,0 -2.68304,1.03388 -0.66642,1.58727 -2.538923,2.35619 -4.264781,1.75127 z m 2.298711,-2.14797 c 0.53473,-0.53473 0.53473,-1.80872 0,-2.34345 -0.991524,-0.99153 -2.759224,-0.24086 -2.759224,1.17172 0,0.96421 0.623289,1.5875 1.5875,1.5875 0.415774,0 0.943044,-0.18709 1.171724,-0.41577 z m 11.64167,0 c 0.99152,-0.99153 0.24086,-2.75923 -1.17173,-2.75923 -1.41258,0 -2.16325,1.7677 -1.17173,2.75923 0.22868,0.22868 0.75596,0.41577 1.17173,0.41577 0.41577,0 0.94305,-0.18709 1.17173,-0.41577 z m -3.8423,-3.52649 c 1.44131,-1.54293 3.89983,-1.54293 5.34114,0 1.00145,1.07205 1.0336,1.02875 1.0336,-1.3923 0,-1.84957 -0.10008,-2.33382 -0.6972,-3.37344 -2.98781,-5.20198 -6.71114,-4.48092 -6.71114,1.29967 0,4.6112 -0.009,4.58189 1.0336,3.46607 z"
         style="stroke-width:0.26458332" />
   </g>
</svg>