<?xml version="1.0" encoding="UTF-8" standalone="no"?>
<svg xmlns="http://www.w3.org/2000/svg" id="svg8" version="1.1" viewBox="0 0 25.4 25.4" height="25.4mm" width="25.4mm">
   <defs id="defs2" />
   <metadata id="metadata5">

   </metadata>
   <g transform="translate(-93.133331,-136.13333)" id="layer1">
      <path id="path97"
         d="m 106.31648,158.00699 c 0,-1.15543 -0.14364,-1.94833 -0.43295,-2.38987 -1.05395,-1.60853 -0.24563,-3.92685 1.5827,-4.5393 2.69197,-0.90177 5.07019,2.16813 3.51654,4.5393 -0.28931,0.44154 -0.43296,1.23444 -0.43296,2.38987 0,1.94111 0.003,1.93787 -1.22554,1.17835 -0.89112,-0.55074 -0.89112,-0.55074 -1.78225,0 -1.22891,0.75952 -1.22554,0.76276 -1.22554,-1.17835 z m 3.04271,-4.09173 c 0,-1.18663 -1.77477,-1.47172 -1.93915,-0.31149 -0.14983,1.05751 0.13862,1.41105 1.07743,1.32057 0.79261,-0.0764 0.86172,-0.15731 0.86172,-1.00908 z m -11.509374,-3.70417 c 0,-6.87917 0,-6.87917 -1.09508,-6.87917 -2.09149,0 -1.03119,-4.21177 1.25264,-4.97581 1.90517,-0.63735 15.480864,-0.33124 16.426244,0.37039 1.90054,1.4105 2.22665,18.36376 0.35324,18.36376 -1.05461,0 -1.05461,0 -1.12447,-8.40052 -0.0699,-8.40053 -0.0699,-8.40053 -0.99591,-8.40053 -0.92604,0 -0.92604,0 -1.00539,1.52136 -0.0794,1.52135 -0.0794,1.52135 -5.88698,1.52135 -5.807624,0 -5.807624,0 -5.807624,5.82084 0,5.82083 0,5.82083 1.587494,5.82083 1.5875,0 1.5875,0 1.5875,1.05833 0,1.05834 0,1.05834 -2.64583,1.05834 -2.645834,0 -2.645834,0 -2.645834,-6.87917 z m 4.233334,1.5875 c 0,-1.05833 0,-1.05833 1.05833,-1.05833 1.05833,0 1.05833,0 1.05833,1.05833 0,1.05833 0,1.05833 -1.05833,1.05833 -1.05833,0 -1.05833,0 -1.05833,-1.05833 z m 0,-4.23333 c 0,-1.05834 0,-1.05834 4.7625,-1.05834 4.7625,0 4.7625,0 4.7625,1.05834 0,1.05833 0,1.05833 -4.7625,1.05833 -4.7625,0 -4.7625,0 -4.7625,-1.05833 z"
         style="stroke-width:0.26458332" />
   </g>
</svg>