<svg width="534" height="343" viewBox="0 0 534 343" fill="none" xmlns="http://www.w3.org/2000/svg">
<g clip-path="url(#clip0)">
<path d="M84.6216 343C122.01 343 152.319 338.134 152.319 332.131C152.319 326.128 122.01 321.262 84.6216 321.262C47.2334 321.262 16.9243 326.128 16.9243 332.131C16.9243 338.134 47.2334 343 84.6216 343Z" fill="#F2F2F2"/>
<path d="M89.9263 336.681C127.314 336.681 157.624 331.815 157.624 325.812C157.624 319.809 127.314 314.943 89.9263 314.943C52.5381 314.943 22.229 319.809 22.229 325.812C22.229 331.815 52.5381 336.681 89.9263 336.681Z" stroke="#00003D" stroke-miterlimit="10"/>
<path d="M233.232 13.902H52.713C46.3402 13.902 41.1741 19.0715 41.1741 25.4483V123.682C41.1741 130.059 46.3402 135.228 52.713 135.228H233.232C239.605 135.228 244.771 130.059 244.771 123.682V25.4483C244.771 19.0715 239.605 13.902 233.232 13.902Z" fill="#0101CB"/>
<path d="M500.485 110.963H319.966C313.593 110.963 308.427 116.133 308.427 122.51V220.743C308.427 227.12 313.593 232.29 319.966 232.29H500.485C506.858 232.29 512.024 227.12 512.024 220.743V122.51C512.024 116.133 506.858 110.963 500.485 110.963Z" fill="#F2F2F2"/>
<path d="M217.571 0.252763H37.0516C30.6789 0.252763 25.5127 5.42224 25.5127 11.7991V110.033C25.5127 116.41 30.6789 121.579 37.0516 121.579H217.571C223.944 121.579 229.11 116.41 229.11 110.033V11.7991C229.11 5.42224 223.944 0.252763 217.571 0.252763Z" stroke="#00003D" stroke-miterlimit="10"/>
<path d="M484.823 97.3139H304.304C297.932 97.3139 292.765 102.483 292.765 108.86V207.094C292.765 213.471 297.932 218.64 304.304 218.64H484.823C491.196 218.64 496.362 213.471 496.362 207.094V108.86C496.362 102.483 491.196 97.3139 484.823 97.3139Z" stroke="#00003D" stroke-miterlimit="10"/>
<path d="M484.935 36.1236C482.781 36.2453 480.704 36.9649 478.937 38.2017C477.169 39.4385 475.78 41.1435 474.927 43.1257C472.424 49.1788 475.646 56.289 480.484 60.703C485.321 65.117 491.534 67.6399 497.18 70.9563C504.763 75.4106 511.576 81.594 515.37 89.5313C519.165 97.4686 519.568 107.301 515.108 114.883C510.969 121.922 503.442 126.134 496.263 130.019" stroke="#00003D" stroke-miterlimit="10"/>
<path d="M491.31 40.9477C496.193 40.9477 500.151 39.0239 500.151 36.6507C500.151 34.2775 496.193 32.3537 491.31 32.3537C486.428 32.3537 482.469 34.2775 482.469 36.6507C482.469 39.0239 486.428 40.9477 491.31 40.9477Z" fill="#0101CB"/>
<path d="M498.383 69.2572C503.266 69.2572 507.224 67.3334 507.224 64.9602C507.224 62.5871 503.266 60.6632 498.383 60.6632C493.5 60.6632 489.542 62.5871 489.542 64.9602C489.542 67.3334 493.5 69.2572 498.383 69.2572Z" fill="#0101CB"/>
<path d="M482.217 73.8069C487.099 73.8069 491.058 71.8831 491.058 69.5099C491.058 67.1368 487.099 65.213 482.217 65.213C477.334 65.213 473.375 67.1368 473.375 69.5099C473.375 71.8831 477.334 73.8069 482.217 73.8069Z" fill="#0101CB"/>
<path d="M507.477 97.5667C512.36 97.5667 516.318 95.6429 516.318 93.2697C516.318 90.8966 512.36 88.9727 507.477 88.9727C502.594 88.9727 498.636 90.8966 498.636 93.2697C498.636 95.6429 502.594 97.5667 507.477 97.5667Z" fill="#0101CB"/>
<path d="M525.159 97.5667C530.042 97.5667 534 95.6429 534 93.2697C534 90.8966 530.042 88.9727 525.159 88.9727C520.276 88.9727 516.318 90.8966 516.318 93.2697C516.318 95.6429 520.276 97.5667 525.159 97.5667Z" fill="#0101CB"/>
<path d="M11.5594 230.246C9.40583 230.368 7.32876 231.087 5.56104 232.324C3.79333 233.561 2.40485 235.266 1.5513 237.248C-0.951226 243.301 2.27096 250.411 7.10803 254.825C11.9451 259.239 18.1586 261.762 23.8041 265.079C31.387 269.533 38.2008 275.716 41.995 283.654C45.7891 291.591 46.1926 301.423 41.7328 309.006C37.5933 316.044 30.0664 320.256 22.8876 324.141" stroke="#00003D" stroke-miterlimit="10"/>
<path d="M17.9348 235.07C22.8176 235.07 26.7759 233.146 26.7759 230.773C26.7759 228.4 22.8176 226.476 17.9348 226.476C13.052 226.476 9.09375 228.4 9.09375 230.773C9.09375 233.146 13.052 235.07 17.9348 235.07Z" fill="#0101CB"/>
<path d="M25.0076 263.38C29.8903 263.38 33.8486 261.456 33.8486 259.083C33.8486 256.709 29.8903 254.786 25.0076 254.786C20.1248 254.786 16.1665 256.709 16.1665 259.083C16.1665 261.456 20.1248 263.38 25.0076 263.38Z" fill="#0101CB"/>
<path d="M8.84106 267.929C13.7238 267.929 17.6821 266.005 17.6821 263.632C17.6821 261.259 13.7238 259.335 8.84106 259.335C3.95828 259.335 0 261.259 0 263.632C0 266.005 3.95828 267.929 8.84106 267.929Z" fill="#0101CB"/>
<path d="M34.1013 291.689C38.9841 291.689 42.9424 289.765 42.9424 287.392C42.9424 285.019 38.9841 283.095 34.1013 283.095C29.2185 283.095 25.2603 285.019 25.2603 287.392C25.2603 289.765 29.2185 291.689 34.1013 291.689Z" fill="#0101CB"/>
<path d="M51.7834 291.689C56.6662 291.689 60.6245 289.765 60.6245 287.392C60.6245 285.019 56.6662 283.095 51.7834 283.095C46.9007 283.095 42.9424 285.019 42.9424 287.392C42.9424 289.765 46.9007 291.689 51.7834 291.689Z" fill="#0101CB"/>
<path d="M129.332 137.251C129.332 137.251 130.342 144.833 127.816 147.867C125.29 150.9 121.249 171.121 121.249 171.121V183.254C121.249 183.254 136.91 160.505 139.941 151.405C142.973 142.306 139.941 135.228 139.941 135.228L129.332 137.251Z" fill="#FFC1C7"/>
<path d="M127.817 99.8416L128.03 100.082C130.639 103.018 132.686 106.408 134.07 110.085C137.387 118.897 144.516 140.621 141.962 142.811C138.426 145.845 128.322 147.867 127.817 147.361C127.311 146.856 117.207 115.513 117.207 115.513L127.817 99.8416Z" fill="#00003D"/>
<path d="M111.397 314.69C111.397 314.69 123.522 317.218 124.027 314.69C124.35 313.119 124.859 311.592 125.543 310.141C125.543 310.141 136.533 310.599 133.663 320.24C133.376 321.19 132.748 322 131.9 322.515C129.282 324.118 123.117 327.898 119.986 329.856C117.632 331.328 114.25 330.228 111.836 329.053C110.97 328.629 110.27 327.93 109.844 327.065C109.418 326.2 109.291 325.218 109.482 324.273L111.397 314.69Z" fill="#00003D"/>
<path d="M76.5384 316.207C76.5384 316.207 64.4135 318.735 63.9083 316.207C63.5852 314.636 63.0764 313.108 62.3927 311.657C62.3927 311.657 51.4242 312.115 54.264 321.728C54.5559 322.697 55.1957 323.523 56.0601 324.047C58.6909 325.658 64.8278 329.42 67.9499 331.373C70.5276 332.985 74.3384 331.513 76.7608 330.234C77.4337 329.883 77.9749 329.323 78.3033 328.638C78.6317 327.953 78.7297 327.18 78.5827 326.435L76.5384 316.207Z" fill="#00003D"/>
<path d="M61.3823 143.822C61.3823 143.822 60.3719 151.405 62.8979 154.438C65.4239 157.472 69.4655 169.099 69.4655 169.099V181.231C69.4655 181.231 53.8042 167.077 50.773 157.977C47.7418 148.878 50.773 141.8 50.773 141.8L61.3823 143.822Z" fill="#FFC1C7"/>
<path d="M96.7465 81.6426C103.722 81.6426 109.377 75.9843 109.377 69.0044C109.377 62.0246 103.722 56.3662 96.7465 56.3662C89.7711 56.3662 84.1165 62.0246 84.1165 69.0044C84.1165 75.9843 89.7711 81.6426 96.7465 81.6426Z" fill="#FFC1C7"/>
<path d="M106.851 74.0597C106.851 74.0597 103.314 90.2366 106.851 92.2587C110.387 94.2808 85.6321 92.2587 85.6321 92.2587C85.6321 92.2587 91.1893 78.6094 88.6633 74.0597C86.1373 69.5099 106.851 74.0597 106.851 74.0597Z" fill="#FFC1C7"/>
<path d="M118.975 181.737C118.975 181.737 123.522 188.309 122.007 208.53C120.491 228.751 118.975 249.983 118.975 249.983C118.975 249.983 130.09 313.679 126.553 315.196C123.017 316.713 111.397 318.229 109.882 316.713C108.366 315.196 101.293 256.049 101.293 256.049L94.7257 207.519L84.6216 263.127C84.6216 263.127 79.0644 317.218 75.0227 319.746C72.1335 321.553 66.4043 320.26 63.372 319.375C62.8034 319.212 62.3061 318.862 61.9603 318.381C61.6144 317.901 61.44 317.318 61.465 316.727C61.8354 308.22 63.4983 274.65 67.4447 254.027C71.9915 230.268 62.8979 182.748 70.9811 181.737C79.0644 180.726 118.975 181.737 118.975 181.737Z" fill="#2F2E41"/>
<path d="M83.6111 90.2366C83.6111 90.2366 85.6319 81.1371 93.2099 82.1481C100.788 83.1592 105.84 82.6536 107.356 87.7089C108.871 92.7642 125.038 96.8084 125.038 96.8084C125.038 96.8084 129.079 97.3139 128.574 103.886C128.069 110.458 117.965 134.723 117.965 134.723C117.965 134.723 118.47 154.944 120.996 164.043C123.522 173.143 123.522 184.265 117.965 186.792C112.408 189.32 77.5486 198.419 69.4654 187.298C69.4654 187.298 64.9186 171.121 67.9498 164.549C70.981 157.977 67.4446 132.195 67.4446 132.195L57.8457 110.963C57.8457 110.963 60.8769 100.853 69.4654 97.8195C74.5481 96.0481 79.3214 93.4893 83.6111 90.2366V90.2366Z" fill="#00003D"/>
<path d="M61.8874 106.413L57.8458 110.963C57.8458 110.963 45.7209 140.789 49.2573 143.822C52.7938 146.856 62.8978 148.878 63.403 148.372C63.9082 147.867 72.4967 122.085 72.4967 122.085L61.8874 106.413Z" fill="#00003D"/>
<path d="M111.397 61.4215C111.397 61.4215 109.377 62.9381 108.871 66.4768C108.366 70.0155 105.264 64.4605 104.542 71.7877C103.819 79.115 91.6945 84.1702 87.1476 80.6315C82.6008 77.0928 75.0227 54.8497 85.632 51.311C96.2413 47.7723 106.851 48.2778 108.871 51.8165C110.892 55.3552 111.397 61.4215 111.397 61.4215Z" fill="#2F2E41"/>
<path opacity="0.1" d="M101.51 71.7877C102.233 64.4605 105.335 70.0155 105.84 66.4768C106.345 62.9381 108.366 61.4215 108.366 61.4215C108.366 61.4215 107.861 55.3552 105.84 51.8165C104.873 50.1234 101.937 49.1268 97.979 48.9332C103.44 48.6828 107.671 49.7145 108.871 51.8165C110.892 55.3552 111.397 61.4215 111.397 61.4215C111.397 61.4215 109.377 62.9381 108.871 66.4768C108.366 70.0155 105.264 64.4605 104.542 71.7877C103.929 77.9996 95.123 82.5761 89.6853 81.6699C94.8675 80.9578 101.003 76.9361 101.51 71.7877Z" fill="#00003D"/>
</g>
<defs>
<clipPath id="clip0">
<rect width="534" height="343" fill="white"/>
</clipPath>
</defs>
</svg>
