<svg width="977" height="220" viewBox="0 0 977 220" fill="none" xmlns="http://www.w3.org/2000/svg">
<path d="M869.96 212.92C925.166 212.92 969.92 168.166 969.92 112.96C969.92 57.7536 925.166 13 869.96 13C814.754 13 770 57.7536 770 112.96C770 168.166 814.754 212.92 869.96 212.92Z" fill="white"/>
<path d="M909.96 135.74C906.48 132.26 898.11 127.01 893.96 125.05C889.17 122.75 887.41 122.79 884.02 125.24C881.2 127.24 879.37 129.17 876.13 128.46C872.89 127.75 866.47 122.91 860.26 116.72C854.05 110.53 849.23 104.15 848.54 100.86C847.85 97.5701 849.75 95.7801 851.77 92.9601C854.21 89.5701 854.28 87.8101 851.96 83.0201C849.96 78.8701 844.77 70.5201 841.26 67.0201C837.75 63.5201 836.99 64.2901 835.07 65.0201C833.094 65.8484 831.196 66.8524 829.4 68.0201C825.92 70.3501 823.97 72.2901 822.6 75.2101C821.23 78.1301 819.68 83.5501 827.65 97.7401C833.529 108.595 840.976 118.525 849.75 127.21V127.21C858.464 136.004 868.428 143.464 879.32 149.35C893.5 157.35 898.93 155.76 901.85 154.4C904.77 153.04 906.71 151.11 909.03 147.6C910.2 145.805 911.204 143.907 912.03 141.93C912.69 140.01 913.47 139.23 909.96 135.74Z" fill="#143D42"/>
<path d="M492.36 212.92C547.566 212.92 592.32 168.166 592.32 112.96C592.32 57.7536 547.566 13 492.36 13C437.154 13 392.4 57.7536 392.4 112.96C392.4 168.166 437.154 212.92 492.36 212.92Z" fill="white"/>
<path d="M546.16 79.76L516.23 110.21C516.178 110.26 516.136 110.321 516.107 110.388C516.079 110.455 516.064 110.527 516.064 110.6C516.064 110.673 516.079 110.745 516.107 110.812C516.136 110.879 516.178 110.94 516.23 110.99L537.23 133.32C537.733 133.826 538.074 134.469 538.212 135.169C538.35 135.869 538.279 136.594 538.006 137.253C537.734 137.912 537.273 138.476 536.681 138.874C536.09 139.272 535.393 139.486 534.68 139.49C533.721 139.488 532.8 139.107 532.12 138.43L511.23 116.18C511.124 116.075 510.98 116.016 510.83 116.016C510.681 116.016 510.537 116.075 510.43 116.18L505.34 121.32C503.256 123.451 500.767 125.144 498.02 126.3C495.272 127.456 492.321 128.051 489.34 128.05C486.303 128.036 483.299 127.417 480.504 126.229C477.708 125.04 475.178 123.307 473.06 121.13L468.17 116.13C468.064 116.025 467.92 115.966 467.77 115.966C467.621 115.966 467.477 116.025 467.37 116.13L446.53 138.33C446.195 138.666 445.797 138.932 445.358 139.114C444.92 139.296 444.45 139.39 443.975 139.39C443.501 139.39 443.031 139.296 442.592 139.114C442.154 138.932 441.756 138.666 441.42 138.33C441.083 137.995 440.816 137.597 440.633 137.159C440.45 136.72 440.356 136.25 440.356 135.775C440.356 135.3 440.45 134.83 440.633 134.391C440.816 133.953 441.083 133.555 441.42 133.22L462.34 110.94C462.433 110.831 462.484 110.693 462.484 110.55C462.484 110.407 462.433 110.269 462.34 110.16L432.41 79.71C432.333 79.6327 432.235 79.58 432.128 79.5586C432.021 79.5371 431.91 79.548 431.809 79.5898C431.709 79.6316 431.623 79.7024 431.562 79.7933C431.502 79.8841 431.47 79.991 431.47 80.1001V141.03C431.478 143.385 432.417 145.642 434.083 147.307C435.748 148.973 438.005 149.912 440.36 149.92H538.23C540.586 149.912 542.842 148.973 544.508 147.307C546.173 145.642 547.112 143.385 547.12 141.03V80.15C547.125 80.0366 547.095 79.9245 547.034 79.8289C546.972 79.7334 546.883 79.6592 546.778 79.6165C546.673 79.5738 546.557 79.5647 546.446 79.5904C546.336 79.6161 546.236 79.6753 546.16 79.76V79.76Z" fill="#143D42"/>
<path d="M489.31 120.82C491.339 120.84 493.351 120.452 495.227 119.679C497.103 118.906 498.804 117.763 500.23 116.32L543.82 71.95C542.273 70.6682 540.329 69.9615 538.32 69.95H440.38C438.37 69.9565 436.425 70.6638 434.88 71.95L478.48 116.32C479.893 117.755 481.579 118.893 483.44 119.666C485.3 120.439 487.296 120.831 489.31 120.82V120.82Z" fill="#143D42"/>
<path d="M113.96 212.92C169.166 212.92 213.92 168.166 213.92 112.96C213.92 57.7536 169.166 13 113.96 13C58.7536 13 14 57.7536 14 112.96C14 168.166 58.7536 212.92 113.96 212.92Z" fill="white"/>
<path d="M110.05 62.16L70.2 154.1L73.92 157.82L110.06 141.88L146.2 157.82L149.92 154.1L110.05 62.16Z" fill="#143D42"/>
<circle cx="108" cy="107" r="99" stroke="black" stroke-width="2"/>
<path d="M585 107.5C585 162.452 540.452 207 485.5 207C430.548 207 386 162.452 386 107.5C386 52.5477 430.548 8 485.5 8C540.452 8 585 52.5477 585 107.5Z" stroke="black" stroke-width="2"/>
<path d="M963 107.5C963 162.452 918.452 207 863.5 207C808.548 207 764 162.452 764 107.5C764 52.5477 808.548 8 863.5 8C918.452 8 963 52.5477 963 107.5Z" stroke="black" stroke-width="2"/>
</svg>
