<svg width="1205" height="962" viewBox="0 0 1205 962" fill="none" xmlns="http://www.w3.org/2000/svg">
    <g id="examination">
        <path id="Vector"
            d="M897.917 962C1051.95 962 1176.82 951.577 1176.82 938.72C1176.82 925.863 1051.95 915.44 897.917 915.44C743.882 915.44 619.012 925.863 619.012 938.72C619.012 951.577 743.882 962 897.917 962Z"
            fill="#3F3D56" />
        <path id="Vector_2"
            d="M297.076 599.236C308.622 599.236 317.981 589.91 317.981 578.406C317.981 566.902 308.622 557.576 297.076 557.576C285.531 557.576 276.171 566.902 276.171 578.406C276.171 589.91 285.531 599.236 297.076 599.236Z"
            fill="#143d42" />
        <path id="Vector_3" d="M123.146 863.792H74.4719V912.292H123.146V863.792Z" fill="#143d42" />
        <path id="Vector_4" d="M132.881 854.092H84.2068V902.592H132.881V854.092Z" stroke="#3F3D56" stroke-width="2"
            stroke-miterlimit="10" />
        <g id="brain">
            <path id="Vector_5"
                d="M246.039 173.809L189.721 79.8138C196.478 71.2669 199.884 60.5628 199.303 49.6981C198.722 38.8334 194.195 28.5503 186.565 20.7669C178.936 12.9834 168.725 8.23133 157.838 7.39701C146.951 6.56269 136.131 9.70313 127.397 16.2325C118.663 22.7619 112.611 32.2343 110.369 42.8827C108.128 53.5311 109.851 64.6283 115.217 74.1041C120.582 83.5799 129.224 90.7873 139.53 94.3817C149.836 97.9761 161.103 97.7121 171.228 93.6389L246.039 173.809Z"
                fill="#3F3D56" />
            <path id="Vector_6"
                d="M154.38 72.8634C165.925 72.8634 175.285 63.5375 175.285 52.0334C175.285 40.5294 165.925 31.2035 154.38 31.2035C142.834 31.2035 133.475 40.5294 133.475 52.0334C133.475 63.5375 142.834 72.8634 154.38 72.8634Z"
                fill="#143d42" />
            <path id="Vector_7"
                d="M426.67 162.954L504.576 85.7649C514.533 90.2298 525.781 90.9329 536.22 87.7431C546.659 84.5532 555.578 77.6883 561.311 68.4289C567.045 59.1695 569.202 48.148 567.381 37.4204C565.559 26.6928 559.884 16.9916 551.413 10.1267C542.941 3.26178 532.253 -0.298126 521.342 0.111081C510.431 0.520288 500.041 4.87065 492.112 12.3506C484.183 19.8306 479.255 29.9294 478.248 40.7631C477.241 51.5968 480.224 62.4256 486.639 71.2293L426.67 162.954Z"
                fill="#3F3D56" />
            <path id="Vector_8"
                d="M523.078 65.7052C534.623 65.7052 543.983 56.3793 543.983 44.8752C543.983 33.3711 534.623 24.0452 523.078 24.0452C511.533 24.0452 502.173 33.3711 502.173 44.8752C502.173 56.3793 511.533 65.7052 523.078 65.7052Z"
                fill="#143d42" />
            <path id="Vector_9"
                d="M480.939 334.967L574.951 391.615C573.012 402.322 575.049 413.366 580.68 422.687C586.312 432.009 595.155 438.97 605.558 442.274C615.962 445.577 627.216 444.996 637.222 440.64C647.228 436.284 655.301 428.45 659.937 418.599C664.572 408.748 665.453 397.553 662.415 387.103C659.377 376.652 652.627 367.66 643.425 361.803C634.223 355.947 623.197 353.625 612.404 355.273C601.61 356.92 591.787 362.424 584.766 370.757L480.939 334.967Z"
                fill="#3F3D56" />
            <path id="Vector_10"
                d="M619.245 420.441C630.79 420.441 640.15 411.115 640.15 399.611C640.15 388.107 630.79 378.781 619.245 378.781C607.699 378.781 598.34 388.107 598.34 399.611C598.34 411.115 607.699 420.441 619.245 420.441Z"
                fill="#143d42" />
            <path id="Vector_11"
                d="M326.566 429.049L294.147 533.647C283.252 534.363 272.99 539.003 265.275 546.703C257.561 554.403 252.921 564.636 252.221 575.494C251.521 586.352 254.809 597.092 261.472 605.712C268.134 614.332 277.716 620.243 288.43 622.341C299.144 624.44 310.259 622.583 319.7 617.118C329.141 611.652 336.265 602.951 339.742 592.637C343.219 582.323 342.812 571.102 338.596 561.065C334.381 551.028 326.646 542.862 316.833 538.091L326.566 429.049Z"
                fill="#3F3D56" />
            <path id="Vector_12"
                d="M296.905 600.66C308.45 600.66 317.809 591.334 317.809 579.83C317.809 568.326 308.45 559 296.905 559C285.359 559 276 568.326 276 579.83C276 591.334 285.359 600.66 296.905 600.66Z"
                fill="#143d42" />
            <path id="Vector_13"
                d="M197.604 302.557L87.9064 296.519C84.5736 286.158 77.5721 277.359 68.2078 271.763C58.8436 266.167 47.7562 264.157 37.0139 266.107C26.2716 268.057 16.6081 273.835 9.82606 282.362C3.04399 290.888 -0.393468 301.582 0.154918 312.449C0.703303 323.315 5.20009 333.612 12.8064 341.418C20.4127 349.223 30.6091 354.006 41.4935 354.872C52.378 355.739 63.207 352.63 71.9607 346.127C80.7143 339.623 86.7947 330.168 89.0676 319.527L197.604 302.557Z"
                fill="#3F3D56" />
            <path id="Vector_14"
                d="M45.0302 331.009C56.5755 331.009 65.9349 321.683 65.9349 310.179C65.9349 298.675 56.5755 289.349 45.0302 289.349C33.4848 289.349 24.1254 298.675 24.1254 310.179C24.1254 321.683 33.4848 331.009 45.0302 331.009Z"
                fill="#143d42" />
            <path id="brain_2" fill-rule="evenodd" clip-rule="evenodd"
                d="M308.592 218.252C304.576 218.252 301.32 221.508 301.32 225.524V255.381C301.32 256.485 300.425 257.381 299.32 257.381C298.216 257.381 297.32 256.485 297.32 255.381V237.66C297.32 233.745 294.146 230.57 290.23 230.57C286.314 230.57 283.14 233.745 283.14 237.66V291.593C283.14 295.509 286.314 298.683 290.23 298.683C294.146 298.683 297.32 295.509 297.32 291.593V273.873C297.32 272.768 298.216 271.873 299.32 271.873C300.425 271.873 301.32 272.768 301.32 273.873V324.381C301.32 328.397 304.576 331.653 308.592 331.653C312.608 331.653 315.864 328.397 315.864 324.381V225.524C315.864 221.508 312.608 218.252 308.592 218.252ZM272.05 241.801C268.134 241.801 264.96 244.976 264.96 248.892V300.669C264.96 301.773 264.064 302.668 262.96 302.668C261.855 302.668 260.96 301.773 260.96 300.669V271.717C260.96 267.801 257.785 264.627 253.87 264.627C249.954 264.627 246.779 267.801 246.779 271.717V348.112C246.779 352.028 249.954 355.203 253.87 355.203C257.785 355.203 260.96 352.028 260.96 348.112V319.161C260.96 318.056 261.855 317.161 262.96 317.161C264.064 317.161 264.96 318.056 264.96 319.161V370.575C264.96 374.491 268.134 377.665 272.05 377.665C275.966 377.665 279.14 374.491 279.14 370.575V248.892C279.14 244.976 275.966 241.801 272.05 241.801ZM290.23 309.19C286.314 309.19 283.14 312.364 283.14 316.28V381.444C283.14 385.36 286.314 388.534 290.23 388.534C294.146 388.534 297.32 385.36 297.32 381.444V316.28C297.32 312.364 294.146 309.19 290.23 309.19ZM301.32 351.605C301.32 347.589 304.576 344.333 308.592 344.333C312.608 344.333 315.864 347.589 315.864 351.605V392.856C315.864 396.872 312.608 400.128 308.592 400.128C304.576 400.128 301.32 396.872 301.32 392.856V351.605ZM370.768 318.436C370.768 317.331 371.664 316.436 372.768 316.436C373.872 316.436 374.768 317.331 374.768 318.436V348.112C374.768 352.028 377.942 355.203 381.858 355.203C385.774 355.203 388.948 352.028 388.948 348.112V271.717C388.948 267.801 385.774 264.627 381.858 264.627C377.942 264.627 374.768 267.801 374.768 271.717V299.944C374.768 301.049 373.872 301.944 372.768 301.944C371.664 301.944 370.768 301.049 370.768 299.944L370.768 248.892C370.768 244.976 367.594 241.801 363.678 241.801C359.762 241.801 356.588 244.976 356.588 248.892L356.588 370.937C356.588 374.853 359.762 378.028 363.678 378.028C367.594 378.028 370.768 374.853 370.768 370.937L370.768 318.436ZM334.408 345.957C334.408 347.061 335.303 347.956 336.408 347.956C337.512 347.956 338.407 347.061 338.407 345.957V327.874C338.407 323.958 341.582 320.784 345.498 320.784C349.414 320.784 352.588 323.958 352.588 327.874L352.588 381.807C352.588 385.722 349.414 388.897 345.498 388.897C341.582 388.897 338.407 385.722 338.407 381.807V364.448C338.407 363.344 337.512 362.449 336.408 362.449C335.303 362.449 334.408 363.344 334.408 364.448V392.856C334.408 396.872 331.152 400.128 327.136 400.128C323.119 400.128 319.864 396.872 319.864 392.856L319.864 293.999C319.864 289.983 323.119 286.727 327.136 286.727C331.152 286.727 334.408 289.983 334.408 293.999L334.408 345.957ZM345.498 309.19C349.414 309.19 352.588 306.016 352.588 302.1L352.588 237.66C352.588 233.744 349.414 230.57 345.498 230.57C341.582 230.57 338.407 233.744 338.407 237.66V302.1C338.407 306.016 341.582 309.19 345.498 309.19ZM334.408 267.499C334.408 271.515 331.152 274.771 327.136 274.771C323.119 274.771 319.864 271.515 319.864 267.499V226.248C319.864 222.232 323.119 218.976 327.136 218.976C331.152 218.976 334.408 222.232 334.408 226.248V267.499Z"
                fill="#F2F2F2" />
            <path id="brain_3" fill-rule="evenodd" clip-rule="evenodd"
                d="M331.956 192.062C327.939 192.062 324.684 195.317 324.684 199.334V229.191C324.684 230.295 323.788 231.19 322.684 231.19C321.579 231.19 320.684 230.295 320.684 229.191V211.47C320.684 207.554 317.51 204.38 313.594 204.38C309.678 204.38 306.503 207.554 306.503 211.47V265.403C306.503 269.319 309.678 272.493 313.594 272.493C317.51 272.493 320.684 269.319 320.684 265.403V247.682C320.684 246.578 321.579 245.682 322.684 245.682C323.788 245.682 324.684 246.578 324.684 247.682V298.191C324.684 302.207 327.939 305.463 331.956 305.463C335.972 305.463 339.228 302.207 339.228 298.191V199.334C339.228 195.317 335.972 192.062 331.956 192.062ZM295.413 215.611C291.498 215.611 288.323 218.786 288.323 222.702V274.478C288.323 275.583 287.428 276.478 286.323 276.478C285.219 276.478 284.324 275.583 284.324 274.478V245.527C284.324 241.611 281.149 238.436 277.233 238.436C273.317 238.436 270.143 241.611 270.143 245.527V321.922C270.143 325.838 273.317 329.012 277.233 329.012C281.149 329.012 284.324 325.838 284.324 321.922V292.97C284.324 291.866 285.219 290.97 286.323 290.97C287.428 290.97 288.323 291.866 288.323 292.97V344.385C288.323 348.301 291.498 351.475 295.413 351.475C299.329 351.475 302.504 348.301 302.504 344.385V222.702C302.504 218.786 299.329 215.611 295.413 215.611ZM313.594 283C309.678 283 306.503 286.174 306.503 290.09V355.254C306.503 359.17 309.678 362.344 313.594 362.344C317.51 362.344 320.684 359.17 320.684 355.254V290.09C320.684 286.174 317.51 283 313.594 283ZM324.684 325.415C324.684 321.399 327.939 318.143 331.956 318.143C335.972 318.143 339.228 321.399 339.228 325.415V366.666C339.228 370.682 335.972 373.938 331.956 373.938C327.939 373.938 324.684 370.682 324.684 366.666V325.415ZM394.132 292.246C394.132 291.141 395.027 290.246 396.132 290.246C397.236 290.246 398.132 291.141 398.132 292.246V321.922C398.132 325.838 401.306 329.012 405.222 329.012C409.138 329.012 412.312 325.838 412.312 321.922V245.527C412.312 241.611 409.138 238.436 405.222 238.436C401.306 238.436 398.132 241.611 398.132 245.527V273.754C398.132 274.858 397.236 275.754 396.132 275.754C395.027 275.754 394.132 274.858 394.132 273.754L394.132 222.702C394.132 218.786 390.958 215.611 387.042 215.611C383.126 215.611 379.951 218.786 379.951 222.702L379.951 344.747C379.951 348.663 383.126 351.837 387.042 351.837C390.957 351.837 394.132 348.663 394.132 344.747L394.132 292.246ZM357.772 319.766C357.772 320.871 358.667 321.766 359.771 321.766C360.876 321.766 361.771 320.871 361.771 319.766V301.684C361.771 297.768 364.946 294.594 368.861 294.594C372.777 294.594 375.952 297.768 375.952 301.684L375.952 355.616C375.952 359.532 372.777 362.707 368.861 362.707C364.946 362.707 361.771 359.532 361.771 355.616V338.258C361.771 337.154 360.876 336.258 359.771 336.258C358.667 336.258 357.772 337.154 357.772 338.258V366.666C357.772 370.682 354.516 373.938 350.499 373.938C346.483 373.938 343.227 370.682 343.227 366.666L343.227 267.809C343.227 263.793 346.483 260.537 350.499 260.537C354.516 260.537 357.772 263.793 357.772 267.809L357.772 319.766ZM368.861 283C372.777 283 375.952 279.825 375.952 275.909L375.952 211.47C375.952 207.554 372.777 204.38 368.861 204.38C364.946 204.38 361.771 207.554 361.771 211.47V275.909C361.771 279.825 364.946 283 368.861 283ZM357.772 241.309C357.772 245.325 354.516 248.581 350.499 248.581C346.483 248.581 343.227 245.325 343.227 241.309V200.058C343.227 196.042 346.483 192.786 350.499 192.786C354.516 192.786 357.772 196.042 357.772 200.058V241.309Z"
                fill="#143d42" />
        </g>
        <g id="Group 1">
            <path id="Vector_15" opacity="0.1" d="M875.103 197.891H833.574V239.271H875.103V197.891Z" fill="#143d42" />
            <path id="Vector_16" opacity="0.1" d="M875.103 299.96H833.574V341.34H875.103V299.96Z" fill="#143d42" />
            <path id="Vector_17" opacity="0.1" d="M875.103 402.014H833.574V443.395H875.103V402.014Z" fill="#143d42" />
            <path id="Vector_18" opacity="0.1" d="M875.103 504.083H833.574V545.464H875.103V504.083Z" fill="#143d42" />
            <path id="Vector_19" opacity="0.1" d="M875.103 606.152H833.574V647.533H875.103V606.152Z" fill="#143d42" />
            <path id="Vector_20" opacity="0.1" d="M833.574 734.892V708.207H875.088V731.094L833.574 734.892Z" fill="" />
            <path id="#143d42Vector_21"
                d="M1022.32 363.835C1022.32 363.835 1016.57 363.034 1016.57 354.697C1016.57 346.36 1012.45 330.748 1012.45 330.748C1012.45 330.748 1008.89 303.583 1003.97 299.276C999.047 294.969 992.725 269.681 992.725 269.681C992.725 269.681 991.644 255.96 989.439 253.006C987.234 250.053 984.255 242.821 979.86 232.505C975.465 222.189 957.182 215.118 957.182 215.118C957.182 215.118 924.05 195.97 914.661 189.728C913.802 189.211 912.999 188.606 912.266 187.924C910.63 185.799 903.504 185.756 903.504 185.756C902.76 181.056 902.044 175.673 901.81 170.798C901.81 170.274 901.81 169.751 901.81 169.227C912.28 163.06 920.166 153.337 924.021 141.844C924.196 141.291 924.342 140.723 924.502 140.156C925.143 139.959 925.735 139.629 926.238 139.187C926.742 138.746 927.145 138.203 927.423 137.595C928.255 135.718 928.284 133.535 929.336 131.775C930.562 129.709 932.899 128.603 934.739 127.061C939.382 123.118 940.58 116.497 940.361 110.488C940.215 105.599 939.426 100.681 939.733 95.836C939.733 95.4286 939.733 95.0212 939.82 94.6138C939.908 93.9009 940.01 93.1589 940.142 92.4604C940.857 88.852 942.42 85.4473 943.296 81.868C944.172 78.2886 944.259 74.2582 942.215 71.1736C939.222 66.6485 932.986 65.7464 927.511 65.3536C921.305 64.8298 915.829 65.4991 911.784 60.3629C909.928 57.6803 907.837 55.1677 905.534 52.855C904.716 52.0984 896.773 47.2532 896.773 46.9477C889 43.3469 880.183 42.6698 871.949 45.0416C867.816 46.2347 863.947 48.1844 859.756 49.1593C850.761 51.2836 840.393 48.9847 832.741 54.1209C828.478 57.0309 825.922 61.6724 823.527 66.1684C821.58 69.8738 819.604 73.5841 817.599 77.2992C814.357 83.3957 811.086 89.594 809.728 96.3453C809.444 97.8199 809.264 99.3125 809.188 100.812C809.188 101.351 809.188 101.889 809.188 102.427C809.188 102.66 809.188 102.893 809.188 103.126C809.188 103.62 809.188 104.115 809.276 104.581C809.363 105.046 809.276 105.177 809.378 105.483C809.48 105.788 809.509 106.472 809.597 106.938C809.684 107.403 809.86 108.233 810.035 108.858C810.035 109.135 810.21 109.397 810.298 109.673C810.385 109.95 810.619 110.648 810.809 111.128C810.999 111.608 811.013 111.637 811.13 111.885C811.349 112.394 811.612 112.889 811.875 113.34C811.992 113.529 812.079 113.718 812.196 113.907C812.596 114.588 813.045 115.24 813.539 115.857C816.65 119.742 821.264 122.215 824.666 125.853C824.666 125.998 824.666 126.144 824.666 126.289C824.666 126.682 824.666 127.075 824.666 127.483C824.875 135.596 827.069 143.535 831.06 150.611C835.05 157.686 840.716 163.682 847.563 168.077C847.563 168.63 847.636 169.198 847.665 169.765C847.95 174.079 847.896 178.409 847.504 182.715C846.908 182.019 846.164 181.464 845.325 181.091C844.486 180.719 843.574 180.538 842.656 180.561C842.029 180.53 841.4 180.584 840.787 180.721L840.656 180.62V180.751C837.443 181.536 833.486 184.868 829.704 194.34C829.704 194.34 818.198 207.261 809.436 206.723C800.675 206.184 778.494 220.181 778.494 220.181C778.494 220.181 756.853 234.164 752.21 248.423C749.614 256.511 746.497 264.423 742.879 272.111L716.054 326.994L711.133 370.644C711.133 370.644 713.864 390.01 713.324 392.979C712.783 395.947 724.553 422.574 724.553 422.574C724.553 422.574 763.439 490.639 779.326 494.131L780.465 493.345C781.148 493.689 781.868 493.952 782.612 494.131L785.883 491.847C786.085 494.404 785.997 496.977 785.62 499.515C783.444 506.251 786.452 550.105 790.278 558.704C794.104 567.304 792.746 680.067 792.746 680.067L792.205 690.005C792.205 690.005 792.205 690.325 792.337 690.878L792.205 693.235L792.6 693.438C793.009 696.6 792.875 699.808 792.205 702.925C790.833 707.29 790.278 719.614 790.278 719.614C790.278 719.614 779.326 789.28 784.525 803.277C789.723 817.274 794.118 832.61 794.118 832.61C794.118 832.61 799.594 850.071 794.381 852.981C789.168 855.891 774.405 861.056 777.413 868.316C780.188 875.038 790.716 893.052 792.278 895.685L792.147 897.14L790 920.318C790.348 923.379 791.181 926.365 792.468 929.165C794.819 934.228 799.375 939.452 808.078 938.884C809.538 938.783 811.218 938.622 812.868 938.404C828.77 936.265 848.337 929.194 848.337 929.194C847.322 928.554 846.395 927.786 845.577 926.91C844.795 926.155 844.176 925.25 843.757 924.25C843.337 923.249 843.127 922.174 843.138 921.09C843.372 916.856 835.443 896.762 833.457 891.8L833.004 890.694C833.004 890.694 851.082 871.852 848.074 855.178C848.074 855.178 828.069 843.537 834.654 837.135C841.24 830.733 853.009 812.4 853.009 812.4C853.009 812.4 853.55 743.796 853.009 733.568C852.446 726.453 852.785 719.296 854.017 712.266C854.236 711.219 854.499 710.186 854.776 709.153C863.892 710.523 873.097 711.219 882.316 711.233C885.685 711.233 889.092 711.165 892.538 711.03C892.538 712 892.582 713.047 892.669 714.172C893.429 731.167 894.845 760.98 895.999 772.053C897.634 787.912 906.673 830.704 906.673 830.704C906.673 830.704 889.428 841.719 909.681 868.913C909.681 868.913 909.681 878.749 908.338 880.189C906.902 884.855 905.747 889.602 904.877 894.405C904.03 899.512 903.68 904.706 905.052 907.383C908.338 913.815 928.051 913.291 928.051 913.291C928.209 913.254 928.37 913.23 928.533 913.218C932.254 912.826 936.016 913.178 939.599 914.252C943.182 915.326 946.513 917.102 949.399 919.475C956.89 925.469 985.307 922.85 1000.71 920.93C1006.74 920.158 1010.77 919.475 1010.77 919.475C1010.97 918.794 1011.04 918.084 1010.98 917.379C1010.82 913.611 1007.85 905.346 987.76 897.97C987.76 897.97 968.864 885.311 969.127 874.282H968.704H966.528C967.901 874.238 968.864 874.238 968.864 874.238C968.864 874.238 961.461 847.335 964.484 845.138C967.506 842.941 958.453 813.128 958.453 813.128C958.453 813.128 953.269 763.075 952.977 759.583C952.996 756.574 953.459 753.583 954.35 750.708L952.977 723.252C952.977 723.252 952.714 714.129 952.977 711.161C952.948 708.584 952.743 706.012 952.364 703.464C952.232 702.445 952.101 701.383 951.955 700.335C959.037 698.546 963.637 696.901 963.637 696.901L962.819 601.38C968.835 589.74 969.945 564.19 969.916 546.089C969.916 534.449 969.39 525.836 969.39 525.836L977.611 512.464C977.611 512.464 979.509 496.459 976.501 492.952C975.173 491.366 975.771 489.722 976.866 488.369C977.443 487.899 978.053 487.471 978.692 487.089C978.62 486.987 978.556 486.88 978.502 486.769C979.076 486.291 979.686 485.858 980.327 485.474C980.327 485.474 977.407 480.963 980.021 479.057C982.474 480.716 984.664 482.04 986.329 482.986C986.212 484.048 986.095 484.659 986.095 484.659L986.796 483.204C988.402 484.106 989.381 484.659 989.381 484.659C989.381 484.659 1002.26 459.094 1001.98 455.34C1001.7 451.586 1010.74 435.698 1010.74 435.698C1010.74 435.698 1011.84 427.346 1016.77 423.854C1021.71 420.362 1020.6 395.059 1020.6 395.059C1020.6 395.059 1021.97 381.877 1025.26 376.508C1028.54 371.139 1022.32 363.835 1022.32 363.835ZM775.895 352.617L776.143 358.713C774.683 356.37 773.631 354.697 773.631 354.697L775.895 352.617Z"
                fill="url(#paint0_linear)" />
            <path id="Vector_22"
                d="M990.14 473.601L986.986 486.987C986.986 486.987 961.724 474.11 957.182 457.814C952.641 441.518 964.79 435.305 964.79 435.305L988.344 445.228L990.14 473.601Z"
                fill="white" />
            <path id="Vector_23" opacity="0.1"
                d="M990.14 473.601L986.986 486.987C986.986 486.987 961.724 474.11 957.182 457.814C952.641 441.518 964.79 435.305 964.79 435.305L988.344 445.228L990.14 473.601Z"
                fill="black" />
            <path id="Vector_24"
                d="M848.366 929.179C848.366 929.179 825.002 937.735 808.94 938.812C800.412 939.379 795.929 934.17 793.622 929.15C792.368 926.382 791.55 923.437 791.198 920.42L793.315 897.358L794.425 885.093L828.55 876.246L833.384 890.985L833.837 892.091C835.764 897.024 843.562 917.016 843.328 921.191C843.309 922.272 843.511 923.344 843.92 924.344C844.329 925.345 844.937 926.252 845.708 927.012C846.498 927.843 847.391 928.572 848.366 929.179Z"
                fill="white" />
            <path id="Vector_25"
                d="M1007.88 917.452C1007.94 918.157 1007.87 918.867 1007.68 919.547C1007.68 919.547 957.708 927.841 947.486 919.547C944.613 917.125 941.264 915.326 937.653 914.266C934.043 913.206 930.25 912.909 926.517 913.393C926.517 913.393 907.184 913.916 903.957 907.572C902.613 904.91 902.964 899.745 903.796 894.667C904.646 889.89 905.778 885.168 907.184 880.524L907.958 879.913L912.558 876.232L966.411 874.646H966.82C966.557 885.616 985.087 898.202 985.087 898.202C1004.82 905.477 1007.72 913.698 1007.88 917.452Z"
                fill="white" />
            <path id="Vector_26" opacity="0.1"
                d="M1007.9 917.452C1007.95 918.158 1007.87 918.867 1007.68 919.547C1007.68 919.547 957.708 927.841 947.501 919.547C944.626 917.123 941.274 915.323 937.661 914.263C934.048 913.203 930.252 912.907 926.517 913.393C926.517 913.393 907.169 913.916 903.942 907.573C902.613 904.91 902.949 899.745 903.782 894.652C911.229 895.394 922.984 897.242 927.598 901.665C934.578 908.358 946.406 915.051 953.649 915.59C959.373 915.939 993.411 917.016 1007.9 917.452Z"
                fill="black" />
            <path id="Vector_27" opacity="0.1"
                d="M848.366 929.179C848.366 929.179 825.002 937.735 808.94 938.812C800.412 939.379 795.929 934.17 793.622 929.15C799.58 931.144 807.83 933.224 812.167 931.318C817.307 929.034 835.53 927.579 845.752 926.953C846.523 927.805 847.401 928.553 848.366 929.179Z"
                fill="black" />
            <path id="Vector_28"
                d="M883.032 239.664C863.757 232.2 838.962 207.537 845.153 196.014C846.522 193.103 847.339 189.966 847.563 186.76C847.961 182.406 848.02 178.028 847.738 173.665C847.303 166.514 846.44 159.396 845.153 152.349C845.153 152.349 905.33 153.702 901.825 162.534C900.803 165.138 900.628 169.634 900.92 174.654C901.212 179.674 901.927 185.392 902.687 190.208C903.723 196.799 904.789 201.848 904.789 201.848C904.789 201.848 901.095 206.984 898.948 207.261C896.802 207.537 910.689 250.358 883.032 239.664Z"
                fill="#CF6F80" />
            <path id="Vector_29" opacity="0.1"
                d="M833.778 892.018L833.326 892.513C815.335 870.834 793.578 897.868 793.578 897.868L793.257 897.286L794.367 885.02L828.492 876.173L833.326 890.913L833.778 892.018Z"
                fill="black" />
            <path id="Vector_30" opacity="0.1"
                d="M966.849 876.173C966.849 876.173 953.707 875.912 946.698 882.081C939.689 888.25 905.811 883.405 907.272 882.081C907.698 881.409 907.958 880.646 908.031 879.855L912.631 876.173L966.484 874.587C966.688 875.606 966.849 876.173 966.849 876.173Z"
                fill="black" />
            <path id="Vector_31"
                d="M856.164 705.923C855.187 708.334 854.443 710.834 853.944 713.387C852.726 720.379 852.388 727.496 852.936 734.572C853.477 744.757 852.936 813.011 852.936 813.011C852.936 813.011 841.386 831.214 834.932 837.63C828.478 844.047 848.074 855.57 848.074 855.57C850.994 872.172 833.296 890.913 833.296 890.913C815.306 869.233 793.549 896.253 793.549 896.253C793.549 896.253 781.721 875.882 778.771 868.607C775.822 861.332 790.322 856.313 795.418 853.344C800.514 850.376 795.155 832.974 795.155 832.974C795.155 832.974 790.862 817.711 785.751 803.787C780.64 789.862 791.388 720.56 791.388 720.56C791.388 720.56 791.942 708.236 793.271 703.944C793.934 700.845 794.068 697.658 793.666 694.515C793.578 693.453 793.476 692.58 793.403 691.969C793.33 691.358 793.271 691.096 793.271 691.096L793.476 690.747L800.777 677.186C800.777 677.186 859.668 697.382 856.164 705.923Z"
                fill="" />
            <path id="#143d42Vector_32"
                d="M966.849 874.573C966.849 874.573 953.707 874.296 946.698 880.393C939.689 886.489 905.811 881.732 907.272 880.393C908.732 879.054 908.6 869.16 908.6 869.16C888.727 842.112 905.68 831.141 905.68 831.141C905.68 831.141 896.816 788.582 895.21 772.795C894.086 761.78 892.699 732.055 891.954 715.22C891.633 707.945 891.443 702.925 891.443 702.925L907.535 699.739L909.623 699.331L948.786 691.489C948.786 691.489 949.867 698.764 950.597 704.715C950.966 707.255 951.166 709.816 951.196 712.383C950.947 715.293 951.196 724.416 951.196 724.416L952.539 751.712C951.672 754.577 951.22 757.551 951.196 760.544C951.473 764.036 956.569 813.812 956.569 813.812C956.569 813.812 965.433 843.523 962.41 845.662C959.387 847.801 966.849 874.573 966.849 874.573Z"
                fill="" />
            <path id="#143d42Vector_33" opacity="0.1"
                d="M901.825 162.577C900.803 165.182 900.628 169.678 900.92 174.698C892.859 179.534 883.593 182.007 874.186 181.832C864.779 181.657 855.612 178.841 847.738 173.708C847.303 166.558 846.44 159.44 845.153 152.392C845.153 152.392 905.33 153.746 901.825 162.577Z"
                fill="black" />
            <path id="Vector_34"
                d="M925.057 130.451C925.216 143.652 920.105 156.376 910.849 165.822C901.593 175.269 888.95 180.665 875.701 180.823C862.453 180.981 849.683 175.889 840.203 166.666C830.722 157.443 825.307 144.845 825.148 131.644C825.148 131.236 825.148 130.858 825.148 130.451C825.148 117.245 830.413 104.581 839.784 95.2435C849.155 85.906 861.865 80.6603 875.117 80.6603C888.37 80.6603 901.08 85.906 910.451 95.2435C919.822 104.581 925.086 117.245 925.086 130.451H925.057Z"
                fill="#CF6F80" />
            <path id="Vector_35" opacity="0.1"
                d="M883.032 239.664C863.757 232.2 838.962 207.537 845.153 196.014C846.522 193.103 847.339 189.966 847.563 186.76L873.949 208.381L890.275 221.724L902.687 190.252C903.723 196.843 904.789 201.892 904.789 201.892C904.789 201.892 901.095 207.028 898.948 207.305C896.802 207.581 910.689 250.358 883.032 239.664Z"
                fill="black" />
            <path id="Vector_36"
                d="M951.268 335.215L929.233 704.06L900.496 705.937L826.068 492.065L838.276 238.151L840.86 184.504L873.949 211.582L890.274 224.925L903.052 192.522L926.81 213.154L951.268 335.215Z"
                fill="" />
            <path id="#143d42Vector_37" opacity="0.1"
                d="M856.164 705.922C855.187 708.334 854.443 710.834 853.944 713.387C833.013 710.175 812.685 703.853 793.636 694.632L793.242 694.428L793.374 692.085V690.863L800.675 677.302C800.675 677.302 859.668 697.382 856.164 705.922Z"
                fill="black" />
            <path id="Vector_38" opacity="0.1"
                d="M908.016 713.445C902.671 714.355 897.28 714.972 891.866 715.293C891.545 708.018 891.355 702.998 891.355 702.998L907.535 699.739L908.016 713.445Z"
                fill="black" />
            <path id="Vector_39" opacity="0.1"
                d="M950.655 704.715C940.273 707.407 924.225 710.433 909.885 708.541L909.681 699.331L948.845 691.489C948.845 691.489 949.881 698.706 950.655 704.715Z"
                fill="black" />
            <path id="Vector_40" opacity="0.1"
                d="M909.623 710.229C849.753 720.414 794.921 691.212 794.921 691.212L795.447 681.318C795.447 681.318 796.805 569.151 793.038 560.552C789.27 551.953 786.335 508.405 788.467 501.755C790.599 495.106 780.684 394.71 780.684 394.71L779.078 353.97L720.245 330.151L746.529 275.545C750.079 267.89 753.132 260.017 755.67 251.973C760.241 237.787 781.458 223.863 781.458 223.863C781.458 223.863 803.216 209.953 811.816 210.476C820.417 211 831.69 198.167 831.69 198.167C840.013 177.026 847.548 186.527 847.548 186.527C847.548 187.545 847.548 186.527 847.139 189.655C844.219 212.863 894.363 286.195 895.079 287.505L899.912 403.411L904.746 550.091L909.623 710.229Z"
                fill="black" />
            <path id="Vector_41"
                d="M908.016 710.229C848.147 720.414 793.3 691.212 793.3 691.212L793.841 681.318C793.841 681.318 795.184 569.151 791.417 560.552C787.649 551.953 784.714 508.361 786.861 501.653C789.007 494.946 779.034 394.652 779.034 394.652L777.413 353.912L718.595 330.093L744.879 275.486C748.42 267.833 751.473 259.966 754.02 251.93C758.591 237.787 779.881 223.848 779.881 223.848C779.881 223.848 801.638 209.938 810.224 210.462C818.811 210.986 830.142 198.167 830.142 198.167C838.48 177.026 847.665 186.527 847.665 186.527C847.665 187.545 846.789 187.982 847.256 189.655C853.681 212.164 892.874 286.195 893.589 287.505L898.423 403.411L903.154 550.164L908.016 710.229Z"
                fill="white" />
            <path id="Vector_42" opacity="0.1"
                d="M891.881 290.779C885.441 288.101 851.33 249.296 851.33 249.296V240.464C850.089 237.554 842.7 239.329 836.728 241.366L839.298 187.72L842.218 190.135C848.6 212.63 891.18 289.484 891.881 290.779Z"
                fill="black" />
            <path id="Vector_43"
                d="M893.502 287.578C887.047 284.886 852.936 246.095 852.936 246.095V237.249C851.695 234.339 844.321 236.114 838.334 238.151L840.86 184.563L843.781 186.963C850.22 209.429 892.786 286.268 893.502 287.578Z"
                fill="white" />
            <path id="Vector_44" opacity="0.1"
                d="M794.921 481.094C795.724 481.094 836.552 476.816 836.552 476.816C836.552 476.816 861.274 525.268 859.653 537.039C858.033 548.81 855.097 559.257 845.153 557.409C835.209 555.562 791.636 558.864 791.636 558.864L794.921 481.094Z"
                fill="black" />
            <path id="Vector_45"
                d="M793.301 477.879C794.118 477.879 834.946 473.601 834.946 473.601C834.946 473.601 859.654 522.125 858.047 533.765C856.441 545.406 853.477 555.983 843.547 554.136C833.618 552.288 790.015 555.591 790.015 555.591L793.301 477.879Z"
                fill="white" />
            <path id="Vector_46"
                d="M824.068 455.195C824.068 455.195 861.537 475.274 862.34 481.385C863.143 487.496 843.27 478.708 838.977 477.631C836.149 476.962 833.273 476.514 830.376 476.293L801.741 477.064L824.068 455.195Z"
                fill="#CF6F80" />
            <path id="Vector_47" opacity="0.1"
                d="M881.411 293.281C883.588 293.281 885.353 291.522 885.353 289.353C885.353 287.183 883.588 285.424 881.411 285.424C879.233 285.424 877.468 287.183 877.468 289.353C877.468 291.522 879.233 293.281 881.411 293.281Z"
                fill="black" />
            <path id="Vector_48"
                d="M881.411 291.681C883.588 291.681 885.353 289.922 885.353 287.752C885.353 285.582 883.588 283.824 881.411 283.824C879.233 283.824 877.468 285.582 877.468 287.752C877.468 289.922 879.233 291.681 881.411 291.681Z"
                fill="#3F3D56" />
            <path id="Vector_49" opacity="0.1"
                d="M888.668 463.343C890.846 463.343 892.611 461.584 892.611 459.414C892.611 457.245 890.846 455.486 888.668 455.486C886.491 455.486 884.726 457.245 884.726 459.414C884.726 461.584 886.491 463.343 888.668 463.343Z"
                fill="black" />
            <path id="Vector_50"
                d="M888.668 461.728C890.846 461.728 892.611 459.969 892.611 457.799C892.611 455.63 890.846 453.871 888.668 453.871C886.491 453.871 884.726 455.63 884.726 457.799C884.726 459.969 886.491 461.728 888.668 461.728Z"
                fill="#3F3D56" />
            <path id="Vector_51" opacity="0.1"
                d="M885.353 378.312C887.531 378.312 889.296 376.553 889.296 374.383C889.296 372.214 887.531 370.455 885.353 370.455C883.176 370.455 881.411 372.214 881.411 374.383C881.411 376.553 883.176 378.312 885.353 378.312Z"
                fill="black" />
            <path id="Vector_52"
                d="M885.353 376.712C887.531 376.712 889.296 374.953 889.296 372.783C889.296 370.613 887.531 368.854 885.353 368.854C883.176 368.854 881.411 370.613 881.411 372.783C881.411 374.953 883.176 376.712 885.353 376.712Z"
                fill="#3F3D56" />
            <path id="Vector_53"
                d="M976.238 475.478C976.238 475.478 978.925 479.494 976.238 481.298C973.551 483.102 976.501 487.729 976.501 487.729C976.501 487.729 969.799 491.628 972.748 495.164C975.698 498.7 973.829 514.574 973.829 514.574L965.768 527.945C965.768 527.945 966.25 536.515 966.28 548.097C966.28 566.169 965.214 591.573 959.314 603.155L960.103 698.182C960.103 698.182 931.876 708.469 908.25 705.326L904.745 552.841C904.745 552.841 909.856 466.369 911.74 449.782C912.842 441.171 913.291 432.489 913.083 423.81C913.083 423.81 912.28 397.853 909.579 385.82C909.579 385.82 906.658 333.614 906.366 319.166C906.235 312.255 906.6 292.088 907.009 272.911C907.461 251.944 907.972 232.171 907.972 232.171L902.643 190.135C902.643 190.135 907.972 189.612 909.579 191.736C910.298 192.406 911.081 193.005 911.915 193.526C921.129 199.724 953.634 218.785 953.634 218.785C953.634 218.785 971.624 225.914 975.932 236.128C980.239 246.342 983.233 253.588 985.321 256.498C987.409 259.408 988.548 273.086 988.548 273.086C988.548 273.086 994.74 298.257 999.573 302.52C1004.41 306.784 1007.88 333.847 1007.88 333.847L965.17 367.312C965.17 367.312 961.417 422.981 960.614 425.134C959.811 427.288 976.238 475.478 976.238 475.478Z"
                fill="white" />
            <path id="Vector_54"
                d="M977.859 475.478C977.859 475.478 980.531 479.494 977.859 481.298C975.187 483.102 978.107 487.729 978.107 487.729C978.107 487.729 971.405 491.628 974.355 495.164C977.304 498.7 975.435 514.574 975.435 514.574L967.404 527.945C967.404 527.945 967.886 536.515 967.93 548.097C967.93 566.169 966.864 591.573 960.964 603.155L961.767 698.182C961.767 698.182 933.541 708.469 909.915 705.326L906.425 552.841C906.425 552.841 911.521 466.369 913.419 449.782C914.523 441.171 914.967 432.489 914.748 423.81C914.748 423.81 913.945 397.853 911.258 385.82C911.258 385.82 908.338 333.614 908.031 319.166C907.9 312.255 908.265 292.088 908.673 272.911C909.126 251.944 909.637 232.171 909.637 232.171L902.599 189.568C902.599 189.568 909.637 189.568 911.258 191.736C911.971 192.413 912.754 193.013 913.594 193.526C922.794 199.724 955.299 218.785 955.299 218.785C955.299 218.785 973.245 225.914 977.626 236.128C982.006 246.342 984.927 253.588 987.015 256.498C989.103 259.408 990.242 273.086 990.242 273.086C990.242 273.086 996.433 298.257 1001.27 302.52C1006.1 306.784 1009.59 333.847 1009.59 333.847L966.878 367.312C966.878 367.312 963.125 422.981 962.308 425.134C961.49 427.288 977.859 475.478 977.859 475.478Z"
                fill="white" />
            <path id="Vector_55" opacity="0.1"
                d="M926.707 244.524L930.577 255.727L910.265 276.097C910.718 255.131 911.229 235.357 911.229 235.357L904.191 192.769C904.191 192.769 911.229 192.769 912.85 194.937C913.562 195.615 914.346 196.214 915.186 196.727L932.446 246.328L926.707 244.524Z"
                fill="black" />
            <path id="Vector_56"
                d="M925.057 241.308L928.927 252.497L908.63 272.867C909.068 251.901 909.593 232.127 909.593 232.127L902.54 189.524C902.54 189.524 909.593 189.524 911.2 191.692C911.916 192.366 912.699 192.965 913.536 193.482L930.898 243.127L925.057 241.308Z"
                fill="white" />
            <path id="Vector_57" opacity="0.1"
                d="M925.057 130.451C925.063 135.693 924.235 140.904 922.604 145.888C922.329 145.934 922.048 145.924 921.777 145.859C921.506 145.794 921.251 145.676 921.027 145.51C920.633 132.415 914.178 120.106 906.22 109.644C903.982 106.489 901.274 103.692 898.189 101.351C895.066 99.0153 891.183 97.921 887.296 98.2805C882.915 98.877 879.045 101.845 874.621 102.224C868.78 102.704 863.552 98.6733 857.755 98.4841C855.398 98.5036 853.072 99.0253 850.934 100.014C848.796 101.003 846.894 102.436 845.358 104.217C842.309 107.799 840.046 111.977 838.714 116.483C836.418 123.319 835.167 130.461 835.005 137.668C834.932 141.742 834.537 146.849 830.741 148.333C831.028 145.339 830.687 142.318 829.739 139.462C828.792 136.607 827.258 133.979 825.236 131.746L825.148 131.644C825.148 131.236 825.148 130.858 825.148 130.451C825.148 117.245 830.413 104.581 839.784 95.2435C849.155 85.906 861.865 80.6603 875.117 80.6603C888.37 80.6603 901.08 85.906 910.451 95.2435C919.822 104.581 925.086 117.245 925.086 130.451H925.057Z"
                fill="black" />
            <path id="Vector_58"
                d="M895.853 51.4001C888.265 47.8435 879.634 47.1708 871.584 49.5086C867.539 50.7017 863.727 52.6368 859.624 53.6117C850.863 55.7215 840.641 53.4371 833.121 58.5442C828.945 61.4542 826.433 66.0521 824.097 70.5335L818.256 81.6061C815.072 87.6735 811.86 93.8428 810.531 100.521C809.202 107.2 810.005 114.679 814.255 120.062C817.336 123.962 821.921 126.42 825.279 130.102C827.297 132.346 828.827 134.982 829.772 137.844C830.717 140.707 831.056 143.733 830.77 146.732C834.567 145.277 834.946 140.141 835.034 136.067C835.198 128.86 836.448 121.719 838.743 114.882C840.075 110.377 842.339 106.199 845.387 102.616C846.923 100.833 848.824 99.3982 850.962 98.407C853.1 97.4158 855.426 96.8914 857.784 96.8692C863.625 97.0729 868.867 101.103 874.65 100.609C879.031 100.245 882.915 97.2766 887.325 96.68C891.213 96.3134 895.099 97.4085 898.218 99.7501C901.305 102.084 904.01 104.882 906.235 108.044C914.208 118.52 920.677 130.771 921.056 143.91C922.706 145.103 925.086 143.531 925.904 141.669C926.722 139.807 926.751 137.624 927.788 135.849C928.985 133.797 931.278 132.692 933.074 131.149C937.63 127.235 938.769 120.644 938.594 114.664C938.418 108.684 937.25 102.617 938.389 96.7383C939.075 93.1444 940.623 89.7542 941.47 86.1894C942.317 82.6246 942.419 78.6233 940.419 75.5532C937.498 71.0573 931.351 70.1552 925.992 69.7332C919.903 69.2094 914.456 69.8787 910.572 64.7717C908.744 62.11 906.692 59.608 904.439 57.2929C903.636 56.5217 895.853 51.7202 895.853 51.4001Z"
                fill="#512E4E" />
            <path id="Vector_59" opacity="0.1"
                d="M737.096 358.233L721.851 330.137L717.018 373.496C717.018 373.496 719.705 392.76 719.165 395.714C718.624 398.668 730.175 425.149 730.175 425.149C730.175 425.149 768.331 492.88 783.911 496.357L836.48 458.876L822.52 441.212C822.52 441.212 817.686 439.335 816.474 441.212C816.474 441.212 790.541 396.776 787.868 393.575C785.196 390.374 785.707 383.928 785.707 383.928C785.707 383.928 781.677 379.651 783.021 375.635C784.364 371.619 775.311 357.709 775.311 357.709L783.634 349.954L737.096 358.233Z"
                fill="black" />
            <path id="Vector_60"
                d="M722.654 326.921L718.624 330.137L713.791 373.496C713.791 373.496 716.478 392.76 715.937 395.714C715.397 398.668 726.962 425.149 726.962 425.149C726.962 425.149 765.103 492.88 780.684 496.357L833.34 458.876L819.366 441.212C819.366 441.212 814.532 439.335 813.32 441.212C813.32 441.212 787.401 396.776 784.714 393.575C782.027 390.374 782.568 383.928 782.568 383.928C782.568 383.928 778.538 379.651 779.881 375.635C781.224 371.619 772.083 357.709 772.083 357.709L780.407 349.954L722.654 326.921Z"
                fill="white" />
            <path id="Vector_61" opacity="0.1"
                d="M972.749 496.837C975.669 500.373 973.829 516.262 973.829 516.262L965.769 529.546C965.769 529.546 966.251 538.131 966.28 549.712L952.729 553.932C951.502 554.313 950.202 554.396 948.936 554.175C947.671 553.953 946.477 553.434 945.454 552.659C944.431 551.885 943.608 550.878 943.055 549.722C942.502 548.567 942.234 547.296 942.273 546.017L944.625 470.938L976.239 482.971C973.552 484.833 976.501 489.402 976.501 489.402C976.501 489.402 969.799 493.302 972.749 496.837Z"
                fill="black" />
            <path id="Vector_62"
                d="M974.355 495.237C977.275 498.758 975.435 514.647 975.435 514.647L967.404 527.945C967.404 527.945 967.886 536.515 967.93 548.097L954.13 552.39C952.932 552.764 951.661 552.847 950.424 552.632C949.187 552.417 948.02 551.911 947.019 551.155C946.019 550.398 945.214 549.414 944.673 548.285C944.132 547.156 943.87 545.914 943.909 544.664L946.26 469.323L977.859 481.385C975.158 483.247 978.108 487.816 978.108 487.816C978.108 487.816 971.405 491.701 974.355 495.237Z"
                fill="white" />
            <path id="Vector_63"
                d="M984.839 459.414C984.839 459.414 982.693 473.077 977.319 473.877C971.945 474.678 969.536 495.979 964.177 495.237C958.818 494.495 962.366 475.42 962.556 471.724C962.746 468.028 956.715 452.721 961.213 449.244C965.71 445.766 980.02 449.244 980.02 449.244L984.839 459.414Z"
                fill="#CF6F80" />
            <path id="Vector_64" opacity="0.1"
                d="M996.2 354.217L1006.32 333.847C1006.32 333.847 1010.36 349.372 1010.36 357.665C1010.36 365.959 1016 366.774 1016 366.774C1016 366.774 1022.18 374.049 1018.92 379.36C1015.66 384.67 1014.37 397.824 1014.37 397.824C1014.37 397.824 1015.43 422.981 1010.6 426.458C1005.76 429.936 1004.68 438.244 1004.68 438.244C1004.68 438.244 995.82 454.031 996.098 457.785C996.375 461.539 983.744 486.958 983.744 486.958C983.744 486.958 989.921 455.369 953.926 441.721C953.926 441.721 953.649 431.013 956.335 428.073C959.022 425.134 963.213 423.708 960.585 408.925C957.956 394.143 959.825 376.319 959.825 372.754C959.825 369.189 967.886 346.971 967.886 346.971L996.2 354.217Z"
                fill="black" />
            <path id="Vector_65"
                d="M1000.7 330.937L1009.55 333.847C1009.55 333.847 1013.59 349.372 1013.59 357.665C1013.59 365.959 1019.23 366.774 1019.23 366.774C1019.23 366.774 1025.4 374.049 1022.15 379.36C1018.89 384.67 1017.58 397.824 1017.58 397.824C1017.58 397.824 1018.66 422.981 1013.82 426.458C1008.99 429.936 1007.98 438.244 1007.98 438.244C1007.98 438.244 999.12 454.031 999.398 457.785C999.675 461.539 987.03 486.958 987.03 486.958C987.03 486.958 993.206 455.369 957.212 441.721C957.212 441.721 956.949 431.013 959.636 428.073C962.322 425.134 966.513 423.708 963.885 408.925C961.256 394.143 963.126 376.319 963.126 372.754C963.126 369.189 971.186 346.971 971.186 346.971L1000.7 330.937Z"
                fill="white" />
            <path id="Vector_66" opacity="0.1"
                d="M805.201 858.917C805.201 858.917 819.307 850.085 828.565 856.502C837.823 862.918 805.201 858.917 805.201 858.917Z"
                fill="black" />
            <path id="Vector_67" opacity="0.1"
                d="M914.836 831.606C914.836 831.606 927.321 830.006 937.805 841.253C948.29 852.5 914.836 831.606 914.836 831.606Z"
                fill="black" />
            <g id="Group" opacity="0.1">
                <path id="Vector_68" opacity="0.1"
                    d="M933.074 127.948C931.278 129.505 928.971 130.596 927.773 132.648C926.751 134.408 926.722 136.591 925.904 138.468C925.086 140.345 922.706 141.902 921.042 140.709C920.662 127.614 914.193 115.319 906.235 104.843C904.009 101.685 901.305 98.8924 898.218 96.5636C895.095 94.2171 891.205 93.1171 887.31 93.479C882.929 94.0755 879.074 97.0437 874.65 97.422C868.809 97.9022 863.567 93.8718 857.77 93.6827C855.414 93.7005 853.09 94.2214 850.954 95.2103C848.818 96.1993 846.92 97.6332 845.387 99.4154C842.339 102.998 840.075 107.176 838.743 111.681C836.448 118.518 835.198 125.659 835.034 132.866C834.946 136.926 834.567 141.989 830.799 143.502C830.887 144.582 830.887 145.667 830.799 146.747C834.61 145.292 834.99 140.156 835.078 136.082C835.242 128.875 836.492 121.733 838.787 114.897C840.119 110.391 842.382 106.214 845.431 102.631C846.964 100.849 848.863 99.4144 850.998 98.4232C853.134 97.4319 855.458 96.9071 857.813 96.8837C863.654 97.0874 868.911 101.118 874.694 100.623C879.074 100.259 882.959 97.2911 887.354 96.6945C891.247 96.3285 895.137 97.4233 898.262 99.7646C901.349 102.099 904.054 104.897 906.279 108.058C914.237 118.534 920.706 130.785 921.085 143.924C922.75 145.117 925.13 143.546 925.948 141.684C926.766 139.821 926.795 137.639 927.817 135.863C929.014 133.812 931.322 132.706 933.118 131.164C937.674 127.25 938.813 120.659 938.637 114.678C938.637 114.489 938.637 114.315 938.637 114.126C938.345 119.335 936.958 124.616 933.074 127.948Z"
                    fill="black" />
                <path id="Vector_69" opacity="0.1"
                    d="M825.265 126.93C821.921 123.249 817.336 120.775 814.255 116.876C811.652 113.433 810.17 109.28 810.005 104.974C809.547 110.358 811.056 115.727 814.255 120.091C817.336 123.991 821.921 126.45 825.265 130.131C828.495 133.73 830.436 138.294 830.785 143.109C831.004 140.181 830.628 137.239 829.68 134.459C828.732 131.679 827.23 129.118 825.265 126.93Z"
                    fill="black" />
                <path id="Vector_70" opacity="0.1"
                    d="M941.47 82.9883C940.609 86.5531 939.075 89.9433 938.375 93.5372C937.954 95.9674 937.802 98.4363 937.922 100.9C937.97 99.508 938.121 98.122 938.375 96.7527C939.075 93.1588 940.609 89.7687 941.47 86.2039C941.965 84.2365 942.128 82.2008 941.952 80.1802C941.858 81.1263 941.697 82.0647 941.47 82.9883Z"
                    fill="black" />
            </g>
        </g>
        <path id="Vector_71" opacity="0.1"
            d="M545.49 690.58C546.41 691.1 547.34 691.58 548.27 692.09V691.59H556.27V696.1C556.85 696.35 557.4 696.62 557.97 696.88V691.59H565.97V700.25C566.122 700.319 566.279 700.375 566.44 700.42V690.58H545.49Z"
            fill="" />
        <path id="#143d42Vector_72" opacity="0.1"
            d="M521.24 946.96C575.055 946.96 618.68 939.953 618.68 931.31C618.68 922.667 575.055 915.66 521.24 915.66C467.425 915.66 423.8 922.667 423.8 931.31C423.8 939.953 467.425 946.96 521.24 946.96Z"
            fill="" />
        <path id="#143d42Vector_73" d="M524.38 631.5H518.11V772.67H524.38V631.5Z" fill="#535461" />
        <path id="Vector_74"
            d="M563.79 772.25L563.39 778.61L562.84 787.61L562.61 791.35L562.05 800.35L561.81 804.09L561.26 813.09L554.93 915.16C554.66 919.552 552.725 923.675 549.52 926.689C546.314 929.703 542.08 931.381 537.68 931.38H504.81C500.398 931.382 496.153 929.695 492.945 926.666C489.737 923.637 487.81 919.495 487.56 915.09L481.23 813.02L480.68 804.02L480.45 800.28L479.88 791.28L479.65 787.54L479.1 778.54L478.7 772.18C478.631 770.961 478.81 769.741 479.228 768.593C479.645 767.446 480.292 766.395 481.128 765.505C481.964 764.616 482.973 763.906 484.093 763.418C485.212 762.931 486.419 762.676 487.64 762.67H554.86C556.086 762.677 557.299 762.935 558.422 763.427C559.545 763.919 560.556 764.636 561.392 765.533C562.228 766.43 562.872 767.489 563.285 768.644C563.697 769.799 563.869 771.026 563.79 772.25Z"
            fill="#3F3D56" />
        <path id="Vector_75" d="M563.39 778.6L562.83 787.58H479.65L479.09 778.6H563.39Z" fill="#9D9CB5" />
        <path id="Vector_76" d="M562.6 791.32L562.05 800.3H480.44L479.88 791.32H562.6Z" fill="#9D9CB5" />
        <path id="Vector_77" d="M561.81 804.05L561.26 813.02H481.23L480.67 804.05H561.81Z" fill="#9D9CB5" />
        <path id="Vector_78"
            d="M469.56 684.42C506.08 710.84 521.29 752.16 521.29 752.16C521.29 752.16 477.29 750.65 440.76 724.23C404.23 697.81 389 656.52 389 656.52C389 656.52 433 658 469.56 684.42Z"
            fill="" />
        <path id="#143d42Vector_79"
            d="M389 656.52C389 656.52 434.67 681.87 449.32 702.86C463.97 723.85 521.25 752.18 521.25 752.18"
            stroke="#535461" stroke-width="2" stroke-miterlimit="10" />
        <path id="Vector_80"
            d="M493.09 631.2C512.97 645.57 521.25 668.06 521.25 668.06C521.25 668.06 497.25 667.24 477.42 652.87C457.59 638.5 449.26 616 449.26 616C449.26 616 473.22 616.82 493.09 631.2Z"
            fill="" />
        <path id="#143d42Vector_81"
            d="M449.26 616C449.26 616 474.12 629.8 482.1 641.22C490.08 652.64 521.25 668.06 521.25 668.06"
            stroke="#535461" stroke-width="2" stroke-miterlimit="10" />
        <path id="Vector_82"
            d="M550.13 666.92C527.3 692.01 522.47 724.8 522.47 724.8C522.47 724.8 554.66 716.9 577.47 691.8C600.28 666.7 605.13 633.92 605.13 633.92C605.13 633.92 572.96 641.83 550.13 666.92Z"
            fill="" />
        <path id="#143d42Vector_83"
            d="M605.15 633.93C605.15 633.93 575.41 659.65 567.85 677.37C560.29 695.09 522.47 724.8 522.47 724.8"
            stroke="#535461" stroke-width="2" stroke-miterlimit="10" />
    </g>
    <defs>
        <linearGradient id="paint0_linear" x1="277461" y1="787359" x2="277461" y2="236459"
            gradientUnits="userSpaceOnUse">
            <stop stop-color="#808080" stop-opacity="0.25" />
            <stop offset="0.54" stop-color="#808080" stop-opacity="0.12" />
            <stop offset="1" stop-color="#808080" stop-opacity="0.1" />
        </linearGradient>
    </defs>
</svg>