<?xml version="1.0" encoding="UTF-8" standalone="no"?>
<svg xmlns="http://www.w3.org/2000/svg" viewBox="0 0 673.66669 227.40425" height="227.40425" width="673.66669"
   id="svg167" version="1.1">

   <defs id="defs171" />
   <path id="path177"
      d="m 3.5,222.55752 c 0,-0.95711 21.447542,-1.29268 68.333336,-1.06919 37.583334,0.17916 65.933334,0.7723 63.000004,1.3181 C 126.16661,224.419 3.5,224.18653 3.5,222.55752 Z M 168.16667,221.665 c -11.8956,-2.24612 -14.94454,-2.41568 -22.66667,-1.26064 -2.93333,0.43875 -4.13333,0.44416 -2.66666,0.012 9.49083,-2.79644 9.52183,-2.86697 3.12218,-7.10593 -8.91665,-5.90613 -12.05056,-12.59073 -12.82259,-27.35039 -0.83921,-16.04418 0.65043,-20.41162 9.18078,-26.91696 11.5925,-8.84056 18.29334,-22.57665 19.51942,-40.013 0.66614,-9.47353 0.61665,-9.65632 -4.10935,-15.17758 -5.59363,-6.534916 -12.315,-19.507476 -14.27456,-27.550636 -1.65991,-6.81313 -7.34178,-11.20152 -19.28255,-14.89284 -16.80567,-5.19522 -31.71482,-4.76847 -48.142746,1.378 -8.351239,3.1246 -19.596629,12.78733 -23.276622,20.00072 -2.983026,5.84721 -6.772235,22.775086 -7.191181,32.125806 -0.238174,5.31596 -1.350334,7.68572 -7.15446,15.24448 -6.459211,8.41189 -6.74064,9.09569 -4.680403,11.37223 1.205623,1.3322 2.96364,2.42218 3.906705,2.42218 0.943062,0 2.031913,0.51332 2.419666,1.14072 1.494848,2.41872 -6.058249,-0.27638 -7.818785,-2.7899 -2.337027,-3.33658 -1.604606,-5.23758 5.529076,-14.35082 3.901705,-4.9844 5.740673,-8.63389 5.741243,-11.39366 0.0013,-6.44803 5.389121,-30.143486 8.033876,-35.332946 2.988416,-5.86376 12.587939,-14.84224 19.805983,-18.52461 18.473201,-9.42432 48.031878,-8.28855 66.404458,2.55153 l 4.42319,2.60975 0.0197,-6.28837 c 0.0444,-14.15315 5.61442,-29.51943 14.10842,-38.921275 11.30235,-12.510341 27.72113,-19.0790499 47.87188,-19.1522399 24.37216,-0.08852 42.83218,9.1215099 51.21424,25.5517049 3.10478,6.08587 8.19755,29.64545 7.21802,33.39117 -0.72659,2.77846 1.56936,6.97078 8.66788,15.82726 5.43668,6.78308 5.10416,11.31907 -0.9854,13.4419 -2.41299,0.84117 -4.15254,2.54514 -4.55978,4.46656 -0.62397,2.94397 -0.64701,2.93276 -0.44002,-0.21428 0.14506,-2.2059 1.47816,-3.9228 3.97056,-5.11374 2.06368,-0.98608 4.05254,-2.57569 4.41969,-3.53246 0.36715,-0.95678 -2.29868,-5.85559 -5.92407,-10.88627 -5.60629,-7.77947 -6.71442,-10.34252 -7.41333,-17.14669 -3.05668,-29.75857 -10.79748,-42.207134 -31.165,-50.1188269 -11.69302,-4.542104 -31.79494,-5.106324 -44.60678,-1.25202 -22.45978,6.7567809 -34.93048,20.2219969 -39.14921,42.2713069 -2.98216,15.58635 -2.71891,17.14522 4.19396,24.83399 7.4556,8.29243 10.89111,14.80284 12.61885,23.91324 0.86768,4.575236 2.6202,8.310096 5.15071,10.976876 2.10955,2.22316 5.25023,6.7421 6.97928,10.0421 3.01133,5.74731 3.13375,7.06695 2.90659,31.33334 -0.39894,42.61841 -2.96306,53.84906 -14.04848,61.53126 -12.41123,8.60099 -16.45586,8.46875 259.0179,8.46875 164.4007,0 247.93438,0.44922 247.93438,1.33333 0,0.88456 -82.68666,1.28732 -245.66668,1.19664 -213.13883,-0.11867 -247.079,-0.40337 -256.33334,-2.15076 z m -8.75124,-8.13285 c 10.23579,-6.22475 13.09482,-13.87513 14.91212,-39.90279 2.13662,-30.60076 1.20719,-46.18694 -3.30398,-55.40748 -5.2751,-10.78189 -7.52356,-10.92224 -7.52356,-0.46958 0,16.0259 -5.50308,29.00026 -17.17434,40.49117 -4.30649,4.23993 -8.50401,9.01955 -9.32783,10.62133 -2.06443,4.014 -1.77739,23.9756 0.43391,30.17592 2.13904,5.99768 5.0256,9.45894 11.40159,13.67156 5.73921,3.79192 5.69995,3.78888 10.58209,0.81987 z M 158.76201,94.372154 c -2.68296,-8.11452 -6.8892,-15.22621 -11.28871,-19.08637 l -3.03926,-2.66667 0.91822,4 c 1.77028,7.7119 13.37072,27.221476 15.13619,25.455996 0.33912,-0.33912 -0.43778,-3.805446 -1.72644,-7.702956 z M 48.106062,183.34639 c -2.670095,-2.67009 -3.272727,-4.60416 -3.272727,-10.5034 0,-4.84832 -0.668876,-7.7858 -2.030104,-8.91552 -1.121952,-0.93113 -1.694147,-2.74335 -1.279098,-4.05105 0.413055,-1.30142 0.1266,-2.75211 -0.636562,-3.22378 -1.665808,-1.02952 -1.876643,-8.70018 -0.239132,-8.70018 0.631641,0 0.854797,1.53608 0.495905,3.4135 -0.511324,2.67482 -0.02697,3.5771 2.238197,4.16944 2.708351,0.70826 2.751856,0.9094 0.689563,3.18822 -2.055323,2.2711 -2.009947,2.67536 0.684832,6.10122 2.238975,2.84639 2.704492,4.7433 2.076399,8.46095 -1.07144,6.3418 3.072288,12 8.788091,12 5.103951,0 31.012578,-8.46103 37.850454,-12.36089 3.91383,-2.23219 5.905527,-4.59235 7.59416,-8.99908 1.25891,-3.28535 2.32157,-4.9041 2.36145,-3.5972 0.14225,4.6613 -3.693023,11.26082 -8.107844,13.95154 -6.670651,4.06559 -32.590844,12.33896 -38.657515,12.33896 -3.831696,0 -6.182553,-0.89921 -8.556069,-3.27273 z M 245.50001,133.66594 c -11.972,-2.89058 -31.98538,-10.4343 -35.47739,-13.37263 -4.13583,-3.48008 -7.85595,-10.25079 -7.85595,-14.29803 0,-4.15107 2.35252,-1.876 3.13774,3.03443 1.34996,8.44224 8.37642,12.94715 30.7639,19.72376 18.14537,5.49253 24.07109,3.53595 23.65674,-7.81112 -0.1136,-3.11111 0.70685,-7.409 1.82324,-9.55087 1.39167,-2.67004 1.59835,-4.32573 0.65741,-5.26666 -2.00128,-2.00128 -1.69086,-3.1114 1.07208,-3.83392 1.97312,-0.51599 2.44446,0.1396 2.44446,3.40005 0,2.22161 -1.14512,5.1844 -2.54471,6.58399 -2.00707,2.00706 -2.36148,3.62924 -1.67744,7.67796 1.10127,6.51834 -0.91685,10.34969 -6.73124,12.7791 -4.70228,1.96474 -4.912,1.98587 -9.26884,0.93394 z"
      style="stroke-width:7;stroke-linecap:square;stroke-linejoin:round;stroke-miterlimit:4;stroke-dasharray:none;stroke-opacity:1;paint-order:stroke fill markers" />
   <path
      d="m 91.740102,109.98983 c -0.23464,-0.0281 -0.23464,-0.0281 -0.75954,-1.50717 -0.28866,-0.81347 -0.54176,-1.49374 -0.56242,-1.51172 -0.0206,-0.0179 -0.22173,-0.0963 -0.44686,-0.17429 -0.22509,-0.0779 -0.59816,-0.2343 -0.82902,-0.34752 -0.41972,-0.20595 -0.41972,-0.20595 -1.85145,0.47567 -0.99198,0.47225 -1.45191,0.67058 -1.49751,0.64579 -0.19396,-0.1055 -1.523884,-1.43607 -1.636522,-1.63729 -0.02499,-0.0447 0.174548,-0.50769 0.646382,-1.50022 0.68253,-1.43562 0.68253,-1.43562 0.49605,-1.80954 -0.19078,-0.38248 -0.49802,-1.16458 -0.49801,-1.26772 4.4e-4,-0.0364 -0.544108,-0.25016 -1.497187,-0.58781 -1.791364,-0.63459 -1.569114,-0.42873 -1.591839,-1.477411 -0.03503,-1.62216 -0.173588,-1.43732 1.533863,-2.04548 0.815272,-0.29036 1.495613,-0.54339 1.511863,-0.56222 0.0162,-0.0188 0.1012,-0.23784 0.18857,-0.48664 0.0875,-0.24881 0.24342,-0.62291 0.34658,-0.83135 0.18757,-0.37897 0.18757,-0.37897 -0.49264,-1.809353 -0.464671,-0.97713 -0.669044,-1.45094 -0.644945,-1.49522 0.105039,-0.19303 1.444695,-1.53232 1.637825,-1.6374 0.0454,-0.0247 0.50662,0.17364 1.4969,0.6441 1.43115,0.67989 1.43115,0.67989 1.80849,0.49287 0.20752,-0.10273 0.58086,-0.2583 0.82969,-0.34575 0.24879,-0.0874 0.46799,-0.17248 0.4871,-0.18898 0.0191,-0.0165 0.27224,-0.69686 0.56256,-1.51187 0.60799,-1.70698 0.42334,-1.56833 2.04469,-1.5334 1.04894,0.0226 0.8435,-0.1977 1.47412,1.58108 0.52698,1.4864 0.52698,1.4864 0.96286,1.63051 0.23971,0.0793 0.62253,0.2371 0.85068,0.35086 0.41481,0.20681 0.41481,0.20681 1.85036,-0.47498 1.21665,-0.57778 1.44901,-0.67457 1.52397,-0.63482 0.11503,0.061 1.547338,1.49315 1.605998,1.60578 0.0372,0.0715 -0.0711,0.33001 -0.63728,1.52115 -0.682188,1.434983 -0.682188,1.434983 -0.49533,1.809563 0.14801,0.29673 0.39311,0.90391 0.51849,1.28445 0.0171,0.0518 0.0438,0.0621 1.83248,0.69798 1.36295,0.48465 1.24009,0.32162 1.24008,1.64501 1e-5,1.332421 0.16487,1.144601 -1.53549,1.749101 -0.81409,0.28945 -1.49437,0.54261 -1.51171,0.56261 -0.0173,0.02 -0.0953,0.22056 -0.17314,0.44567 -0.0779,0.22511 -0.23409,0.59778 -0.34711,0.82815 -0.205498,0.41882 -0.205498,0.41882 0.47626,1.85039 0.47903,1.00595 0.67087,1.45143 0.64532,1.49841 -0.10553,0.19409 -1.444888,1.53417 -1.637828,1.63872 -0.0438,0.0238 -0.52433,-0.18357 -1.50023,-0.64751 -1.43562,-0.68254 -1.43562,-0.68254 -1.80954,-0.49605 -0.38066,0.18987 -1.16439,0.49799 -1.26666,0.49799 -0.0352,-1e-4 -0.25835,0.56883 -0.59302,1.51127 -0.29519,0.83121 -0.55494,1.5226 -0.57727,1.53639 -0.0585,0.0362 -1.89991,0.0513 -2.17846,0.0179 z m 1.97411,-5.59136 c 4.30239,-0.76394 6.00308,-6.065121 2.96099,-9.229571 -2.84769,-2.962213 -7.93879,-1.777413 -9.17477,2.13521 -1.25442,3.970891 2.11827,7.821541 6.21378,7.094361 z m -1.53254,-2.68953 c -1.19671,-0.23639 -2.12678,-1.31173 -2.19689,-2.539901 -0.14552,-2.54916 2.88167,-3.9143 4.68377,-2.1122 1.9213,1.92128 0.17979,5.178981 -2.48688,4.652101 z m 16.270418,-3.782281 c -0.2042,-0.0245 -0.2042,-0.0245 -0.66102,-1.31169 -0.25123,-0.70796 -0.4715,-1.29999 -0.48948,-1.31564 -0.0179,-0.0156 -0.19296,-0.0838 -0.38889,-0.1517 -0.1959,-0.0678 -0.52058,-0.20389 -0.72149,-0.30245 -0.36529,-0.1792 -0.36529,-0.1792 -1.61131,0.41398 -0.86331,0.41099 -1.26359,0.5836 -1.30327,0.56202 -0.16881,-0.0918 -1.32623,-1.2498 -1.42426,-1.424913 -0.0217,-0.0389 0.15187,-0.44186 0.56254,-1.30565 0.59401,-1.24941 0.59401,-1.24941 0.43169,-1.57484 -0.16603,-0.33287 -0.43341,-1.01352 -0.43341,-1.10329 0,-0.0318 -0.47353,-0.21771 -1.30299,-0.51156 -1.559023,-0.55229 -1.365673,-0.37284 -1.385373,-1.28578 -0.0305,-1.41176 -0.15108,-1.2509 1.334923,-1.78017 0.70952,-0.25271 1.30162,-0.47291 1.31576,-0.48931 0.0141,-0.0164 0.088,-0.20699 0.16407,-0.42353 0.0761,-0.21654 0.21183,-0.54212 0.30162,-0.72352 0.16326,-0.32981 0.16326,-0.32981 -0.42874,-1.57467 -0.4044,-0.85039 -0.58226,-1.26274 -0.56129,-1.30127 0.0915,-0.16798 1.25731,-1.33358 1.42539,-1.42503 0.0395,-0.0215 0.4409,0.15114 1.30273,0.56057 1.24552,0.59169 1.24552,0.59169 1.57386,0.42917 0.1806,-0.0894 0.50552,-0.22479 0.72207,-0.3009 0.21653,-0.0761 0.4073,-0.15011 0.42393,-0.16447 0.0166,-0.0144 0.23694,-0.60647 0.48959,-1.31577 0.52913,-1.48558 0.36828,-1.36496 1.77948,-1.33451 0.91289,0.0197 0.73409,-0.17206 1.28292,1.376 0.45863,1.29361 0.45863,1.29361 0.83797,1.41903 0.20863,0.069 0.54178,0.20638 0.74034,0.30535 0.36102,0.17995 0.36102,0.17995 1.61036,-0.41337 1.05885,-0.50284 1.26107,-0.58708 1.3263,-0.55248 0.1001,0.0531 1.34664,1.29948 1.3977,1.3975 0.0324,0.0622 -0.0619,0.28721 -0.55463,1.32385 -0.5937,1.24885 -0.5937,1.24885 -0.43111,1.57484 0.12881,0.25824 0.34211,0.78667 0.45123,1.11785 0.0149,0.0451 0.0381,0.054 1.5948,0.60745 1.18618,0.42179 1.07924,0.27994 1.07924,1.43164 0,1.1596 0.14349,0.99614 -1.33633,1.52224 -0.7085,0.2519 -1.30054,0.47223 -1.31563,0.48963 -0.0151,0.0174 -0.0829,0.19196 -0.15067,0.38787 -0.0678,0.19592 -0.20372,0.52024 -0.30208,0.72073 -0.17882,0.36451 -0.17882,0.36451 0.41448,1.6104 0.4169,0.87547 0.58386,1.26317 0.56162,1.30406 -0.0918,0.168923 -1.25749,1.335173 -1.42539,1.426163 -0.0382,0.0207 -0.45633,-0.15973 -1.30565,-0.56353 -1.24941,-0.594 -1.24941,-0.594 -1.57484,-0.43168 -0.33128,0.16524 -1.01336,0.43341 -1.10236,0.43341 -0.0306,0 -0.22484,0.49505 -0.51611,1.31525 -0.25688,0.7234 -0.48295,1.3251 -0.50239,1.3371 -0.0509,0.0315 -1.65348,0.0446 -1.8959,0.0156 z m 1.71806,-4.866143 c 3.74434,-0.66485 5.22444,-5.27844 2.57693,-8.03245 -2.47833,-2.578 -6.90909,-1.54687 -7.98476,1.85826 -1.0917,3.45585 1.84353,6.80706 5.40783,6.17419 z m -1.33377,-2.34068 c -1.04147,-0.20577 -1.85092,-1.1416 -1.91193,-2.21047 -0.12665,-2.21852 2.5079,-3.40659 4.07626,-1.83823 1.67209,1.67208 0.15647,4.50724 -2.16433,4.0487 z m -7.03814,30.040724 c -0.16074,-0.0193 -0.16074,-0.0193 -0.52036,-1.03258 -0.19777,-0.55732 -0.37117,-1.02338 -0.38532,-1.0357 -0.0142,-0.0123 -0.1519,-0.066 -0.30613,-0.11942 -0.15423,-0.0534 -0.40982,-0.1605 -0.56798,-0.23809 -0.287555,-0.14107 -0.287555,-0.14107 -1.268445,0.32589 -0.67963,0.32354 -0.99473,0.45942 -1.02597,0.44243 -0.1329,-0.0723 -1.04404,-0.98386 -1.1212,-1.12171 -0.0171,-0.0306 0.11954,-0.34784 0.44283,-1.02783 0.46761,-0.98356 0.46761,-0.98356 0.33983,-1.23974 -0.1307,-0.26204 -0.34119,-0.79786 -0.34119,-0.86853 0,-0.025 -0.37277,-0.17139 -1.02573,-0.40271 -1.22728,-0.43477 -1.07508,-0.29351 -1.09059,-1.01219 -0.024,-1.11136 -0.11893,-0.98473 1.05088,-1.40138 0.55854,-0.19894 1.02465,-0.37228 1.03579,-0.38519 0.0111,-0.0129 0.0693,-0.16295 0.12916,-0.33341 0.0599,-0.17047 0.16675,-0.42677 0.23744,-0.56957 0.12851,-0.25963 0.12851,-0.25963 -0.33752,-1.23961 -0.31835,-0.66944 -0.45837,-0.99405 -0.44186,-1.02438 0.072,-0.13224 0.98978,-1.04982 1.1221,-1.12181 0.0311,-0.0169 0.34708,0.11898 1.02554,0.44129 0.9805,0.46579 0.9805,0.46579 1.23898,0.33785 0.142165,-0.0704 0.397955,-0.17696 0.568415,-0.23687 0.17047,-0.0599 0.32065,-0.11817 0.33373,-0.12948 0.0131,-0.0113 0.18652,-0.47742 0.38541,-1.03579 0.41655,-1.16948 0.28992,-1.07452 1.40085,-1.05055 0.71863,0.0155 0.57789,-0.13545 1.00993,1.08321 0.36105,1.01835 0.36105,1.01835 0.65965,1.11708 0.16424,0.0543 0.4265,0.16247 0.58282,0.24038 0.2842,0.14166 0.2842,0.14166 1.2677,-0.32541 0.83355,-0.39585 0.99273,-0.46216 1.04409,-0.43492 0.0788,0.0418 1.0601,1.02297 1.10029,1.10013 0.0255,0.049 -0.0487,0.2261 -0.43662,1.04216 -0.46737,0.98312 -0.46737,0.98312 -0.33937,1.23974 0.1014,0.20329 0.26932,0.61928 0.35521,0.87999 0.0117,0.0355 0.03,0.0425 1.25545,0.4782 0.93379,0.33204 0.8496,0.22037 0.8496,1.12701 0,0.91286 0.11296,0.78418 -1.05197,1.19833 -0.55775,0.1983 -1.02382,0.37175 -1.03569,0.38545 -0.0119,0.0137 -0.0652,0.15111 -0.11862,0.30534 -0.0534,0.15423 -0.16037,0.40954 -0.23779,0.56737 -0.14077,0.28695 -0.14077,0.28695 0.32627,1.26773 0.32819,0.68919 0.45963,0.99439 0.44212,1.02658 -0.0723,0.13298 -0.98992,1.05107 -1.12209,1.1227 -0.0301,0.0163 -0.35923,-0.12574 -1.02783,-0.44362 -0.98355,-0.46761 -0.98355,-0.46761 -1.23974,-0.33983 -0.26079,0.13008 -0.79773,0.34119 -0.86779,0.34119 -0.0241,0 -0.177,0.38971 -0.40629,1.03539 -0.20221,0.56947 -0.38019,1.04314 -0.39548,1.05259 -0.0401,0.0248 -1.30165,0.0351 -1.4925,0.0123 z m 1.35249,-3.83071 c 2.94761,-0.52338 4.11278,-4.15528 2.02861,-6.32328 -1.95098,-2.02945 -5.438955,-1.21772 -6.285745,1.46285 -0.85941,2.72051 1.451265,5.35864 4.257135,4.86043 z m -1.04995,-1.84262 c -0.81987,-0.16199 -1.45708,-0.89869 -1.5051,-1.74012 -0.0997,-1.74646 1.97424,-2.68173 3.2089,-1.44709 1.31628,1.31629 0.12318,3.54818 -1.7038,3.18721 z m 0.65371,-44.201784 c -3.471666,0.0543 -7.087509,0.91976 -10.7207,2.78906 -4.53273,2.33212 -11.844944,9.52669 -11.027344,10.84961 0.38142,0.61713 0.116979,1.12305 -0.587891,1.12305 -4.19419,0 -5.317895,15.430764 -1.703124,23.388674 2.261869,4.97948 9.591951,12.61133 12.113281,12.61133 0.59545,0 1.477474,2.09935 1.958984,4.66602 0.87547,4.66667 0.874693,4.66601 10.689454,4.66601 8.99975,0 9.76027,-0.21077 9.15039,-2.54297 -0.65462,-2.50327 -0.0539,-3.28032 8.5625,-11.06836 18.60456,-16.8159 2.7802,-46.814164 -18.43555,-46.482424 z m -0.041,3.75391 a 22.92688,24.515347 0 0 1 22.92774,24.513673 22.92688,24.515347 0 0 1 -12.6582,21.912111 c -1.94738,1.84262 -4.14281,3.24805 -5.16211,3.24805 -1.15452,0 -2.47982,1.19934 -2.94532,2.66601 -1.15453,3.6376 -4.892543,3.35067 -8.666013,-0.66601 -1.72233,-1.83333 -2.578221,-3.3368 -1.90039,-3.3418 0.517689,-0.004 -0.09617,-0.7066 -1.390626,-1.68555 a 22.92688,24.515347 0 0 1 -13.130859,-22.132811 22.92688,24.515347 0 0 1 0.03906,-0.82617 c -0.08937,-0.80809 -0.07501,-1.48324 0.09375,-1.93945 0.01403,-0.0379 0.0272,-0.0647 0.04102,-0.10157 A 22.92688,24.515347 0 0 1 102.71348,74.639356 Z m 5.4961,51.007814 c 0.73333,0 1.33203,0.59869 1.33203,1.33203 0,0.73333 -0.5987,1.33399 -1.33203,1.33399 -0.73334,0 -1.33399,-0.60066 -1.33399,-1.33399 0,-0.73334 0.60065,-1.33203 1.33399,-1.33203 z m -9.262343,21.98365 c 0,-1.049 1.350003,-2.1974 3.000003,-2.55203 1.68402,-0.36192 1.00211,-0.54881 -1.55452,-0.42607 -2.629723,0.12627 -4.789743,-0.48566 -5.111113,-1.44797 -0.4082,-1.22232 1.81323,-1.66667 8.332303,-1.66667 6.52536,0 8.73776,0.44316 8.32051,1.66667 -0.31261,0.91667 -2.01261,1.53196 -3.77778,1.36732 -1.76517,-0.16464 -2.4594,0.0354 -1.54273,0.44445 3.61281,1.6123 1.68254,4.52156 -3,4.52156 -3.15841,0 -4.666673,-0.61642 -4.666673,-1.90726 z m -4,-8.7594 c 0,-0.75214 3.77778,-1.33334 8.666673,-1.33334 4.88889,0 8.66667,0.5812 8.66667,1.33334 0,0.75213 -3.77778,1.33333 -8.66667,1.33333 -4.888893,0 -8.666673,-0.5812 -8.666673,-1.33333 z m 0,-4 c 0,-1.48246 0.39337,-1.55154 10.332953,-1.81468 4.80946,-0.12734 6.99973,0.33617 7,1.48134 2.7e-4,1.16243 -2.62163,1.66667 -8.66628,1.66667 -4.888893,0 -8.666673,-0.5812 -8.666673,-1.33333 z"
      style=";stroke-width:1.23000002;stroke-miterlimit:4;stroke-dasharray:none;stroke-opacity:1" id="path415-7-5" />
   <path
      d="m 190.57754,58.645264 c -0.23464,-0.0281 -0.23464,-0.0281 -0.75954,-1.50717 -0.28866,-0.81347 -0.54176,-1.49374 -0.56242,-1.51172 -0.0206,-0.0179 -0.22173,-0.0963 -0.44686,-0.17429 -0.22509,-0.0779 -0.59816,-0.2343 -0.82902,-0.34752 -0.41972,-0.20595 -0.41972,-0.20595 -1.85145,0.47567 -0.99198,0.47225 -1.45191,0.67058 -1.49751,0.64579 -0.19396,-0.1055 -1.52388,-1.43607 -1.63652,-1.63729 -0.025,-0.0447 0.17455,-0.50769 0.64638,-1.50022 0.68253,-1.43562 0.68253,-1.43562 0.49605,-1.80954 -0.19078,-0.38248 -0.49802,-1.16458 -0.49801,-1.26772 4.4e-4,-0.0364 -0.54411,-0.25016 -1.49718,-0.58781 -1.79137,-0.63459 -1.56912,-0.42873 -1.59184,-1.47741 -0.035,-1.62216 -0.17359,-1.43732 1.53386,-2.04548 0.81527,-0.29036 1.49561,-0.54339 1.51186,-0.56222 0.0162,-0.0188 0.1012,-0.23784 0.18857,-0.48664 0.0875,-0.24881 0.24342,-0.62291 0.34658,-0.83135 0.18757,-0.37897 0.18757,-0.37897 -0.49264,-1.80935 -0.46467,-0.97713 -0.66904,-1.45094 -0.64494,-1.49522 0.10504,-0.19303 1.44469,-1.53232 1.63782,-1.6374 0.0454,-0.0247 0.50662,0.17364 1.4969,0.6441 1.43115,0.67989 1.43115,0.67989 1.80849,0.49287 0.20752,-0.10273 0.58086,-0.2583 0.82969,-0.34575 0.24879,-0.0874 0.46799,-0.17248 0.4871,-0.18898 0.0191,-0.0165 0.27224,-0.69686 0.56256,-1.51187 0.60799,-1.70698 0.42334,-1.56833 2.04469,-1.5334 1.04894,0.0226 0.8435,-0.1977 1.47412,1.58108 0.52698,1.4864 0.52698,1.4864 0.96286,1.63051 0.23971,0.0793 0.62253,0.2371 0.85068,0.35086 0.41481,0.20681 0.41481,0.20681 1.85036,-0.47498 1.21665,-0.57778 1.44901,-0.67457 1.52397,-0.63482 0.11503,0.061 1.54734,1.49315 1.606,1.60578 0.0372,0.0715 -0.0711,0.33001 -0.63728,1.52115 -0.68219,1.43498 -0.68219,1.43498 -0.49533,1.80956 0.14801,0.29673 0.39311,0.90391 0.51849,1.28445 0.0171,0.0518 0.0438,0.0621 1.83248,0.69798 1.36295,0.48465 1.24009,0.32162 1.24008,1.64501 1e-5,1.33242 0.16487,1.1446 -1.53549,1.7491 -0.81409,0.28945 -1.49437,0.54261 -1.51171,0.56261 -0.0173,0.02 -0.0953,0.22056 -0.17314,0.44567 -0.0779,0.22511 -0.23409,0.59778 -0.34711,0.82815 -0.2055,0.41882 -0.2055,0.41882 0.47626,1.85039 0.47903,1.00595 0.67087,1.45143 0.64532,1.49841 -0.10553,0.19409 -1.44489,1.53417 -1.63783,1.63872 -0.0438,0.0238 -0.52433,-0.18357 -1.50023,-0.64751 -1.43562,-0.68254 -1.43562,-0.68254 -1.80954,-0.49605 -0.38066,0.18987 -1.16439,0.49799 -1.26666,0.49799 -0.0352,-10e-5 -0.25835,0.56883 -0.59302,1.51127 -0.29519,0.83121 -0.55494,1.5226 -0.57727,1.53639 -0.0585,0.0362 -1.89991,0.0513 -2.17846,0.0179 z m 1.97411,-5.59136 c 4.30239,-0.76394 6.00308,-6.06512 2.96099,-9.22957 -2.84769,-2.96221 -7.93879,-1.77741 -9.17477,2.13521 -1.25442,3.97089 2.11827,7.82154 6.21378,7.09436 z m -1.53254,-2.68953 c -1.19671,-0.23639 -2.12678,-1.31173 -2.19689,-2.5399 -0.14552,-2.54916 2.88167,-3.9143 4.68377,-2.1122 1.9213,1.92128 0.17979,5.17898 -2.48688,4.6521 z m 16.27042,-3.78228 c -0.2042,-0.0245 -0.2042,-0.0245 -0.66102,-1.31169 -0.25123,-0.70796 -0.4715,-1.29999 -0.48948,-1.31564 -0.0179,-0.0156 -0.19296,-0.0838 -0.38889,-0.1517 -0.1959,-0.0678 -0.52058,-0.20389 -0.72149,-0.30245 -0.36529,-0.1792 -0.36529,-0.1792 -1.61131,0.41398 -0.86331,0.41099 -1.26359,0.5836 -1.30327,0.56202 -0.16881,-0.0918 -1.32623,-1.2498 -1.42426,-1.42491 -0.0217,-0.0389 0.15187,-0.44186 0.56254,-1.30565 0.59401,-1.24941 0.59401,-1.24941 0.43169,-1.57484 -0.16603,-0.33287 -0.43341,-1.01352 -0.43341,-1.10329 0,-0.0318 -0.47353,-0.21771 -1.30299,-0.51156 -1.55902,-0.55229 -1.36567,-0.37284 -1.38537,-1.28578 -0.0305,-1.41176 -0.15108,-1.2509 1.33492,-1.78017 0.70952,-0.25271 1.30162,-0.47291 1.31576,-0.48931 0.0141,-0.0164 0.088,-0.20699 0.16407,-0.42353 0.0761,-0.21654 0.21183,-0.54212 0.30162,-0.72352 0.16326,-0.32981 0.16326,-0.32981 -0.42874,-1.57467 -0.4044,-0.85039 -0.58226,-1.26274 -0.56129,-1.30127 0.0915,-0.16798 1.25731,-1.33358 1.42539,-1.42503 0.0395,-0.0215 0.4409,0.15114 1.30273,0.56057 1.24552,0.59169 1.24552,0.59169 1.57386,0.42917 0.1806,-0.0894 0.50552,-0.22479 0.72207,-0.3009 0.21653,-0.0761 0.4073,-0.15011 0.42393,-0.16447 0.0166,-0.0144 0.23694,-0.60647 0.48959,-1.31577 0.52913,-1.48558 0.36828,-1.36496 1.77948,-1.33451 0.91289,0.0197 0.73409,-0.17206 1.28292,1.376 0.45863,1.29361 0.45863,1.29361 0.83797,1.41903 0.20863,0.069 0.54178,0.20638 0.74034,0.30535 0.36102,0.17995 0.36102,0.17995 1.61036,-0.41337 1.05885,-0.50284 1.26107,-0.58708 1.3263,-0.55248 0.1001,0.0531 1.34664,1.29948 1.3977,1.3975 0.0324,0.0622 -0.0619,0.28721 -0.55463,1.32385 -0.5937,1.24885 -0.5937,1.24885 -0.43111,1.57484 0.12881,0.25824 0.34211,0.78667 0.45123,1.11785 0.0149,0.0451 0.0381,0.054 1.5948,0.60745 1.18618,0.42179 1.07924,0.27994 1.07924,1.43164 0,1.1596 0.14349,0.99614 -1.33633,1.52224 -0.7085,0.2519 -1.30054,0.47223 -1.31563,0.48963 -0.0151,0.0174 -0.0829,0.19196 -0.15067,0.38787 -0.0678,0.19592 -0.20372,0.52024 -0.30208,0.72073 -0.17882,0.36451 -0.17882,0.36451 0.41448,1.6104 0.4169,0.87547 0.58386,1.26317 0.56162,1.30406 -0.0918,0.16892 -1.25749,1.33517 -1.42539,1.42616 -0.0382,0.0207 -0.45633,-0.15973 -1.30565,-0.56353 -1.24941,-0.594 -1.24941,-0.594 -1.57484,-0.43168 -0.33128,0.16524 -1.01336,0.43341 -1.10236,0.43341 -0.0306,0 -0.22484,0.49505 -0.51611,1.31525 -0.25688,0.7234 -0.48295,1.3251 -0.50239,1.3371 -0.0509,0.0315 -1.65348,0.0446 -1.8959,0.0156 z m 1.71806,-4.86614 c 3.74434,-0.66485 5.22444,-5.27844 2.57693,-8.03245 -2.47833,-2.578 -6.90909,-1.54687 -7.98476,1.85826 -1.0917,3.45585 1.84353,6.80706 5.40783,6.17419 z m -1.33377,-2.34068 c -1.04147,-0.20577 -1.85092,-1.1416 -1.91193,-2.21047 -0.12665,-2.21852 2.5079,-3.40659 4.07626,-1.83823 1.67209,1.67208 0.15647,4.50724 -2.16433,4.0487 z m -7.03813,30.04072 c -0.16075,-0.0193 -0.16075,-0.0193 -0.52036,-1.03258 -0.19778,-0.55732 -0.37118,-1.02338 -0.38533,-1.0357 -0.0142,-0.0123 -0.1519,-0.066 -0.30613,-0.11942 -0.15423,-0.0534 -0.40982,-0.1605 -0.56798,-0.23809 -0.28755,-0.14107 -0.28755,-0.14107 -1.26844,0.32589 -0.67963,0.32354 -0.99473,0.45942 -1.02597,0.44243 -0.1329,-0.0723 -1.04404,-0.98386 -1.1212,-1.12171 -0.0171,-0.0306 0.11954,-0.34784 0.44283,-1.02783 0.46761,-0.98356 0.46761,-0.98356 0.33983,-1.23974 -0.1307,-0.26204 -0.34119,-0.79786 -0.34119,-0.86853 0,-0.025 -0.37277,-0.17139 -1.02573,-0.40271 -1.22728,-0.43477 -1.07508,-0.29351 -1.09059,-1.01219 -0.024,-1.11136 -0.11893,-0.98473 1.05088,-1.40138 0.55854,-0.19894 1.02465,-0.37228 1.03579,-0.38519 0.0111,-0.0129 0.0693,-0.16295 0.12916,-0.33341 0.0599,-0.17047 0.16675,-0.42677 0.23744,-0.56957 0.12851,-0.25963 0.12851,-0.25963 -0.33752,-1.23961 -0.31835,-0.66944 -0.45837,-0.99405 -0.44186,-1.02438 0.072,-0.13224 0.98978,-1.04982 1.1221,-1.12181 0.0311,-0.0169 0.34708,0.11898 1.02554,0.44129 0.9805,0.46579 0.9805,0.46579 1.23898,0.33785 0.14216,-0.0704 0.39795,-0.17696 0.56841,-0.23687 0.17047,-0.0599 0.32065,-0.11817 0.33373,-0.12948 0.0131,-0.0113 0.18652,-0.47742 0.38541,-1.03579 0.41655,-1.16948 0.28992,-1.07452 1.40085,-1.05055 0.71863,0.0155 0.57789,-0.13545 1.00993,1.08321 0.36105,1.01835 0.36105,1.01835 0.65965,1.11708 0.16424,0.0543 0.4265,0.16247 0.58282,0.24038 0.2842,0.14166 0.2842,0.14166 1.2677,-0.32541 0.83355,-0.39585 0.99273,-0.46216 1.04409,-0.43492 0.0788,0.0418 1.0601,1.02297 1.10029,1.10013 0.0255,0.049 -0.0487,0.2261 -0.43662,1.04216 -0.46737,0.98312 -0.46737,0.98312 -0.33937,1.23974 0.1014,0.20329 0.26932,0.61928 0.35521,0.87999 0.0117,0.0355 0.03,0.0425 1.25545,0.4782 0.93379,0.33204 0.8496,0.22037 0.8496,1.12701 0,0.91286 0.11296,0.78418 -1.05197,1.19833 -0.55775,0.1983 -1.02382,0.37175 -1.03569,0.38545 -0.0119,0.0137 -0.0652,0.15111 -0.11862,0.30534 -0.0534,0.15423 -0.16037,0.40954 -0.23779,0.56737 -0.14077,0.28695 -0.14077,0.28695 0.32627,1.26773 0.32819,0.68919 0.45963,0.99439 0.44212,1.02658 -0.0723,0.13298 -0.98992,1.05107 -1.12209,1.1227 -0.0301,0.0163 -0.35923,-0.12574 -1.02783,-0.44362 -0.98355,-0.46761 -0.98355,-0.46761 -1.23974,-0.33983 -0.26079,0.13008 -0.79773,0.34119 -0.86779,0.34119 -0.0241,0 -0.177,0.38971 -0.40629,1.03539 -0.20221,0.56947 -0.38019,1.04314 -0.39548,1.05259 -0.0401,0.0248 -1.30165,0.0351 -1.4925,0.0123 z m 1.35249,-3.83071 c 2.9476,-0.52338 4.11277,-4.15528 2.0286,-6.32328 -1.95097,-2.02945 -5.43895,-1.21772 -6.28574,1.46285 -0.85941,2.72051 1.45127,5.35864 4.25714,4.86043 z m -1.04996,-1.84262 c -0.81986,-0.16199 -1.45707,-0.89869 -1.5051,-1.74012 -0.0997,-1.74646 1.97425,-2.68173 3.2089,-1.44709 1.31628,1.31629 0.12318,3.54818 -1.7038,3.18721 z m 0.65371,-44.20178 c -3.47167,0.0543 -7.08751,0.91976 -10.7207,2.78906 -4.53273,2.33212 -11.84494,9.52669 -11.02734,10.84961 0.38142,0.61713 0.11698,1.12305 -0.58789,1.12305 -4.19419,0 -5.3179,15.43076 -1.70313,23.38867 2.26187,4.97948 9.59195,12.61133 12.11328,12.61133 0.59545,0 1.47748,2.09935 1.95899,4.66602 0.87547,4.66667 0.87469,4.66601 10.68945,4.66601 8.99975,0 9.76027,-0.21077 9.15039,-2.54297 -0.65462,-2.50327 -0.0539,-3.28032 8.5625,-11.06836 18.60456,-16.8159 2.7802,-46.81416 -18.43555,-46.48242 z m -0.041,3.75391 a 22.92688,24.515347 0 0 1 22.92774,24.51367 22.92688,24.515347 0 0 1 -12.6582,21.91211 c -1.94738,1.84262 -4.14281,3.24805 -5.16211,3.24805 -1.15452,0 -2.47982,1.19934 -2.94532,2.66601 -1.15453,3.6376 -4.89254,3.35067 -8.66601,-0.66601 -1.72233,-1.83333 -2.57822,-3.3368 -1.90039,-3.3418 0.51769,-0.004 -0.0962,-0.7066 -1.39063,-1.68555 a 22.92688,24.515347 0 0 1 -13.13086,-22.13281 22.92688,24.515347 0 0 1 0.0391,-0.82617 c -0.0894,-0.80809 -0.075,-1.48324 0.0937,-1.93945 0.014,-0.0379 0.0272,-0.0647 0.041,-0.10157 a 22.92688,24.515347 0 0 1 22.75196,-21.64648 z m 5.4961,51.00781 c 0.73333,0 1.33203,0.59869 1.33203,1.33203 0,0.73333 -0.5987,1.33399 -1.33203,1.33399 -0.73334,0 -1.33399,-0.60066 -1.33399,-1.33399 0,-0.73334 0.60065,-1.33203 1.33399,-1.33203 z m -9.26234,21.98365 c 0,-1.049 1.35,-2.1974 3,-2.55203 1.68402,-0.36192 1.00211,-0.54881 -1.55452,-0.42607 -2.62972,0.12627 -4.78974,-0.48566 -5.11111,-1.44797 -0.4082,-1.22232 1.81323,-1.66667 8.3323,-1.66667 6.52536,0 8.73776,0.44316 8.32051,1.66667 -0.31261,0.91667 -2.01261,1.53196 -3.77778,1.36732 -1.76517,-0.16464 -2.4594,0.0354 -1.54273,0.44445 3.61281,1.6123 1.68254,4.52156 -3,4.52156 -3.15841,0 -4.66667,-0.61642 -4.66667,-1.90726 z m -4,-8.7594 c 0,-0.75214 3.77778,-1.33334 8.66667,-1.33334 4.88889,0 8.66667,0.5812 8.66667,1.33334 0,0.75213 -3.77778,1.33333 -8.66667,1.33333 -4.88889,0 -8.66667,-0.5812 -8.66667,-1.33333 z m 0,-4 c 0,-1.48246 0.39337,-1.55154 10.33295,-1.81468 4.80946,-0.12734 6.99973,0.33617 7,1.48134 2.7e-4,1.16243 -2.62163,1.66667 -8.66628,1.66667 -4.88889,0 -8.66667,-0.5812 -8.66667,-1.33333 z"
      style=";stroke-width:1.23000002;stroke-miterlimit:4;stroke-dasharray:none;stroke-opacity:1" id="path415-7-5-3" />
</svg>