<svg width="512" height="512" viewBox="0 0 512 512" fill="none" xmlns="http://www.w3.org/2000/svg">
<path d="M496.995 0H438.998C397.643 0 363.999 33.6449 363.999 74.9997V174.002C363.999 210.657 336.466 241.002 300.996 245.442V45.0018C300.996 36.7309 307.725 30.0019 315.996 30.0019H328.996C337.28 30.0019 343.996 23.2859 343.996 15.0019C343.996 6.71797 337.28 0.00199999 328.996 0.00199999H182.996C174.712 0.00199999 167.996 6.71797 167.996 15.0019C167.996 23.2859 174.712 30.0019 182.996 30.0019H195.996C204.267 30.0019 210.996 36.7309 210.996 45.0018V245.441C175.529 240.997 148.001 210.654 148.001 174.002V74.9997C148.001 33.6449 114.357 0 73.0017 0H15.0049C6.72097 0 0.00499725 6.71597 0.00499725 14.9999V74.9997C0.00499725 83.2807 6.71497 89.9946 14.9959 89.9996L58.0008 90.0247V174.002C58.0008 260.308 125.839 331.067 210.995 335.754V467C210.995 475.271 204.266 482 195.995 482H182.995C174.711 482 167.995 488.716 167.995 497C167.995 505.284 174.711 512 182.995 512H328.995C337.279 512 343.995 505.284 343.995 497C343.995 488.716 337.279 482 328.995 482H315.995C307.724 482 300.995 475.271 300.995 467V335.755C386.151 331.068 453.998 260.309 453.998 174.008L454.028 89.9996H496.995C505.279 89.9996 511.995 83.2837 511.995 74.9997V14.9999C511.995 6.71597 505.279 0 496.995 0V0Z" fill="#d6e0f0"/>
</svg>
