<svg width="618" height="442" viewBox="0 0 618 442" fill="none" xmlns="http://www.w3.org/2000/svg">
<g id="examination">
<g id="Frame" clip-path="url(#clip0)">
<g id="path177">
<mask id="path-1-outside-1" maskUnits="userSpaceOnUse" x="-9.97418" y="5.67371" width="630" height="439" fill="black">
<rect fill="white" x="-9.97418" y="5.67371" width="630" height="439"/>
<path d="M387.683 7.67501C347.951 7.81924 315.579 20.7637 293.294 45.4165C276.546 63.9438 265.562 94.2218 265.475 122.112L265.436 134.505L256.717 129.363C220.492 108.002 162.211 105.761 125.787 124.333C111.555 131.589 92.6261 149.284 86.7338 160.839C81.5191 171.065 70.8971 217.758 70.8946 230.464C70.8935 235.902 67.2657 243.096 59.5726 252.918C45.507 270.876 44.0624 274.624 48.6704 281.199C52.1417 286.152 67.0334 291.462 64.086 286.695C63.3214 285.459 61.1779 284.448 59.3185 284.448C57.459 284.448 53.9897 282.3 51.6126 279.675C47.5504 275.189 48.1077 273.84 60.8434 257.263C72.2875 242.368 74.4801 237.699 74.9497 227.223C75.7757 208.797 83.2474 175.44 89.1291 163.918C96.385 149.703 118.555 130.659 135.022 124.502C167.413 112.39 196.809 111.551 229.945 121.789C253.489 129.063 264.693 137.71 267.966 151.136C271.83 166.986 285.084 192.55 296.113 205.427C305.432 216.308 305.529 216.668 304.216 235.337C301.798 269.697 288.586 296.762 265.729 314.184C248.909 327.003 245.97 335.611 247.625 367.228C249.147 396.313 255.326 409.484 272.907 421.123C285.525 429.476 285.466 429.618 266.753 435.129C263.861 435.98 266.226 435.966 272.01 435.102C287.236 432.826 293.246 433.162 316.701 437.588C331.395 440.361 381.073 441.253 618 441.622V436.788C279.961 436.54 286.001 434.654 306.938 420.153C328.796 405.014 333.852 382.883 334.639 298.9C335.087 251.081 334.842 248.479 328.905 237.153C325.495 230.65 319.304 221.743 315.145 217.363C310.155 212.107 306.701 204.748 304.99 195.732C301.583 177.779 294.809 164.952 280.108 148.611C266.478 133.46 265.96 130.388 271.84 99.6733C280.158 56.223 304.746 29.6882 349.03 16.3733C374.291 8.77801 413.928 9.88973 436.983 18.8404C477.142 34.4311 492.403 58.9628 498.43 117.605C499.808 131.013 501.994 136.064 513.048 151.394C520.197 161.307 525.452 170.962 524.729 172.847C524.005 174.732 520.083 177.863 516.014 179.806C511.099 182.153 508.471 185.535 508.185 189.882C507.776 196.083 507.821 196.107 509.051 190.305C509.854 186.519 513.285 183.161 518.043 181.503C530.05 177.32 530.708 168.382 519.988 155.015C505.992 137.563 501.465 129.3 502.897 123.825C504.828 116.443 494.786 70.018 488.664 58.0252C472.137 25.6479 435.738 7.50051 387.683 7.67495L387.683 7.67501ZM269.907 143.877L275.899 149.135C284.574 156.741 292.868 170.755 298.158 186.745C300.699 194.426 302.231 201.257 301.562 201.925C298.081 205.404 275.208 166.956 271.717 151.759L269.907 143.877ZM506.629 202.064C505.995 201.985 505.206 202.094 504.233 202.348C498.786 203.772 498.173 205.96 502.119 209.904C503.974 211.758 503.569 215.022 500.825 220.284C498.624 224.505 497.004 232.974 497.228 239.105C498.045 261.465 486.362 265.32 450.585 254.496C406.443 241.142 392.589 232.267 389.928 215.631C388.379 205.954 383.739 201.469 383.739 209.65C383.739 217.625 391.077 230.969 399.232 237.827C406.117 243.617 445.576 258.48 469.181 264.176C477.772 266.249 478.187 266.208 487.458 262.336C498.923 257.549 502.9 249.998 500.729 237.153C499.38 229.175 500.08 225.979 504.037 222.024C506.797 219.265 509.055 213.427 509.055 209.049C509.055 204.23 508.531 202.299 506.629 202.064ZM311.017 217.59C313.425 217.74 317.134 223.12 322.335 233.743C331.229 251.913 333.063 282.629 328.851 342.93C325.267 394.22 319.63 409.295 299.448 421.562C289.822 427.412 289.9 427.418 278.583 419.945C266.012 411.644 260.319 404.823 256.101 393.003C251.741 380.785 251.176 341.449 255.246 333.539C256.871 330.383 265.148 320.965 273.639 312.609C296.651 289.965 307.501 264.4 307.501 232.819C307.501 222.52 308.608 217.439 311.017 217.59ZM65.2721 292.33C62.0433 292.33 62.4574 307.444 65.7419 309.473C67.2466 310.402 67.8117 313.262 66.9973 315.827C66.1789 318.404 67.3075 321.975 69.5197 323.809C72.2037 326.036 73.5248 331.825 73.5248 341.379C73.5248 353.004 74.7105 356.817 79.9752 362.078C84.6551 366.755 89.2915 368.525 96.8465 368.525C108.808 368.525 159.917 352.224 173.07 344.212C181.774 338.91 189.336 325.905 189.055 316.72C188.976 314.145 186.881 317.331 184.399 323.806C181.07 332.489 177.143 337.142 169.426 341.541C155.944 349.226 104.857 365.9 94.7939 365.9C83.5239 365.9 75.3556 354.75 77.4682 342.253C78.7066 334.927 77.7892 331.189 73.3746 325.58C68.0612 318.829 67.9703 318.032 72.0229 313.556C76.0891 309.065 76.0036 308.667 70.6635 307.271C66.1972 306.104 65.242 304.329 66.2502 299.058C66.9578 295.358 66.5175 292.33 65.2721 292.33ZM66.7085 437.119C15.8144 437.207 -7.97418 437.933 -7.97418 439.347C-7.97418 442.557 233.891 443.014 250.979 439.836C256.763 438.76 200.865 437.591 126.761 437.238C103.65 437.128 83.6732 437.089 66.7085 437.119V437.119Z"/>
</mask>
<path d="M387.683 7.67501C347.951 7.81924 315.579 20.7637 293.294 45.4165C276.546 63.9438 265.562 94.2218 265.475 122.112L265.436 134.505L256.717 129.363C220.492 108.002 162.211 105.761 125.787 124.333C111.555 131.589 92.6261 149.284 86.7338 160.839C81.5191 171.065 70.8971 217.758 70.8946 230.464C70.8935 235.902 67.2657 243.096 59.5726 252.918C45.507 270.876 44.0624 274.624 48.6704 281.199C52.1417 286.152 67.0334 291.462 64.086 286.695C63.3214 285.459 61.1779 284.448 59.3185 284.448C57.459 284.448 53.9897 282.3 51.6126 279.675C47.5504 275.189 48.1077 273.84 60.8434 257.263C72.2875 242.368 74.4801 237.699 74.9497 227.223C75.7757 208.797 83.2474 175.44 89.1291 163.918C96.385 149.703 118.555 130.659 135.022 124.502C167.413 112.39 196.809 111.551 229.945 121.789C253.489 129.063 264.693 137.71 267.966 151.136C271.83 166.986 285.084 192.55 296.113 205.427C305.432 216.308 305.529 216.668 304.216 235.337C301.798 269.697 288.586 296.762 265.729 314.184C248.909 327.003 245.97 335.611 247.625 367.228C249.147 396.313 255.326 409.484 272.907 421.123C285.525 429.476 285.466 429.618 266.753 435.129C263.861 435.98 266.226 435.966 272.01 435.102C287.236 432.826 293.246 433.162 316.701 437.588C331.395 440.361 381.073 441.253 618 441.622V436.788C279.961 436.54 286.001 434.654 306.938 420.153C328.796 405.014 333.852 382.883 334.639 298.9C335.087 251.081 334.842 248.479 328.905 237.153C325.495 230.65 319.304 221.743 315.145 217.363C310.155 212.107 306.701 204.748 304.99 195.732C301.583 177.779 294.809 164.952 280.108 148.611C266.478 133.46 265.96 130.388 271.84 99.6733C280.158 56.223 304.746 29.6882 349.03 16.3733C374.291 8.77801 413.928 9.88973 436.983 18.8404C477.142 34.4311 492.403 58.9628 498.43 117.605C499.808 131.013 501.994 136.064 513.048 151.394C520.197 161.307 525.452 170.962 524.729 172.847C524.005 174.732 520.083 177.863 516.014 179.806C511.099 182.153 508.471 185.535 508.185 189.882C507.776 196.083 507.821 196.107 509.051 190.305C509.854 186.519 513.285 183.161 518.043 181.503C530.05 177.32 530.708 168.382 519.988 155.015C505.992 137.563 501.465 129.3 502.897 123.825C504.828 116.443 494.786 70.018 488.664 58.0252C472.137 25.6479 435.738 7.50051 387.683 7.67495L387.683 7.67501ZM269.907 143.877L275.899 149.135C284.574 156.741 292.868 170.755 298.158 186.745C300.699 194.426 302.231 201.257 301.562 201.925C298.081 205.404 275.208 166.956 271.717 151.759L269.907 143.877ZM506.629 202.064C505.995 201.985 505.206 202.094 504.233 202.348C498.786 203.772 498.173 205.96 502.119 209.904C503.974 211.758 503.569 215.022 500.825 220.284C498.624 224.505 497.004 232.974 497.228 239.105C498.045 261.465 486.362 265.32 450.585 254.496C406.443 241.142 392.589 232.267 389.928 215.631C388.379 205.954 383.739 201.469 383.739 209.65C383.739 217.625 391.077 230.969 399.232 237.827C406.117 243.617 445.576 258.48 469.181 264.176C477.772 266.249 478.187 266.208 487.458 262.336C498.923 257.549 502.9 249.998 500.729 237.153C499.38 229.175 500.08 225.979 504.037 222.024C506.797 219.265 509.055 213.427 509.055 209.049C509.055 204.23 508.531 202.299 506.629 202.064ZM311.017 217.59C313.425 217.74 317.134 223.12 322.335 233.743C331.229 251.913 333.063 282.629 328.851 342.93C325.267 394.22 319.63 409.295 299.448 421.562C289.822 427.412 289.9 427.418 278.583 419.945C266.012 411.644 260.319 404.823 256.101 393.003C251.741 380.785 251.176 341.449 255.246 333.539C256.871 330.383 265.148 320.965 273.639 312.609C296.651 289.965 307.501 264.4 307.501 232.819C307.501 222.52 308.608 217.439 311.017 217.59ZM65.2721 292.33C62.0433 292.33 62.4574 307.444 65.7419 309.473C67.2466 310.402 67.8117 313.262 66.9973 315.827C66.1789 318.404 67.3075 321.975 69.5197 323.809C72.2037 326.036 73.5248 331.825 73.5248 341.379C73.5248 353.004 74.7105 356.817 79.9752 362.078C84.6551 366.755 89.2915 368.525 96.8465 368.525C108.808 368.525 159.917 352.224 173.07 344.212C181.774 338.91 189.336 325.905 189.055 316.72C188.976 314.145 186.881 317.331 184.399 323.806C181.07 332.489 177.143 337.142 169.426 341.541C155.944 349.226 104.857 365.9 94.7939 365.9C83.5239 365.9 75.3556 354.75 77.4682 342.253C78.7066 334.927 77.7892 331.189 73.3746 325.58C68.0612 318.829 67.9703 318.032 72.0229 313.556C76.0891 309.065 76.0036 308.667 70.6635 307.271C66.1972 306.104 65.242 304.329 66.2502 299.058C66.9578 295.358 66.5175 292.33 65.2721 292.33ZM66.7085 437.119C15.8144 437.207 -7.97418 437.933 -7.97418 439.347C-7.97418 442.557 233.891 443.014 250.979 439.836C256.763 438.76 200.865 437.591 126.761 437.238C103.65 437.128 83.6732 437.089 66.7085 437.119V437.119Z" fill="#143D42"/>
<path d="M387.683 7.67501C347.951 7.81924 315.579 20.7637 293.294 45.4165C276.546 63.9438 265.562 94.2218 265.475 122.112L265.436 134.505L256.717 129.363C220.492 108.002 162.211 105.761 125.787 124.333C111.555 131.589 92.6261 149.284 86.7338 160.839C81.5191 171.065 70.8971 217.758 70.8946 230.464C70.8935 235.902 67.2657 243.096 59.5726 252.918C45.507 270.876 44.0624 274.624 48.6704 281.199C52.1417 286.152 67.0334 291.462 64.086 286.695C63.3214 285.459 61.1779 284.448 59.3185 284.448C57.459 284.448 53.9897 282.3 51.6126 279.675C47.5504 275.189 48.1077 273.84 60.8434 257.263C72.2875 242.368 74.4801 237.699 74.9497 227.223C75.7757 208.797 83.2474 175.44 89.1291 163.918C96.385 149.703 118.555 130.659 135.022 124.502C167.413 112.39 196.809 111.551 229.945 121.789C253.489 129.063 264.693 137.71 267.966 151.136C271.83 166.986 285.084 192.55 296.113 205.427C305.432 216.308 305.529 216.668 304.216 235.337C301.798 269.697 288.586 296.762 265.729 314.184C248.909 327.003 245.97 335.611 247.625 367.228C249.147 396.313 255.326 409.484 272.907 421.123C285.525 429.476 285.466 429.618 266.753 435.129C263.861 435.98 266.226 435.966 272.01 435.102C287.236 432.826 293.246 433.162 316.701 437.588C331.395 440.361 381.073 441.253 618 441.622V436.788C279.961 436.54 286.001 434.654 306.938 420.153C328.796 405.014 333.852 382.883 334.639 298.9C335.087 251.081 334.842 248.479 328.905 237.153C325.495 230.65 319.304 221.743 315.145 217.363C310.155 212.107 306.701 204.748 304.99 195.732C301.583 177.779 294.809 164.952 280.108 148.611C266.478 133.46 265.96 130.388 271.84 99.6733C280.158 56.223 304.746 29.6882 349.03 16.3733C374.291 8.77801 413.928 9.88973 436.983 18.8404C477.142 34.4311 492.403 58.9628 498.43 117.605C499.808 131.013 501.994 136.064 513.048 151.394C520.197 161.307 525.452 170.962 524.729 172.847C524.005 174.732 520.083 177.863 516.014 179.806C511.099 182.153 508.471 185.535 508.185 189.882C507.776 196.083 507.821 196.107 509.051 190.305C509.854 186.519 513.285 183.161 518.043 181.503C530.05 177.32 530.708 168.382 519.988 155.015C505.992 137.563 501.465 129.3 502.897 123.825C504.828 116.443 494.786 70.018 488.664 58.0252C472.137 25.6479 435.738 7.50051 387.683 7.67495L387.683 7.67501ZM269.907 143.877L275.899 149.135C284.574 156.741 292.868 170.755 298.158 186.745C300.699 194.426 302.231 201.257 301.562 201.925C298.081 205.404 275.208 166.956 271.717 151.759L269.907 143.877ZM506.629 202.064C505.995 201.985 505.206 202.094 504.233 202.348C498.786 203.772 498.173 205.96 502.119 209.904C503.974 211.758 503.569 215.022 500.825 220.284C498.624 224.505 497.004 232.974 497.228 239.105C498.045 261.465 486.362 265.32 450.585 254.496C406.443 241.142 392.589 232.267 389.928 215.631C388.379 205.954 383.739 201.469 383.739 209.65C383.739 217.625 391.077 230.969 399.232 237.827C406.117 243.617 445.576 258.48 469.181 264.176C477.772 266.249 478.187 266.208 487.458 262.336C498.923 257.549 502.9 249.998 500.729 237.153C499.38 229.175 500.08 225.979 504.037 222.024C506.797 219.265 509.055 213.427 509.055 209.049C509.055 204.23 508.531 202.299 506.629 202.064ZM311.017 217.59C313.425 217.74 317.134 223.12 322.335 233.743C331.229 251.913 333.063 282.629 328.851 342.93C325.267 394.22 319.63 409.295 299.448 421.562C289.822 427.412 289.9 427.418 278.583 419.945C266.012 411.644 260.319 404.823 256.101 393.003C251.741 380.785 251.176 341.449 255.246 333.539C256.871 330.383 265.148 320.965 273.639 312.609C296.651 289.965 307.501 264.4 307.501 232.819C307.501 222.52 308.608 217.439 311.017 217.59ZM65.2721 292.33C62.0433 292.33 62.4574 307.444 65.7419 309.473C67.2466 310.402 67.8117 313.262 66.9973 315.827C66.1789 318.404 67.3075 321.975 69.5197 323.809C72.2037 326.036 73.5248 331.825 73.5248 341.379C73.5248 353.004 74.7105 356.817 79.9752 362.078C84.6551 366.755 89.2915 368.525 96.8465 368.525C108.808 368.525 159.917 352.224 173.07 344.212C181.774 338.91 189.336 325.905 189.055 316.72C188.976 314.145 186.881 317.331 184.399 323.806C181.07 332.489 177.143 337.142 169.426 341.541C155.944 349.226 104.857 365.9 94.7939 365.9C83.5239 365.9 75.3556 354.75 77.4682 342.253C78.7066 334.927 77.7892 331.189 73.3746 325.58C68.0612 318.829 67.9703 318.032 72.0229 313.556C76.0891 309.065 76.0036 308.667 70.6635 307.271C66.1972 306.104 65.242 304.329 66.2502 299.058C66.9578 295.358 66.5175 292.33 65.2721 292.33ZM66.7085 437.119C15.8144 437.207 -7.97418 437.933 -7.97418 439.347C-7.97418 442.557 233.891 443.014 250.979 439.836C256.763 438.76 200.865 437.591 126.761 437.238C103.65 437.128 83.6732 437.089 66.7085 437.119V437.119Z" stroke="#143D42" stroke-width="4" mask="url(#path-1-outside-1)"/>
</g>
<path id="path415 7 5" d="M164.4 235.231C163.937 235.175 163.937 235.175 162.902 232.26C162.333 230.657 161.834 229.317 161.793 229.282C161.752 229.246 161.356 229.092 160.912 228.938C160.468 228.785 159.733 228.476 159.277 228.253C158.45 227.847 158.45 227.847 155.627 229.191C153.671 230.121 152.764 230.512 152.674 230.463C152.292 230.255 149.669 227.633 149.447 227.237C149.398 227.149 149.792 226.236 150.722 224.28C152.068 221.451 152.068 221.451 151.7 220.715C151.324 219.961 150.718 218.42 150.718 218.216C150.719 218.145 149.645 217.723 147.766 217.058C144.234 215.808 144.672 216.213 144.627 214.147C144.558 210.95 144.285 211.314 147.652 210.116C149.259 209.544 150.601 209.045 150.633 209.008C150.665 208.971 150.832 208.539 151.004 208.049C151.177 207.559 151.484 206.821 151.688 206.411C152.058 205.664 152.058 205.664 150.716 202.845C149.8 200.92 149.397 199.986 149.445 199.899C149.652 199.518 152.293 196.879 152.674 196.672C152.764 196.623 153.673 197.014 155.626 197.941C158.447 199.281 158.447 199.281 159.191 198.913C159.601 198.71 160.337 198.404 160.827 198.231C161.318 198.059 161.75 197.891 161.788 197.859C161.825 197.826 162.324 196.486 162.897 194.88C164.096 191.516 163.732 191.789 166.928 191.858C168.997 191.902 168.592 191.468 169.835 194.974C170.874 197.903 170.874 197.903 171.734 198.187C172.206 198.343 172.961 198.654 173.411 198.878C174.229 199.286 174.229 199.286 177.059 197.942C179.458 196.803 179.916 196.613 180.064 196.691C180.291 196.811 183.115 199.633 183.231 199.855C183.304 199.996 183.09 200.506 181.974 202.853C180.629 205.681 180.629 205.681 180.997 206.419C181.289 207.004 181.773 208.2 182.02 208.95C182.053 209.052 182.106 209.072 185.633 210.325C188.32 211.28 188.078 210.959 188.078 213.567C188.078 216.193 188.403 215.823 185.05 217.014C183.445 217.584 182.104 218.083 182.07 218.123C182.036 218.162 181.882 218.557 181.728 219.001C181.575 219.444 181.267 220.179 181.044 220.633C180.639 221.458 180.639 221.458 181.983 224.279C182.928 226.261 183.306 227.139 183.255 227.232C183.047 227.614 180.406 230.255 180.026 230.461C179.94 230.508 178.992 230.099 177.068 229.185C174.237 227.84 174.237 227.84 173.5 228.208C172.75 228.582 171.204 229.189 171.003 229.189C170.933 229.189 170.493 230.31 169.833 232.167C169.251 233.805 168.739 235.167 168.695 235.195C168.58 235.266 164.949 235.296 164.4 235.23L164.4 235.231ZM168.292 224.212C176.775 222.707 180.128 212.26 174.13 206.024C168.515 200.187 158.477 202.522 156.04 210.232C153.567 218.057 160.217 225.645 168.292 224.212ZM165.27 218.912C162.911 218.446 161.077 216.327 160.939 213.907C160.652 208.884 166.62 206.194 170.174 209.745C173.962 213.531 170.528 219.951 165.27 218.912ZM197.351 211.459C196.948 211.411 196.948 211.411 196.048 208.874C195.552 207.479 195.118 206.312 195.082 206.281C195.047 206.251 194.702 206.116 194.316 205.983C193.929 205.849 193.289 205.581 192.893 205.387C192.173 205.033 192.173 205.033 189.716 206.202C188.014 207.012 187.225 207.352 187.146 207.31C186.813 207.129 184.531 204.847 184.338 204.502C184.295 204.425 184.637 203.631 185.447 201.929C186.618 199.467 186.618 199.467 186.298 198.826C185.971 198.17 185.444 196.828 185.444 196.651C185.444 196.589 184.51 196.222 182.875 195.643C179.801 194.555 180.182 194.909 180.143 193.11C180.083 190.328 179.845 190.645 182.775 189.602C184.174 189.104 185.342 188.67 185.37 188.637C185.397 188.605 185.543 188.23 185.693 187.803C185.843 187.376 186.111 186.735 186.288 186.377C186.61 185.727 186.61 185.727 185.442 183.274C184.645 181.598 184.294 180.786 184.336 180.71C184.516 180.379 186.815 178.082 187.146 177.902C187.224 177.859 188.015 178.199 189.715 179.006C192.171 180.172 192.171 180.172 192.818 179.852C193.174 179.676 193.815 179.409 194.242 179.259C194.669 179.109 195.045 178.963 195.078 178.935C195.11 178.907 195.545 177.74 196.043 176.342C197.086 173.415 196.769 173.652 199.552 173.712C201.351 173.751 200.999 173.373 202.081 176.424C202.985 178.973 202.985 178.973 203.733 179.22C204.145 179.356 204.802 179.627 205.193 179.822C205.905 180.176 205.905 180.176 208.368 179.007C210.456 178.016 210.855 177.85 210.983 177.919C211.181 178.023 213.639 180.479 213.739 180.672C213.803 180.795 213.617 181.238 212.646 183.281C211.475 185.742 211.475 185.742 211.796 186.385C212.05 186.894 212.47 187.935 212.685 188.587C212.715 188.676 212.76 188.694 215.83 189.784C218.169 190.616 217.958 190.336 217.958 192.606C217.958 194.891 218.241 194.569 215.323 195.605C213.926 196.102 212.759 196.536 212.729 196.57C212.699 196.605 212.565 196.949 212.432 197.335C212.298 197.721 212.03 198.36 211.836 198.755C211.484 199.473 211.484 199.473 212.653 201.928C213.475 203.654 213.805 204.418 213.761 204.498C213.58 204.831 211.281 207.129 210.95 207.308C210.875 207.349 210.051 206.994 208.376 206.198C205.912 205.027 205.912 205.027 205.271 205.347C204.618 205.673 203.273 206.201 203.097 206.201C203.037 206.201 202.654 207.177 202.08 208.793C201.573 210.219 201.127 211.404 201.089 211.428C200.989 211.49 197.829 211.516 197.351 211.459V211.459ZM200.738 201.87C208.121 200.56 211.039 191.468 205.819 186.041C200.933 180.961 192.197 182.993 190.076 189.703C187.923 196.513 193.711 203.117 200.738 201.87ZM198.109 197.257C196.055 196.852 194.459 195.008 194.339 192.901C194.089 188.529 199.284 186.188 202.376 189.279C205.673 192.574 202.685 198.161 198.109 197.257ZM184.231 256.455C183.914 256.417 183.914 256.417 183.205 254.42C182.815 253.322 182.473 252.404 182.446 252.38C182.418 252.355 182.146 252.249 181.842 252.144C181.538 252.039 181.034 251.828 180.722 251.675C180.155 251.397 180.155 251.397 178.221 252.317C176.881 252.955 176.26 253.223 176.198 253.189C175.936 253.047 174.14 251.25 173.987 250.979C173.954 250.918 174.223 250.293 174.861 248.953C175.783 247.015 175.783 247.015 175.531 246.51C175.273 245.994 174.858 244.938 174.858 244.799C174.858 244.749 174.123 244.461 172.835 244.005C170.416 243.148 170.716 243.427 170.685 242.01C170.638 239.82 170.451 240.07 172.757 239.249C173.858 238.857 174.777 238.515 174.799 238.49C174.821 238.464 174.936 238.169 175.054 237.833C175.172 237.497 175.383 236.992 175.522 236.71C175.776 236.199 175.776 236.199 174.857 234.268C174.229 232.948 173.953 232.309 173.986 232.249C174.128 231.988 175.937 230.18 176.198 230.038C176.259 230.005 176.882 230.273 178.22 230.908C180.153 231.826 180.153 231.826 180.663 231.574C180.943 231.435 181.448 231.225 181.784 231.107C182.12 230.989 182.416 230.874 182.442 230.852C182.468 230.83 182.81 229.911 183.202 228.811C184.023 226.506 183.773 226.693 185.964 226.741C187.381 226.771 187.103 226.474 187.955 228.875C188.667 230.882 188.667 230.882 189.256 231.076C189.58 231.183 190.097 231.397 190.405 231.55C190.965 231.829 190.965 231.829 192.904 230.909C194.548 230.129 194.862 229.998 194.963 230.052C195.118 230.134 197.053 232.068 197.133 232.22C197.183 232.316 197.037 232.665 196.272 234.273C195.35 236.211 195.35 236.211 195.603 236.716C195.802 237.117 196.134 237.937 196.303 238.45C196.326 238.52 196.362 238.534 198.778 239.393C200.619 240.047 200.453 239.827 200.453 241.614C200.453 243.413 200.676 243.159 198.379 243.975C197.28 244.366 196.361 244.708 196.337 244.735C196.314 244.762 196.209 245.032 196.103 245.336C195.998 245.64 195.787 246.143 195.634 246.454C195.357 247.02 195.357 247.02 196.278 248.953C196.925 250.311 197.184 250.912 197.149 250.976C197.007 251.238 195.198 253.047 194.937 253.188C194.878 253.22 194.229 252.94 192.91 252.314C190.971 251.392 190.971 251.392 190.466 251.644C189.952 251.9 188.893 252.316 188.755 252.316C188.707 252.316 188.406 253.084 187.954 254.357C187.555 255.479 187.204 256.412 187.174 256.431C187.095 256.48 184.608 256.5 184.231 256.455V256.455ZM186.898 248.906C192.71 247.875 195.007 240.718 190.898 236.446C187.051 232.447 180.174 234.046 178.504 239.329C176.81 244.69 181.366 249.888 186.898 248.906ZM184.828 245.275C183.211 244.956 181.955 243.504 181.86 241.846C181.664 238.405 185.753 236.562 188.187 238.995C190.783 241.589 188.43 245.987 184.828 245.275ZM186.117 158.172C179.272 158.279 172.142 159.984 164.979 163.668C156.041 168.263 141.624 182.441 143.236 185.048C143.988 186.264 143.466 187.261 142.077 187.261C133.807 187.261 131.591 217.669 138.719 233.351C143.178 243.163 157.631 258.202 162.603 258.202C163.777 258.202 165.516 262.339 166.465 267.397C168.191 276.593 168.19 276.592 187.542 276.592C205.287 276.592 206.786 276.177 205.584 271.581C204.293 266.648 205.477 265.117 222.466 249.77C259.149 216.632 227.948 157.518 186.117 158.172ZM186.036 165.569C198.025 165.569 209.523 170.658 218.001 179.717C226.479 188.776 231.242 201.063 231.243 213.876C231.241 222.839 228.905 231.625 224.497 239.25C220.09 246.876 213.784 253.041 206.285 257.055C202.445 260.687 198.116 263.456 196.106 263.456C193.83 263.456 191.217 265.819 190.299 268.71C188.023 275.878 180.652 275.313 173.212 267.397C169.816 263.785 168.129 260.822 169.465 260.812C170.486 260.804 169.275 259.42 166.723 257.49C158.988 253.584 152.449 247.412 147.866 239.691C143.283 231.971 140.844 223.019 140.833 213.876C140.85 213.332 140.876 212.79 140.91 212.248C140.734 210.655 140.762 209.325 141.095 208.426C141.122 208.351 141.148 208.298 141.175 208.225C142.471 196.479 147.753 185.649 156.021 177.787C164.289 169.925 174.969 165.578 186.036 165.569H186.036ZM196.873 266.085C198.319 266.085 199.499 267.265 199.499 268.71C199.499 270.155 198.319 271.338 196.873 271.338C195.427 271.338 194.242 270.155 194.242 268.71C194.242 267.265 195.427 266.085 196.873 266.085ZM178.61 309.406C178.61 307.339 181.272 305.076 184.525 304.377C187.846 303.663 186.501 303.295 181.46 303.537C176.275 303.786 172.016 302.58 171.382 300.684C170.578 298.275 174.958 297.399 187.811 297.399C200.678 297.399 205.04 298.273 204.217 300.684C203.601 302.49 200.249 303.703 196.768 303.378C193.288 303.054 191.919 303.448 193.726 304.254C200.85 307.431 197.044 313.164 187.811 313.164C181.584 313.164 178.61 311.949 178.61 309.406ZM170.723 292.144C170.723 290.662 178.172 289.517 187.811 289.517C197.451 289.517 204.9 290.662 204.9 292.144C204.9 293.627 197.451 294.772 187.811 294.772C178.172 294.772 170.723 293.627 170.723 292.144ZM170.723 284.262C170.723 281.341 171.499 281.205 191.097 280.686C200.58 280.435 204.898 281.349 204.899 283.605C204.899 285.896 199.73 286.89 187.811 286.89C178.172 286.89 170.723 285.744 170.723 284.262Z" fill="#143D42"/>
<path id="path415 7 5 3" d="M360.89 121.171C360.427 121.116 360.427 121.116 359.392 118.201C358.823 116.598 358.324 115.258 358.283 115.222C358.243 115.187 357.846 115.033 357.402 114.879C356.958 114.725 356.223 114.417 355.768 114.194C354.94 113.788 354.94 113.788 352.117 115.132C350.161 116.062 349.254 116.453 349.164 116.404C348.782 116.196 346.16 113.574 345.938 113.178C345.888 113.09 346.282 112.177 347.212 110.221C348.558 107.392 348.558 107.392 348.19 106.655C347.814 105.902 347.208 104.361 347.208 104.157C347.209 104.086 346.135 103.664 344.256 102.999C340.724 101.748 341.162 102.154 341.118 100.088C341.049 96.891 340.775 97.2552 344.142 96.0568C345.749 95.4846 347.091 94.986 347.123 94.9489C347.155 94.9118 347.322 94.4802 347.495 93.9899C347.667 93.4996 347.975 92.7624 348.178 92.3516C348.548 91.6048 348.548 91.6048 347.207 88.7861C346.291 86.8606 345.888 85.9269 345.935 85.8397C346.142 85.4593 348.784 82.8201 349.164 82.613C349.254 82.5643 350.163 82.9552 352.116 83.8823C354.938 85.2221 354.938 85.2221 355.682 84.8535C356.091 84.6511 356.827 84.3445 357.318 84.1722C357.808 84 358.24 83.8323 358.278 83.7998C358.316 83.7673 358.815 82.4265 359.387 80.8205C360.586 77.4567 360.222 77.7299 363.419 77.7988C365.487 77.8433 365.082 77.4092 366.325 80.9144C367.364 83.8435 367.364 83.8435 368.224 84.1275C368.696 84.2838 369.451 84.5947 369.901 84.8189C370.719 85.2265 370.719 85.2265 373.55 83.8829C375.948 82.7444 376.407 82.5536 376.554 82.632C376.781 82.7522 379.605 85.5744 379.721 85.7963C379.794 85.9372 379.581 86.4466 378.464 88.7939C377.119 91.6216 377.119 91.6216 377.488 92.3598C377.78 92.9445 378.263 94.141 378.51 94.8909C378.544 94.993 378.596 95.0133 382.123 96.2664C384.811 97.2214 384.568 96.9001 384.568 99.508C384.568 102.134 384.893 101.764 381.541 102.955C379.936 103.525 378.594 104.024 378.56 104.063C378.526 104.103 378.372 104.498 378.219 104.942C378.065 105.385 377.757 106.12 377.534 106.574C377.129 107.399 377.129 107.399 378.473 110.22C379.418 112.202 379.796 113.08 379.746 113.173C379.538 113.555 376.897 116.196 376.516 116.402C376.43 116.449 375.483 116.04 373.558 115.126C370.728 113.781 370.728 113.781 369.99 114.149C369.24 114.523 367.695 115.13 367.493 115.13C367.424 115.13 366.984 116.251 366.324 118.108C365.742 119.746 365.23 121.108 365.185 121.136C365.07 121.207 361.439 121.237 360.89 121.171L360.89 121.171ZM364.782 110.153C373.265 108.648 376.619 98.2012 370.62 91.9654C365.006 86.1281 354.967 88.4628 352.53 96.173C350.057 103.998 356.707 111.586 364.782 110.153ZM361.76 104.853C359.401 104.387 357.567 102.268 357.429 99.848C357.142 94.8247 363.111 92.1345 366.664 95.6857C370.452 99.4718 367.018 105.891 361.76 104.853ZM393.841 97.3998C393.439 97.3515 393.439 97.3515 392.538 94.815C392.042 93.4199 391.608 92.2532 391.573 92.2224C391.537 92.1917 391.192 92.0573 390.806 91.9235C390.42 91.7898 389.78 91.5217 389.383 91.3275C388.663 90.9743 388.663 90.9743 386.206 92.1432C384.504 92.9531 383.715 93.2933 383.637 93.2508C383.304 93.0699 381.022 90.7879 380.828 90.4428C380.786 90.3662 381.128 89.5721 381.938 87.8699C383.109 85.4078 383.109 85.4078 382.789 84.7665C382.461 84.1106 381.934 82.7693 381.934 82.5924C381.934 82.5297 381.001 82.1634 379.365 81.5843C376.291 80.496 376.672 80.8496 376.633 79.0506C376.573 76.2686 376.336 76.5856 379.266 75.5426C380.665 75.0446 381.832 74.6107 381.86 74.5783C381.888 74.546 382.033 74.1705 382.183 73.7437C382.333 73.317 382.601 72.6754 382.778 72.318C383.1 71.6681 383.1 71.6681 381.933 69.2149C381.135 67.5392 380.785 66.7266 380.826 66.6507C381.006 66.3196 383.305 64.0227 383.636 63.8425C383.714 63.8001 384.506 64.1403 386.205 64.9472C388.661 66.1131 388.661 66.1131 389.308 65.7929C389.664 65.6167 390.305 65.3499 390.732 65.1999C391.159 65.05 391.535 64.9041 391.568 64.8758C391.601 64.8474 392.035 63.6807 392.533 62.283C393.577 59.3555 393.259 59.5932 396.042 59.6532C397.842 59.692 397.489 59.3141 398.571 62.3647C399.476 64.9139 399.476 64.9139 400.224 65.1611C400.635 65.297 401.292 65.5678 401.683 65.7628C402.395 66.1174 402.395 66.1174 404.859 64.9482C406.946 63.9573 407.345 63.7913 407.474 63.8595C407.671 63.9641 410.129 66.4202 410.23 66.6134C410.293 66.736 410.107 67.1794 409.136 69.2222C407.965 71.6831 407.965 71.6831 408.286 72.3255C408.54 72.8344 408.96 73.8757 409.176 74.5284C409.205 74.6172 409.251 74.6348 412.32 75.7254C414.659 76.5566 414.448 76.2771 414.448 78.5466C414.448 80.8317 414.731 80.5096 411.813 81.5463C410.416 82.0427 409.249 82.4769 409.219 82.5112C409.189 82.5455 409.056 82.8895 408.922 83.2755C408.788 83.6616 408.52 84.3007 408.326 84.6958C407.974 85.4141 407.974 85.4141 409.144 87.8692C409.966 89.5944 410.295 90.3584 410.251 90.439C410.07 90.7719 407.772 93.0701 407.441 93.2494C407.365 93.2902 406.541 92.9346 404.866 92.1389C402.403 90.9684 402.403 90.9684 401.761 91.2882C401.108 91.6139 399.763 92.1423 399.588 92.1423C399.527 92.1423 399.144 93.1179 398.57 94.7341C398.063 96.1597 397.618 97.3454 397.579 97.369C397.479 97.4311 394.319 97.4569 393.841 97.3998V97.3998ZM397.229 87.8106C404.611 86.5005 407.53 77.4089 402.31 71.9819C397.423 66.9017 388.687 68.9336 386.566 75.6438C384.413 82.4539 390.201 89.0577 397.229 87.8106ZM394.599 83.1981C392.545 82.7926 390.949 80.9484 390.829 78.8421C390.579 74.4703 395.774 72.1291 398.866 75.2197C402.163 78.5147 399.175 84.1017 394.599 83.1981ZM380.722 142.396C380.405 142.358 380.405 142.358 379.696 140.361C379.306 139.263 378.964 138.345 378.936 138.32C378.908 138.296 378.636 138.19 378.332 138.085C378.028 137.98 377.524 137.769 377.212 137.616C376.645 137.338 376.645 137.338 374.711 138.258C373.371 138.896 372.75 139.163 372.688 139.13C372.426 138.988 370.63 137.191 370.478 136.92C370.444 136.859 370.713 136.234 371.351 134.894C372.273 132.956 372.273 132.956 372.021 132.451C371.763 131.935 371.348 130.879 371.348 130.74C371.348 130.69 370.613 130.402 369.326 129.946C366.906 129.089 367.206 129.368 367.175 127.951C367.128 125.761 366.941 126.011 369.248 125.19C370.349 124.798 371.268 124.456 371.29 124.431C371.312 124.405 371.426 124.11 371.544 123.774C371.663 123.438 371.873 122.933 372.013 122.651C372.266 122.14 372.266 122.14 371.347 120.209C370.719 118.889 370.443 118.25 370.476 118.19C370.618 117.929 372.427 116.121 372.688 115.979C372.75 115.946 373.373 116.214 374.71 116.849C376.644 117.767 376.644 117.767 377.153 117.515C377.434 117.376 377.938 117.166 378.274 117.048C378.61 116.93 378.906 116.815 378.932 116.793C378.958 116.77 379.3 115.852 379.692 114.752C380.513 112.447 380.264 112.634 382.454 112.681C383.871 112.712 383.594 112.415 384.445 114.816C385.157 116.823 385.157 116.823 385.746 117.017C386.07 117.124 386.587 117.337 386.895 117.491C387.456 117.77 387.456 117.77 389.395 116.85C391.038 116.07 391.352 115.939 391.453 115.993C391.609 116.075 393.544 118.009 393.623 118.161C393.673 118.257 393.527 118.606 392.762 120.214C391.84 122.152 391.84 122.152 392.093 122.657C392.293 123.058 392.624 123.878 392.793 124.391C392.816 124.461 392.852 124.475 395.269 125.334C397.11 125.988 396.944 125.768 396.944 127.555C396.944 129.354 397.167 129.1 394.87 129.916C393.77 130.307 392.851 130.649 392.828 130.676C392.804 130.703 392.699 130.973 392.594 131.277C392.488 131.581 392.277 132.084 392.125 132.395C391.847 132.961 391.847 132.961 392.768 134.894C393.415 136.252 393.674 136.853 393.64 136.917C393.497 137.179 391.688 138.988 391.427 139.129C391.368 139.161 390.719 138.881 389.401 138.255C387.462 137.333 387.462 137.333 386.956 137.585C386.442 137.841 385.383 138.257 385.245 138.257C385.198 138.257 384.896 139.025 384.444 140.298C384.046 141.42 383.695 142.353 383.664 142.372C383.585 142.421 381.098 142.441 380.722 142.396V142.396ZM383.388 134.847C389.2 133.816 391.498 126.659 387.388 122.387C383.541 118.388 376.664 119.987 374.995 125.269C373.3 130.631 377.856 135.829 383.388 134.847ZM381.318 131.216C379.702 130.897 378.445 129.445 378.351 127.787C378.154 124.346 382.243 122.503 384.678 124.936C387.273 127.53 384.92 131.928 381.318 131.216ZM382.607 44.1125C375.762 44.2195 368.633 45.925 361.469 49.6086C352.532 54.2043 338.114 68.3819 339.726 70.9888C340.478 72.2049 339.957 73.2019 338.567 73.2019C330.297 73.2019 328.082 103.61 335.209 119.292C339.669 129.104 354.122 144.143 359.093 144.143C360.267 144.143 362.006 148.28 362.955 153.338C364.682 162.534 364.68 162.533 384.032 162.533C401.777 162.533 403.277 162.118 402.074 157.522C400.783 152.589 401.968 151.058 418.957 135.711C455.64 102.573 424.439 43.4588 382.607 44.1125ZM382.526 51.5099C394.515 51.5095 406.013 56.5986 414.491 65.6578C422.969 74.7169 427.732 87.0042 427.733 99.8165C427.731 108.78 425.395 117.566 420.988 125.191C416.58 132.817 410.274 138.982 402.775 142.996C398.935 146.627 394.606 149.397 392.597 149.397C390.32 149.397 387.707 151.76 386.789 154.651C384.513 161.819 377.143 161.253 369.702 153.338C366.306 149.725 364.619 146.763 365.955 146.753C366.976 146.745 365.766 145.36 363.213 143.431C355.478 139.525 348.939 133.353 344.356 125.632C339.773 117.911 337.334 108.96 337.323 99.8165C337.34 99.2734 337.366 98.7306 337.4 98.1884C337.224 96.596 337.252 95.2656 337.585 94.3666C337.613 94.2919 337.639 94.2391 337.666 94.1664C338.961 82.4204 344.243 71.5902 352.511 63.7283C360.779 55.8663 371.459 51.5189 382.526 51.5099H382.526ZM393.363 152.026C394.809 152.026 395.989 153.206 395.989 154.651C395.989 156.096 394.809 157.279 393.363 157.279C391.917 157.279 390.733 156.096 390.733 154.651C390.733 153.206 391.917 152.026 393.363 152.026ZM375.1 195.347C375.1 193.279 377.762 191.016 381.015 190.318C384.336 189.604 382.991 189.236 377.95 189.478C372.765 189.727 368.506 188.521 367.873 186.625C367.068 184.216 371.448 183.34 384.302 183.34C397.168 183.34 401.53 184.214 400.707 186.625C400.091 188.431 396.739 189.643 393.259 189.319C389.778 188.995 388.409 189.389 390.217 190.195C397.34 193.372 393.534 199.105 384.302 199.105C378.074 199.105 375.1 197.89 375.1 195.347ZM367.213 178.085C367.213 176.603 374.662 175.458 384.302 175.458C393.941 175.458 401.39 176.603 401.39 178.085C401.39 179.568 393.941 180.713 384.302 180.713C374.662 180.713 367.213 179.568 367.213 178.085ZM367.213 170.203C367.213 167.282 367.989 167.146 387.587 166.627C397.07 166.376 401.389 167.289 401.389 169.546C401.39 171.837 396.22 172.83 384.302 172.83C374.662 172.83 367.213 171.685 367.213 170.203Z" fill="#143D42"/>
</g>
</g>
<defs>
<clipPath id="clip0">
<rect width="618" height="442" fill="white"/>
</clipPath>
</defs>
</svg>
