<svg width="391" height="502" viewBox="0 0 391 502" fill="none" xmlns="http://www.w3.org/2000/svg">
<path fill-rule="evenodd" clip-rule="evenodd" d="M170 0C158.954 0 150 8.95431 150 20V102.5C150 105.538 147.538 108 144.5 108V108C141.462 108 139 105.538 139 102.5V53.5C139 42.7304 130.27 34 119.5 34C108.73 34 100 42.7304 100 53.5V202.5C100 213.27 108.73 222 119.5 222C130.27 222 139 213.27 139 202.5V153.5C139 150.462 141.462 148 144.5 148V148C147.538 148 150 150.462 150 153.5V293C150 304.046 158.954 313 170 313C181.046 313 190 304.046 190 293V20C190 8.95431 181.046 0 170 0ZM69.5 65C58.7304 65 50 73.7304 50 84.5V227.5C50 230.538 47.5376 233 44.5 233V233C41.4624 233 39 230.538 39 227.5V147.5C39 136.73 30.2696 128 19.5 128C8.73045 128 0 136.73 0 147.5V358.5C0 369.27 8.73045 378 19.5 378C30.2696 378 39 369.27 39 358.5V278.5C39 275.462 41.4624 273 44.5 273V273C47.5376 273 50 275.462 50 278.5V420.5C50 431.27 58.7304 440 69.5 440C80.2696 440 89 431.27 89 420.5V84.5C89 73.7304 80.2696 65 69.5 65ZM119.5 251C108.73 251 100 259.73 100 270.5V450.5C100 461.27 108.73 470 119.5 470C130.27 470 139 461.27 139 450.5V270.5C139 259.73 130.27 251 119.5 251ZM150 368C150 356.954 158.954 348 170 348C181.046 348 190 356.954 190 368V482C190 493.046 181.046 502 170 502C158.954 502 150 493.046 150 482V368ZM352 147.5V225.5C352 228.538 349.538 231 346.5 231V231C343.462 231 341 228.538 341 225.5L341 84.5C341 73.7305 332.27 65 321.5 65C310.73 65 302 73.7304 302 84.5L302 421.5C302 432.27 310.73 441 321.5 441C332.27 441 341 432.27 341 421.5L341 276.5C341 273.462 343.462 271 346.5 271V271C349.538 271 352 273.462 352 276.5V358.5C352 369.27 360.73 378 371.5 378C382.27 378 391 369.27 391 358.5V147.5C391 136.73 382.27 128 371.5 128C360.73 128 352 136.73 352 147.5ZM241 403.5C241 400.462 243.462 398 246.5 398V398C249.538 398 252 400.462 252 403.5V451.5C252 462.27 260.73 471 271.5 471C282.27 471 291 462.27 291 451.5V302.5C291 291.73 282.27 283 271.5 283C260.73 283 252 291.73 252 302.5V352.5C252 355.538 249.538 358 246.5 358V358C243.462 358 241 355.538 241 352.5L241 209C241 197.954 232.046 189 221 189C209.954 189 201 197.954 201 209L201 482C201 493.046 209.954 502 221 502C232.046 502 241 493.046 241 482V403.5ZM271.5 251C282.27 251 291 242.27 291 231.5V53.5C291 42.7304 282.27 34 271.5 34C260.73 34 252 42.7304 252 53.5L252 231.5C252 242.27 260.73 251 271.5 251ZM241 136C241 147.046 232.046 156 221 156C209.954 156 201 147.046 201 136L201 22C201 10.9543 209.954 2 221 2C232.046 2 241 10.9543 241 22L241 136Z" fill="#0101CB"/>
</svg>
