<svg width="208" height="206" viewBox="0 0 208 206" fill="none" xmlns="http://www.w3.org/2000/svg">
<path d="M107.36 205.92C162.566 205.92 207.32 161.166 207.32 105.96C207.32 50.7536 162.566 6 107.36 6C52.1535 6 7.3999 50.7536 7.3999 105.96C7.3999 161.166 52.1535 205.92 107.36 205.92Z" fill="white"/>
<path d="M161.16 72.76L131.23 103.21C131.178 103.26 131.136 103.321 131.107 103.388C131.079 103.455 131.064 103.527 131.064 103.6C131.064 103.673 131.079 103.745 131.107 103.812C131.136 103.879 131.178 103.94 131.23 103.99L152.23 126.32C152.733 126.826 153.074 127.469 153.212 128.169C153.35 128.869 153.279 129.594 153.006 130.253C152.734 130.912 152.273 131.476 151.681 131.874C151.09 132.272 150.393 132.486 149.68 132.49C148.721 132.488 147.8 132.107 147.12 131.43L126.23 109.18C126.124 109.075 125.98 109.016 125.83 109.016C125.681 109.016 125.537 109.075 125.43 109.18L120.34 114.32C118.256 116.451 115.767 118.144 113.02 119.3C110.272 120.456 107.321 121.051 104.34 121.05C101.303 121.036 98.299 120.417 95.5037 119.229C92.7085 118.04 90.1781 116.307 88.0602 114.13L83.1702 109.13C83.0636 109.025 82.9199 108.966 82.7702 108.966C82.6205 108.966 82.4769 109.025 82.3702 109.13L61.5302 131.33C61.1949 131.666 60.7966 131.932 60.3582 132.114C59.9198 132.296 59.4499 132.39 58.9752 132.39C58.5006 132.39 58.0306 132.296 57.5922 132.114C57.1538 131.932 56.7555 131.666 56.4202 131.33C56.0831 130.995 55.8155 130.597 55.6329 130.159C55.4504 129.72 55.3564 129.25 55.3564 128.775C55.3564 128.3 55.4504 127.83 55.6329 127.391C55.8155 126.953 56.0831 126.555 56.4202 126.22L77.3402 103.94C77.4332 103.831 77.4843 103.693 77.4843 103.55C77.4843 103.407 77.4332 103.269 77.3402 103.16L47.4102 72.71C47.3333 72.6327 47.2351 72.58 47.1281 72.5586C47.0211 72.5371 46.9102 72.548 46.8095 72.5898C46.7087 72.6316 46.6226 72.7024 46.5622 72.7933C46.5018 72.8841 46.4698 72.991 46.4702 73.1001V134.03C46.4781 136.385 47.4173 138.642 49.0828 140.307C50.7483 141.973 53.0049 142.912 55.3602 142.92H153.23C155.586 142.912 157.842 141.973 159.508 140.307C161.173 138.642 162.112 136.385 162.12 134.03V73.15C162.125 73.0366 162.095 72.9245 162.034 72.8289C161.972 72.7334 161.883 72.6592 161.778 72.6165C161.673 72.5738 161.557 72.5647 161.446 72.5904C161.336 72.6161 161.236 72.6753 161.16 72.76V72.76Z" fill="#143D42"/>
<path d="M104.31 113.82C106.339 113.84 108.351 113.452 110.227 112.679C112.103 111.906 113.804 110.763 115.23 109.32L158.82 64.95C157.273 63.6682 155.329 62.9615 153.32 62.95H55.3799C53.3697 62.9565 51.4247 63.6638 49.8799 64.95L93.4799 109.32C94.893 110.755 96.5794 111.893 98.4395 112.666C100.3 113.439 102.296 113.831 104.31 113.82V113.82Z" fill="#143D42"/>
<path d="M200 100.5C200 155.452 155.452 200 100.5 200C45.5477 200 1 155.452 1 100.5C1 45.5477 45.5477 1 100.5 1C155.452 1 200 45.5477 200 100.5Z" stroke="black" stroke-width="2"/>
</svg>
