<?xml version="1.0" encoding="UTF-8" standalone="no"?>
<svg xmlns="http://www.w3.org/2000/svg" id="svg8" version="1.1" viewBox="0 0 25.4 25.4" height="25.4mm" width="25.4mm">
   <defs id="defs2" />
   <metadata id="metadata5">

   </metadata>
   <g transform="translate(-93.133331,-136.13333)" id="layer1">
      <path id="path129"
         d="m 96.368333,159.56322 c -0.44571,-0.44572 -0.64399,-15.22249 -0.21328,-15.89507 1.54253,-2.40875 9.105837,-2.95125 9.390067,-0.67353 0.15503,1.24238 0.27201,1.1977 -1.52078,0.58089 -0.84702,-0.29142 -1.58305,-0.52985 -1.63561,-0.52985 -0.0526,0 -0.0637,2.87664 -0.0247,6.39254 0.077,6.94904 -0.33728,6.35682 5.81248,8.30868 0.44485,0.14119 0.47668,-0.13203 0.48529,-4.16621 0.009,-4.31731 0.009,-4.31731 1.60102,-2.64223 1.5918,1.67507 1.5918,1.67507 3.15406,0 1.3969,-1.49777 2.65904,4.29654 1.37568,6.31549 -1.11774,1.75839 -6.22891,2.65628 -9.29059,1.63209 -3.17517,-1.06216 -3.17517,-1.06216 -5.861007,0.0154 -3.13243,1.25673 -2.75415,1.18023 -3.2726,0.66179 z m 14.001557,-12.07897 c -2.96442,-3.94355 -3.38912,-6.43027 -1.4324,-8.38699 3.6487,-3.6487 8.57071,0.75918 6.18595,5.53979 -2.13528,4.28048 -3.19776,4.91686 -4.75355,2.8472 z m 2.56131,-4.34731 c 1.00393,-0.90854 0.29734,-2.73712 -1.05767,-2.73712 -1.41526,0 -2.14485,1.64223 -1.19559,2.69115 0.54522,0.60246 1.61425,0.62427 2.25326,0.046 z"
         style="stroke-width:0.26458332" />
   </g>
</svg>