<?xml version="1.0" encoding="UTF-8" standalone="no"?>
<svg xmlns="http://www.w3.org/2000/svg" id="svg8" version="1.1" viewBox="0 0 25.4 25.4" height="25.4mm" width="25.4mm">
   <defs id="defs2" />
   <metadata id="metadata5">

   </metadata>
   <g transform="translate(-93.133331,-136.13333)" id="layer1">
      <path id="path23"
         d="m 102.31892,159.10794 c -0.25327,-0.14173 -0.75431,-0.83752 -1.11342,-1.54619 -0.67113,-1.32441 -0.84026,-1.43585 -2.648209,-1.74487 -1.65325,-0.28259 -1.79643,-0.50105 -1.59024,-2.42639 l 0.17978,-1.67883 -1.08071,-1.17243 c -1.35164,-1.46636 -1.35164,-1.96048 0,-3.42684 l 1.08071,-1.17243 -0.17978,-1.67883 c -0.20619,-1.92534 -0.063,-2.1438 1.59024,-2.42639 1.804749,-0.30848 1.977119,-0.42053 2.630649,-1.71021 0.98479,-1.94339 1.14686,-2.00724 3.02627,-1.19216 l 1.61912,0.70219 1.61912,-0.70219 c 1.87941,-0.81508 2.04149,-0.75123 3.02627,1.19216 0.65353,1.28968 0.8259,1.40173 2.63065,1.71021 1.65326,0.28259 1.79644,0.50105 1.59025,2.42639 l -0.17979,1.67883 1.08071,1.17243 c 1.35164,1.46636 1.35164,1.96048 0,3.42684 l -1.08071,1.17243 0.17979,1.67883 c 0.20619,1.92534 0.063,2.1438 -1.59025,2.42639 -1.80795,0.30902 -1.97708,0.42046 -2.64821,1.74487 -0.91511,1.80589 -1.24166,1.92385 -3.09758,1.11896 -1.35527,-0.58777 -1.63746,-0.62952 -2.26672,-0.33541 -1.9575,0.91492 -2.32538,1.01591 -2.77794,0.76264 z m 6.15954,-9.0908 3.56382,-3.57117 -0.8557,-0.85569 -0.85569,-0.8557 -2.77475,2.7653 -2.77474,2.7653 -1.19684,-1.1746 -1.19684,-1.17461 -0.85102,0.85103 -0.85103,0.85102 1.9719,1.98515 c 2.40035,2.41648 1.61236,2.63119 5.82089,-1.58603 z"
         style="stroke-width:0.26458332" />
   </g>
</svg>