<svg width="207" height="206" viewBox="0 0 207 206" fill="none" xmlns="http://www.w3.org/2000/svg">
<path d="M106.96 205.92C162.166 205.92 206.92 161.166 206.92 105.96C206.92 50.7536 162.166 6 106.96 6C51.7536 6 7 50.7536 7 105.96C7 161.166 51.7536 205.92 106.96 205.92Z" fill="white"/>
<path d="M146.96 128.74C143.48 125.26 135.11 120.01 130.96 118.05C126.17 115.75 124.41 115.79 121.02 118.24C118.2 120.24 116.37 122.17 113.13 121.46C109.89 120.75 103.47 115.91 97.2596 109.72C91.0496 103.53 86.2296 97.1501 85.5396 93.8601C84.8496 90.5701 86.7496 88.7801 88.7696 85.9601C91.2096 82.5701 91.2796 80.8101 88.9596 76.0201C86.9596 71.8701 81.7696 63.5201 78.2596 60.0201C74.7496 56.5201 73.9896 57.2901 72.0696 58.0201C70.0937 58.8484 68.1961 59.8524 66.3996 61.0201C62.9196 63.3501 60.9696 65.2901 59.5996 68.2101C58.2296 71.1301 56.6796 76.5501 64.6496 90.7401C70.529 101.595 77.9756 111.525 86.7496 120.21V120.21C95.4639 129.004 105.428 136.464 116.32 142.35C130.5 150.35 135.93 148.76 138.85 147.4C141.77 146.04 143.71 144.11 146.03 140.6C147.2 138.805 148.204 136.907 149.03 134.93C149.69 133.01 150.47 132.23 146.96 128.74Z" fill="#143D42"/>
<path d="M200 100.5C200 155.452 155.452 200 100.5 200C45.5477 200 1 155.452 1 100.5C1 45.5477 45.5477 1 100.5 1C155.452 1 200 45.5477 200 100.5Z" stroke="black" stroke-width="2"/>
</svg>
