<?xml version="1.0" encoding="UTF-8" standalone="no"?>
<svg xmlns="http://www.w3.org/2000/svg" id="svg8" version="1.1" viewBox="0 0 25.4 25.4" height="25.4mm" width="25.4mm">
   <defs id="defs2" />
   <metadata id="metadata5">

   </metadata>
   <g style="display:none" id="layer2" />
   <g style="display:inline" transform="translate(-93.133331,-136.13333)" id="layer1">
      <path id="path43"
         d="m 103.40234,157.47566 c -0.39115,-0.21132 -2.13144,-1.64527 -3.867287,-3.18655 -1.912522,-1.69815 -3.378517,-2.80233 -3.720576,-2.80233 -0.55743,0 -0.564476,-0.066 -0.564476,-5.29167 v -5.29166 h 2.488776 2.488773 l -0.274147,0.89326 c -0.239,0.77875 -0.17647,1.07459 0.487787,2.30766 1.29682,2.40732 3.18801,3.14298 5.95136,2.31506 l 1.01748,-0.30484 2.18822,2.08588 c 1.29552,1.23495 2.2233,2.34044 2.27422,2.70986 0.0679,0.49297 -0.54304,1.25914 -2.91042,3.64958 -3.24742,3.27905 -4.0795,3.71543 -5.55971,2.91575 z m 10.90028,-6.84878 c 0.002,-0.75109 -0.39928,-1.25318 -3.17363,-3.96819 l -3.17625,-3.1083 -1.39043,0.52848 c -2.01814,0.76705 -2.92046,0.69837 -3.74817,-0.28531 -0.37674,-0.44772 -0.68498,-0.96822 -0.68498,-1.15665 0,-0.34386 5.14953,-2.7918 5.87288,-2.7918 0.21223,0 1.49548,0.48127 2.85168,1.06948 l 2.4658,1.06948 1.54857,-0.52296 1.54857,-0.52296 v 5.27431 5.27432 h -1.05833 c -1.01816,0 -1.05823,-0.0326 -1.05571,-0.8599 z"
         style="stroke-width:0.26458332" />
   </g>
</svg>